{"glyphs":{"0":{"ha":1043,"x_min":97,"x_max":946,"o":"m 571 807 q 765 756 679 807 q 898 616 850 704 q 946 421 946 528 q 872 206 946 306 q 687 46 799 106 q 472 -14 575 -14 q 279 37 365 -14 q 145 176 193 88 q 97 372 97 265 q 171 588 97 488 q 356 747 244 688 q 571 807 468 807 m 490 690 q 278 439 278 690 q 308 271 278 347 q 401 149 339 194 q 553 103 463 103 q 765 356 765 103 q 735 524 765 447 q 642 645 704 600 q 490 690 581 690 z "},"1":{"ha":686,"x_min":111,"x_max":575,"o":"m 547 0 l 125 0 l 125 43 l 260 149 l 260 688 l 111 738 l 139 793 l 561 793 l 561 750 l 426 644 l 426 106 l 575 56 l 547 0 z "},"2":{"ha":819,"x_min":61,"x_max":747,"o":"m 747 -25 l 671 0 l 61 0 l 61 43 q 330 278 238 190 q 458 421 422 365 q 494 524 494 476 q 444 642 494 596 q 315 689 394 689 q 104 585 229 689 l 63 638 l 263 796 q 354 807 299 807 q 523 781 450 807 q 635 710 596 756 q 675 603 675 664 q 318 168 675 468 l 661 168 l 706 281 l 747 267 l 747 -25 z "},"3":{"ha":778,"x_min":38,"x_max":681,"o":"m 471 363 q 635 234 589 288 q 681 117 681 181 q 536 -146 681 -31 q 74 -367 392 -261 l 53 -300 q 329 -183 235 -233 q 462 -78 424 -132 q 500 51 500 -25 q 484 120 500 90 q 428 183 468 150 q 314 263 389 215 l 314 297 q 416 434 390 389 q 442 524 442 479 q 399 642 442 596 q 290 689 357 689 q 79 585 207 689 l 38 638 l 238 796 q 296 807 267 807 q 458 779 383 807 q 578 705 533 751 q 622 603 622 658 q 584 499 618 553 q 471 363 550 444 z "},"4":{"ha":969,"x_min":42,"x_max":935,"o":"m 722 85 l 722 -215 l 556 -297 l 556 85 l 42 85 l 42 128 l 556 751 l 722 833 l 722 183 l 935 183 l 886 85 l 722 85 m 556 615 l 208 183 l 556 183 l 556 615 z "},"5":{"ha":869,"x_min":68,"x_max":696,"o":"m 186 511 q 501 355 392 421 q 653 234 611 289 q 696 117 696 179 q 608 -98 696 -7 q 393 -249 521 -189 q 89 -367 265 -308 l 68 -300 q 353 -178 258 -231 q 482 -74 449 -125 q 515 51 515 -22 q 484 152 515 108 q 364 249 453 196 q 99 379 275 301 l 188 793 l 592 793 l 636 906 l 678 892 l 678 600 l 601 625 l 208 625 l 185 511 l 186 511 z "},"6":{"ha":1015,"x_min":125,"x_max":918,"o":"m 813 1169 q 425 822 544 990 q 306 479 306 654 q 335 291 306 376 q 423 154 364 206 q 567 103 482 103 q 738 328 738 103 q 656 542 738 454 q 447 672 575 631 l 490 735 q 709 690 611 735 q 863 567 807 646 q 918 393 918 489 q 855 201 918 296 q 691 46 792 106 q 486 -14 590 -14 q 299 42 382 -14 q 171 197 217 99 q 125 414 125 294 q 180 699 125 569 q 378 960 235 829 q 779 1226 521 1090 l 813 1169 z "},"7":{"ha":914,"x_min":97,"x_max":831,"o":"m 831 740 l 274 -367 l 207 -336 l 694 625 l 181 625 l 139 526 l 97 540 l 97 818 l 174 793 l 831 793 l 831 740 z "},"8":{"ha":1017,"x_min":99,"x_max":921,"o":"m 640 672 q 787 577 729 621 q 883 477 844 533 q 921 351 921 421 q 858 190 921 276 q 706 44 796 103 q 543 -15 617 -15 q 314 28 415 -15 q 156 148 213 72 q 99 315 99 224 q 159 455 99 385 q 361 632 219 525 q 222 757 272 693 q 172 900 172 821 q 231 1043 172 967 q 373 1172 289 1119 q 528 1225 457 1225 q 690 1191 618 1225 q 801 1099 761 1157 q 840 974 840 1042 q 793 847 835 913 q 639 674 751 782 l 640 672 m 494 1129 q 392 1083 433 1129 q 350 965 350 1036 q 408 835 350 892 q 579 710 467 778 q 657 823 640 785 q 674 908 674 861 q 623 1065 674 1003 q 494 1128 572 1128 l 494 1129 m 549 83 q 650 112 606 83 q 718 188 694 140 q 742 289 742 235 q 706 388 742 342 q 618 472 671 435 q 476 561 565 508 l 419 596 q 306 480 333 524 q 279 383 279 436 q 317 236 279 306 q 417 125 354 167 q 550 83 479 83 l 549 83 z "},"9":{"ha":1015,"x_min":97,"x_max":890,"o":"m 529 807 q 716 756 633 807 q 844 616 799 704 q 890 421 890 528 q 835 143 890 269 q 638 -110 781 17 q 236 -367 494 -236 l 203 -310 q 590 26 471 -136 q 710 356 710 188 q 681 524 710 447 q 592 645 651 600 q 449 690 533 690 q 278 465 278 690 q 355 251 278 339 q 554 121 432 163 l 511 58 q 300 103 394 58 q 151 226 206 147 q 97 400 97 304 q 160 592 97 497 q 324 747 224 688 q 529 807 425 807 z "}," ":{"ha":388,"x_min":0,"x_max":0,"o":""},"A":{"ha":1208,"x_min":-4,"x_max":1208,"o":"m 1181 0 l 758 0 l 758 43 l 889 144 l 782 401 l 315 401 l 201 139 l 446 56 l 418 0 l -4 0 l -4 43 l 126 146 l 519 1047 l 664 1118 l 1069 140 l 1208 56 l 1181 0 m 554 951 l 343 464 l 757 464 l 554 951 z "},"Á":{"ha":1208,"x_min":-4,"x_max":1208,"o":"m 1181 0 l 758 0 l 758 43 l 889 144 l 782 401 l 315 401 l 201 139 l 446 56 l 418 0 l -4 0 l -4 43 l 126 146 l 519 1047 l 664 1118 l 1069 140 l 1208 56 l 1181 0 m 554 951 l 343 464 l 757 464 l 554 951 m 882 1533 l 576 1293 l 521 1321 l 669 1593 l 856 1567 l 882 1533 z "},"Ă":{"ha":1208,"x_min":-4,"x_max":1208,"o":"m 1181 0 l 758 0 l 758 43 l 889 144 l 782 401 l 315 401 l 201 139 l 446 56 l 418 0 l -4 0 l -4 43 l 126 146 l 519 1047 l 664 1118 l 1069 140 l 1208 56 l 1181 0 m 554 951 l 343 464 l 757 464 l 554 951 m 890 1567 q 844 1458 890 1515 q 730 1363 799 1401 q 596 1325 661 1325 q 440 1357 515 1325 q 328 1460 364 1389 l 463 1567 q 542 1443 500 1478 q 631 1408 583 1408 q 705 1432 676 1408 q 733 1489 733 1456 l 890 1567 z "},"Â":{"ha":1208,"x_min":-4,"x_max":1208,"o":"m 1181 0 l 758 0 l 758 43 l 889 144 l 782 401 l 315 401 l 201 139 l 446 56 l 418 0 l -4 0 l -4 43 l 126 146 l 519 1047 l 664 1118 l 1069 140 l 1208 56 l 1181 0 m 554 951 l 343 464 l 757 464 l 554 951 m 889 1299 l 717 1272 l 554 1458 l 335 1285 l 293 1338 l 600 1581 l 915 1332 l 889 1299 z "},"Ä":{"ha":1208,"x_min":-4,"x_max":1208,"o":"m 375 1313 q 313 1342 338 1313 q 289 1414 289 1371 q 306 1471 289 1444 q 350 1513 324 1497 q 401 1529 376 1529 q 463 1500 439 1529 q 488 1428 488 1471 q 470 1371 488 1397 q 426 1328 453 1344 q 375 1313 400 1313 m 806 1313 q 744 1342 768 1313 q 719 1414 719 1371 q 737 1471 719 1444 q 781 1513 754 1497 q 832 1529 807 1529 q 894 1500 869 1529 q 918 1428 918 1471 q 901 1371 918 1397 q 857 1328 883 1344 q 806 1313 831 1313 m 1181 0 l 758 0 l 758 43 l 889 144 l 782 401 l 315 401 l 201 139 l 446 56 l 418 0 l -4 0 l -4 43 l 126 146 l 519 1047 l 664 1118 l 1069 140 l 1208 56 l 1181 0 m 554 951 l 343 464 l 757 464 l 554 951 z "},"À":{"ha":1208,"x_min":-4,"x_max":1208,"o":"m 1181 0 l 758 0 l 758 43 l 889 144 l 782 401 l 315 401 l 201 139 l 446 56 l 418 0 l -4 0 l -4 43 l 126 146 l 519 1047 l 664 1118 l 1069 140 l 1208 56 l 1181 0 m 554 951 l 343 464 l 757 464 l 554 951 m 633 1293 l 328 1533 l 354 1567 l 540 1593 l 689 1321 l 633 1293 z "},"Ā":{"ha":1208,"x_min":-4,"x_max":1208,"o":"m 1181 0 l 758 0 l 758 43 l 889 144 l 782 401 l 315 401 l 201 139 l 446 56 l 418 0 l -4 0 l -4 43 l 126 146 l 519 1047 l 664 1118 l 1069 140 l 1208 56 l 1181 0 m 554 951 l 343 464 l 757 464 l 554 951 m 286 1457 l 922 1457 l 922 1400 l 286 1400 l 286 1457 z "},"Ą":{"ha":1208,"x_min":-4,"x_max":1208,"o":"m 1183 0 q 1094 -94 1121 -57 q 1067 -162 1067 -132 q 1082 -201 1067 -187 q 1131 -222 1097 -215 l 1131 -275 l 1015 -367 q 893 -211 893 -321 q 904 -156 893 -181 l 1100 0 l 758 0 l 758 43 l 889 144 l 782 401 l 315 401 l 201 139 l 446 56 l 418 0 l -4 0 l -4 43 l 126 146 l 519 1047 l 664 1118 l 1069 140 l 1208 56 l 1182 1 l 1183 0 m 554 951 l 343 464 l 757 464 l 554 951 z "},"Å":{"ha":1208,"x_min":-4,"x_max":1208,"o":"m 1181 0 l 758 0 l 758 43 l 889 144 l 782 401 l 315 401 l 201 139 l 446 56 l 418 0 l -4 0 l -4 43 l 126 146 l 519 1047 l 664 1118 l 1069 140 l 1208 56 l 1181 0 m 554 951 l 343 464 l 757 464 l 554 951 m 653 1581 q 762 1541 718 1581 q 806 1444 806 1501 q 767 1353 806 1396 q 669 1285 728 1311 q 554 1260 611 1260 q 446 1299 490 1260 q 401 1396 401 1339 q 440 1487 401 1444 q 538 1555 479 1529 q 653 1581 596 1581 m 572 1519 q 517 1505 536 1519 q 499 1463 499 1490 q 534 1361 499 1401 q 635 1321 569 1321 q 690 1336 671 1321 q 708 1379 708 1351 q 673 1480 708 1440 q 572 1519 638 1519 z "},"Ã":{"ha":1208,"x_min":-4,"x_max":1208,"o":"m 1181 0 l 758 0 l 758 43 l 889 144 l 782 401 l 315 401 l 201 139 l 446 56 l 418 0 l -4 0 l -4 43 l 126 146 l 519 1047 l 664 1118 l 1069 140 l 1208 56 l 1181 0 m 554 951 l 343 464 l 757 464 l 554 951 m 532 1581 q 724 1475 633 1475 q 810 1506 768 1475 l 857 1542 l 899 1489 l 675 1313 q 485 1417 574 1417 q 394 1385 438 1417 l 350 1351 l 308 1404 l 532 1581 z "},"Æ":{"ha":1528,"x_min":-4,"x_max":1389,"o":"m 1313 -1 l 521 -1 l 521 42 l 651 144 l 651 525 l 404 525 l 188 139 l 404 54 l 376 -1 l -4 -1 l -4 42 l 100 124 l 576 975 l 397 1036 l 425 1092 l 1300 1092 l 1375 1117 l 1375 797 l 1333 783 l 1168 1029 l 826 1029 l 826 589 l 1003 589 l 1104 767 l 1147 767 l 1147 344 l 1092 317 l 1004 526 l 826 526 l 826 63 l 1163 63 l 1347 336 l 1389 322 l 1388 -26 l 1313 -1 m 651 964 l 439 588 l 651 588 l 651 964 z "},"B":{"ha":1096,"x_min":69,"x_max":1013,"o":"m 783 588 q 951 485 890 557 q 1013 318 1013 413 q 942 153 1013 231 q 767 31 872 76 q 568 -15 663 -15 q 432 -8 499 -15 q 260 -1 321 -1 l 83 -1 l 83 42 l 214 144 l 214 989 l 69 1036 l 97 1092 l 258 1092 q 507 1100 385 1092 q 646 1106 601 1106 q 810 1069 739 1106 q 919 972 881 1033 q 957 833 957 910 q 909 701 957 764 q 783 590 861 638 l 783 588 m 769 764 q 711 943 769 874 q 538 1013 653 1013 q 388 965 454 1013 l 388 597 l 586 597 q 721 641 672 597 q 769 765 769 685 l 769 764 m 607 86 q 766 136 707 86 q 825 271 825 186 q 762 446 825 379 q 574 517 699 513 q 547 515 564 515 l 388 515 l 388 122 q 607 85 481 85 l 607 86 z "},"C":{"ha":1139,"x_min":97,"x_max":1051,"o":"m 694 1119 q 865 1099 768 1119 q 1006 1054 961 1078 l 1006 785 l 953 785 q 614 1003 825 1003 q 447 949 522 1003 q 328 801 371 896 q 285 588 285 706 q 327 339 285 451 q 456 158 369 226 q 671 90 543 90 q 1010 268 789 90 l 1051 201 l 796 3 q 697 -22 744 -15 q 593 -28 649 -28 q 335 43 447 -28 q 160 238 222 114 q 97 521 97 363 q 192 822 97 683 q 426 1040 286 960 q 694 1119 567 1119 z "},"Ć":{"ha":1139,"x_min":97,"x_max":1051,"o":"m 694 1119 q 865 1099 768 1119 q 1006 1054 961 1078 l 1006 785 l 953 785 q 614 1003 825 1003 q 447 949 522 1003 q 328 801 371 896 q 285 588 285 706 q 327 339 285 451 q 456 158 369 226 q 671 90 543 90 q 1010 268 789 90 l 1051 201 l 796 3 q 697 -22 744 -15 q 593 -28 649 -28 q 335 43 447 -28 q 160 238 222 114 q 97 521 97 363 q 192 822 97 683 q 426 1040 286 960 q 694 1119 567 1119 m 882 1533 l 576 1293 l 521 1321 l 669 1593 l 856 1567 l 882 1533 z "},"Č":{"ha":1139,"x_min":97,"x_max":1051,"o":"m 694 1119 q 865 1099 768 1119 q 1006 1054 961 1078 l 1006 785 l 953 785 q 614 1003 825 1003 q 447 949 522 1003 q 328 801 371 896 q 285 588 285 706 q 327 339 285 451 q 456 158 369 226 q 671 90 543 90 q 1010 268 789 90 l 1051 201 l 796 3 q 697 -22 744 -15 q 593 -28 649 -28 q 335 43 447 -28 q 160 238 222 114 q 97 521 97 363 q 192 822 97 683 q 426 1040 286 960 q 694 1119 567 1119 m 608 1285 l 293 1533 l 319 1567 l 492 1593 l 654 1407 l 874 1581 l 915 1528 l 608 1285 z "},"Ç":{"ha":1139,"x_min":97,"x_max":1051,"o":"m 793 3 q 681 -24 736 -17 l 629 -65 q 721 -153 696 -118 q 746 -226 746 -187 q 681 -325 746 -290 q 479 -367 615 -360 l 479 -324 q 608 -201 608 -282 q 588 -147 608 -171 q 518 -92 568 -122 l 597 -28 l 593 -28 q 335 43 447 -28 q 160 238 222 114 q 97 521 97 363 q 192 822 97 683 q 426 1040 286 960 q 694 1119 567 1119 q 865 1099 768 1119 q 1006 1054 961 1078 l 1006 785 l 953 785 q 614 1003 825 1003 q 447 949 522 1003 q 328 801 371 896 q 285 588 285 706 q 327 339 285 451 q 456 158 369 226 q 671 90 543 90 q 1010 268 789 90 l 1051 201 l 796 3 l 793 3 z "},"Ċ":{"ha":1139,"x_min":97,"x_max":1051,"o":"m 694 1119 q 865 1099 768 1119 q 1006 1054 961 1078 l 1006 785 l 953 785 q 614 1003 825 1003 q 447 949 522 1003 q 328 801 371 896 q 285 588 285 706 q 327 339 285 451 q 456 158 369 226 q 671 90 543 90 q 1010 268 789 90 l 1051 201 l 796 3 q 697 -22 744 -15 q 593 -28 649 -28 q 335 43 447 -28 q 160 238 222 114 q 97 521 97 363 q 192 822 97 683 q 426 1040 286 960 q 694 1119 567 1119 m 618 1535 q 687 1504 660 1535 q 714 1428 714 1474 q 694 1367 714 1396 q 646 1322 675 1339 q 589 1306 617 1306 q 520 1336 547 1306 q 493 1413 493 1367 q 513 1473 493 1444 q 561 1518 532 1501 q 618 1535 590 1535 z "},"D":{"ha":1235,"x_min":69,"x_max":1138,"o":"m 653 1104 q 906 1035 796 1104 q 1077 844 1017 967 q 1138 568 1138 722 q 1045 276 1138 410 q 816 63 953 142 q 554 -15 679 -15 q 425 -8 490 -15 q 260 -1 318 -1 l 83 -1 l 83 42 l 214 144 l 214 989 l 69 1036 l 97 1092 l 258 1092 q 515 1100 390 1092 q 653 1106 610 1106 l 653 1104 m 593 88 q 775 141 693 88 q 903 290 857 194 q 950 503 950 385 q 906 760 950 644 q 770 946 861 876 q 544 1015 679 1015 q 388 965 460 1015 l 388 122 q 593 88 472 88 z "},"Ð":{"ha":1235,"x_min":69,"x_max":1138,"o":"m 653 1104 q 906 1035 796 1104 q 1077 844 1017 967 q 1138 568 1138 722 q 1045 276 1138 410 q 816 63 953 142 q 554 -15 679 -15 q 425 -8 490 -15 q 260 -1 318 -1 l 83 -1 l 83 42 l 214 144 l 214 989 l 69 1036 l 97 1092 l 258 1092 q 515 1100 390 1092 q 653 1106 610 1106 l 653 1104 m 593 88 q 775 141 693 88 q 903 290 857 194 q 950 503 950 385 q 906 760 950 644 q 770 946 861 876 q 544 1015 679 1015 q 388 965 460 1015 l 388 122 q 593 88 472 88 m 347 575 l 347 575 l 347 575 l 347 575 l 347 575 m 347 575 l 347 575 l 347 575 l 347 575 l 347 575 z "},"Ď":{"ha":1235,"x_min":69,"x_max":1138,"o":"m 653 1104 q 906 1035 796 1104 q 1077 844 1017 967 q 1138 568 1138 722 q 1045 276 1138 410 q 816 63 953 142 q 554 -15 679 -15 q 425 -8 490 -15 q 260 -1 318 -1 l 83 -1 l 83 42 l 214 144 l 214 989 l 69 1036 l 97 1092 l 258 1092 q 515 1100 390 1092 q 653 1106 610 1106 l 653 1104 m 593 88 q 775 141 693 88 q 903 290 857 194 q 950 503 950 385 q 906 760 950 644 q 770 946 861 876 q 544 1015 679 1015 q 388 965 460 1015 l 388 122 q 593 88 472 88 m 567 1285 l 251 1533 l 278 1567 l 450 1593 l 613 1407 l 832 1581 l 874 1528 l 567 1285 z "},"Đ":{"ha":1235,"x_min":69,"x_max":1138,"o":"m 653 1104 q 906 1035 796 1104 q 1077 844 1017 967 q 1138 568 1138 722 q 1045 276 1138 410 q 816 63 953 142 q 554 -15 679 -15 q 425 -8 490 -15 q 260 -1 318 -1 l 83 -1 l 83 42 l 214 144 l 214 989 l 69 1036 l 97 1092 l 258 1092 q 515 1100 390 1092 q 653 1106 610 1106 l 653 1104 m 593 88 q 775 141 693 88 q 903 290 857 194 q 950 503 950 385 q 906 760 950 644 q 770 946 861 876 q 544 1015 679 1015 q 388 965 460 1015 l 388 122 q 593 88 472 88 z "},"E":{"ha":1131,"x_min":69,"x_max":992,"o":"m 917 0 l 83 0 l 83 43 l 214 146 l 214 988 l 69 1036 l 97 1092 l 903 1092 l 978 1117 l 978 797 l 936 783 l 771 1029 l 388 1029 l 388 589 l 606 589 l 707 767 l 750 767 l 750 344 l 694 317 l 607 526 l 388 526 l 388 63 l 765 63 l 950 336 l 992 322 l 992 -25 l 917 0 z "},"É":{"ha":1131,"x_min":69,"x_max":992,"o":"m 917 0 l 83 0 l 83 43 l 214 146 l 214 988 l 69 1036 l 97 1092 l 903 1092 l 978 1117 l 978 797 l 936 783 l 771 1029 l 388 1029 l 388 589 l 606 589 l 707 767 l 750 767 l 750 344 l 694 317 l 607 526 l 388 526 l 388 63 l 765 63 l 950 336 l 992 322 l 992 -25 l 917 0 m 843 1533 l 538 1293 l 482 1321 l 631 1593 l 817 1567 l 843 1533 z "},"Ě":{"ha":1131,"x_min":69,"x_max":992,"o":"m 917 0 l 83 0 l 83 43 l 214 146 l 214 988 l 69 1036 l 97 1092 l 903 1092 l 978 1117 l 978 797 l 936 783 l 771 1029 l 388 1029 l 388 589 l 606 589 l 707 767 l 750 767 l 750 344 l 694 317 l 607 526 l 388 526 l 388 63 l 765 63 l 950 336 l 992 322 l 992 -25 l 917 0 m 569 1285 l 254 1533 l 281 1567 l 453 1593 l 615 1407 l 835 1581 l 876 1528 l 569 1285 z "},"Ê":{"ha":1131,"x_min":69,"x_max":992,"o":"m 917 0 l 83 0 l 83 43 l 214 146 l 214 988 l 69 1036 l 97 1092 l 903 1092 l 978 1117 l 978 797 l 936 783 l 771 1029 l 388 1029 l 388 589 l 606 589 l 707 767 l 750 767 l 750 344 l 694 317 l 607 526 l 388 526 l 388 63 l 765 63 l 950 336 l 992 322 l 992 -25 l 917 0 m 850 1299 l 678 1272 l 515 1458 l 296 1285 l 254 1338 l 561 1581 l 876 1332 l 850 1299 z "},"Ë":{"ha":1131,"x_min":69,"x_max":992,"o":"m 336 1313 q 274 1342 299 1313 q 250 1414 250 1371 q 267 1471 250 1444 q 311 1513 285 1497 q 363 1529 338 1529 q 424 1500 400 1529 q 449 1428 449 1471 q 431 1371 449 1397 q 388 1328 414 1344 q 336 1313 361 1313 m 767 1313 q 705 1342 729 1313 q 681 1414 681 1371 q 698 1471 681 1444 q 742 1513 715 1497 q 793 1529 768 1529 q 855 1500 831 1529 q 879 1428 879 1471 q 862 1371 879 1397 q 818 1328 844 1344 q 767 1313 792 1313 m 917 0 l 83 0 l 83 43 l 214 146 l 214 988 l 69 1036 l 97 1092 l 903 1092 l 978 1117 l 978 797 l 936 783 l 771 1029 l 388 1029 l 388 589 l 606 589 l 707 767 l 750 767 l 750 344 l 694 317 l 607 526 l 388 526 l 388 63 l 765 63 l 950 336 l 992 322 l 992 -25 l 917 0 z "},"Ė":{"ha":1131,"x_min":69,"x_max":992,"o":"m 917 0 l 83 0 l 83 43 l 214 146 l 214 988 l 69 1036 l 97 1092 l 903 1092 l 978 1117 l 978 797 l 936 783 l 771 1029 l 388 1029 l 388 589 l 606 589 l 707 767 l 750 767 l 750 344 l 694 317 l 607 526 l 388 526 l 388 63 l 765 63 l 950 336 l 992 322 l 992 -25 l 917 0 m 579 1535 q 648 1504 621 1535 q 675 1428 675 1474 q 656 1367 675 1396 q 607 1322 636 1339 q 550 1306 578 1306 q 481 1336 508 1306 q 454 1413 454 1367 q 474 1473 454 1444 q 522 1518 493 1501 q 579 1535 551 1535 z "},"È":{"ha":1131,"x_min":69,"x_max":992,"o":"m 917 0 l 83 0 l 83 43 l 214 146 l 214 988 l 69 1036 l 97 1092 l 903 1092 l 978 1117 l 978 797 l 936 783 l 771 1029 l 388 1029 l 388 589 l 606 589 l 707 767 l 750 767 l 750 344 l 694 317 l 607 526 l 388 526 l 388 63 l 765 63 l 950 336 l 992 322 l 992 -25 l 917 0 m 594 1293 l 289 1533 l 315 1567 l 501 1593 l 650 1321 l 594 1293 z "},"Ē":{"ha":1131,"x_min":69,"x_max":992,"o":"m 917 0 l 83 0 l 83 43 l 214 146 l 214 988 l 69 1036 l 97 1092 l 903 1092 l 978 1117 l 978 797 l 936 783 l 771 1029 l 388 1029 l 388 589 l 606 589 l 707 767 l 750 767 l 750 344 l 694 317 l 607 526 l 388 526 l 388 63 l 765 63 l 950 336 l 992 322 l 992 -25 l 917 0 m 247 1457 l 883 1457 l 883 1400 l 247 1400 l 247 1457 z "},"Ę":{"ha":1131,"x_min":69,"x_max":992,"o":"m 964 -17 q 888 -99 911 -65 q 864 -162 864 -133 q 879 -201 864 -187 q 928 -222 894 -215 l 928 -275 l 813 -367 q 690 -211 690 -321 q 701 -156 690 -181 l 897 0 l 83 0 l 83 43 l 214 146 l 214 988 l 69 1036 l 97 1092 l 903 1092 l 978 1117 l 978 797 l 936 783 l 771 1029 l 388 1029 l 388 589 l 606 589 l 707 767 l 750 767 l 750 344 l 694 317 l 607 526 l 388 526 l 388 63 l 765 63 l 950 336 l 992 322 l 992 -26 l 964 -17 z "},"F":{"ha":1075,"x_min":69,"x_max":979,"o":"m 979 797 l 938 783 l 772 1029 l 389 1029 l 389 589 l 607 589 l 708 767 l 751 767 l 751 386 l 696 358 l 611 526 l 388 526 l 388 115 l 603 56 l 575 0 l 83 0 l 83 43 l 214 146 l 214 988 l 69 1036 l 97 1092 l 903 1092 l 979 1117 l 979 797 z "},"G":{"ha":1264,"x_min":97,"x_max":1201,"o":"m 1069 219 l 1107 160 l 851 3 q 738 -22 793 -15 q 621 -28 683 -28 q 348 43 467 -28 q 163 238 229 114 q 97 521 97 363 q 196 822 97 683 q 442 1040 294 960 q 722 1119 589 1119 q 907 1099 801 1119 q 1061 1054 1013 1078 l 1061 785 l 1008 785 q 642 1003 869 1003 q 460 949 542 1003 q 331 801 378 896 q 285 588 285 706 q 330 339 285 451 q 468 158 375 226 q 699 90 561 90 q 800 94 760 90 q 896 121 840 99 l 896 449 l 682 508 l 710 564 l 1201 564 l 1201 521 l 1069 417 l 1069 219 z "},"Ğ":{"ha":1264,"x_min":97,"x_max":1201,"o":"m 1069 219 l 1107 160 l 851 3 q 738 -22 793 -15 q 621 -28 683 -28 q 348 43 467 -28 q 163 238 229 114 q 97 521 97 363 q 196 822 97 683 q 442 1040 294 960 q 722 1119 589 1119 q 907 1099 801 1119 q 1061 1054 1013 1078 l 1061 785 l 1008 785 q 642 1003 869 1003 q 460 949 542 1003 q 331 801 378 896 q 285 588 285 706 q 330 339 285 451 q 468 158 375 226 q 699 90 561 90 q 800 94 760 90 q 896 121 840 99 l 896 449 l 682 508 l 710 564 l 1201 564 l 1201 521 l 1069 417 l 1069 219 m 939 1567 q 893 1458 939 1515 q 778 1363 847 1401 q 644 1325 710 1325 q 488 1357 564 1325 q 376 1460 413 1389 l 511 1567 q 590 1443 549 1478 q 679 1408 632 1408 q 753 1432 725 1408 q 782 1489 782 1456 l 939 1567 z "},"Ģ":{"ha":1264,"x_min":97,"x_max":1201,"o":"m 1069 219 l 1107 160 l 851 3 q 738 -22 793 -15 q 621 -28 683 -28 q 348 43 467 -28 q 163 238 229 114 q 97 521 97 363 q 196 822 97 683 q 442 1040 294 960 q 722 1119 589 1119 q 907 1099 801 1119 q 1061 1054 1013 1078 l 1061 785 l 1008 785 q 642 1003 869 1003 q 460 949 542 1003 q 331 801 378 896 q 285 588 285 706 q 330 339 285 451 q 468 158 375 226 q 699 90 561 90 q 800 94 760 90 q 896 121 840 99 l 896 449 l 682 508 l 710 564 l 1201 564 l 1201 521 l 1069 417 l 1069 219 m 833 -158 l 657 -422 l 601 -422 l 638 -250 l 529 -171 l 557 -115 l 833 -115 l 833 -158 z "},"Ġ":{"ha":1264,"x_min":97,"x_max":1201,"o":"m 1069 219 l 1107 160 l 851 3 q 738 -22 793 -15 q 621 -28 683 -28 q 348 43 467 -28 q 163 238 229 114 q 97 521 97 363 q 196 822 97 683 q 442 1040 294 960 q 722 1119 589 1119 q 907 1099 801 1119 q 1061 1054 1013 1078 l 1061 785 l 1008 785 q 642 1003 869 1003 q 460 949 542 1003 q 331 801 378 896 q 285 588 285 706 q 330 339 285 451 q 468 158 375 226 q 699 90 561 90 q 800 94 760 90 q 896 121 840 99 l 896 449 l 682 508 l 710 564 l 1201 564 l 1201 521 l 1069 417 l 1069 219 m 667 1535 q 735 1504 708 1535 q 763 1428 763 1474 q 743 1367 763 1396 q 694 1322 724 1339 q 638 1306 665 1306 q 569 1336 596 1306 q 542 1413 542 1367 q 561 1473 542 1444 q 610 1518 581 1501 q 667 1535 639 1535 z "},"H":{"ha":1325,"x_min":69,"x_max":1256,"o":"m 1228 0 l 806 0 l 806 43 l 936 146 l 936 513 l 388 513 l 388 106 l 533 56 l 506 0 l 83 0 l 83 43 l 214 146 l 214 988 l 69 1036 l 97 1092 l 519 1092 l 519 1049 l 388 946 l 388 575 l 936 575 l 936 988 l 792 1036 l 819 1092 l 1242 1092 l 1242 1049 l 1110 946 l 1110 106 l 1256 56 l 1228 0 z "},"Ħ":{"ha":1325,"x_min":0,"x_max":1325,"o":"m 1110 106 l 1256 56 l 1228 0 l 806 0 l 806 43 l 936 146 l 936 513 l 388 513 l 388 106 l 533 56 l 506 0 l 83 0 l 83 43 l 214 146 l 214 763 l 0 763 l 0 825 l 214 825 l 214 988 l 69 1036 l 97 1092 l 519 1092 l 519 1049 l 388 946 l 388 825 l 936 825 l 936 988 l 792 1036 l 819 1092 l 1242 1092 l 1242 1049 l 1110 946 l 1110 825 l 1325 825 l 1325 763 l 1110 763 l 1110 106 m 388 763 l 388 575 l 936 575 l 936 763 l 388 763 z "},"I":{"ha":603,"x_min":69,"x_max":533,"o":"m 506 0 l 83 0 l 83 43 l 214 146 l 214 988 l 69 1036 l 97 1092 l 519 1092 l 519 1049 l 388 946 l 388 106 l 533 56 l 506 0 z "},"Ĳ":{"ha":1192,"x_min":69,"x_max":1122,"o":"m 506 0 l 83 0 l 83 43 l 214 146 l 214 988 l 69 1036 l 97 1092 l 519 1092 l 519 1049 l 388 946 l 388 106 l 533 56 l 506 0 m 990 138 q 994 35 990 82 q 1003 -28 997 -11 l 736 -367 l 683 -325 q 790 -156 763 -225 q 817 15 817 -86 l 817 982 l 644 1036 l 672 1092 l 1122 1092 l 1122 1049 l 990 946 l 990 138 z "},"Í":{"ha":603,"x_min":69,"x_max":579,"o":"m 506 0 l 83 0 l 83 43 l 214 146 l 214 988 l 69 1036 l 97 1092 l 519 1092 l 519 1049 l 388 946 l 388 106 l 533 56 l 506 0 m 579 1533 l 274 1293 l 218 1321 l 367 1593 l 553 1567 l 579 1533 z "},"Î":{"ha":603,"x_min":-10,"x_max":613,"o":"m 506 0 l 83 0 l 83 43 l 214 146 l 214 988 l 69 1036 l 97 1092 l 519 1092 l 519 1049 l 388 946 l 388 106 l 533 56 l 506 0 m 586 1299 l 414 1272 l 251 1458 l 32 1285 l -10 1338 l 297 1581 l 613 1332 l 586 1299 z "},"Ï":{"ha":603,"x_min":13,"x_max":589,"o":"m 506 0 l 83 0 l 83 43 l 214 146 l 214 988 l 69 1036 l 97 1092 l 519 1092 l 519 1049 l 388 946 l 388 106 l 533 56 l 506 0 m 126 1530 q 188 1500 164 1530 q 213 1428 213 1471 q 195 1371 213 1398 q 151 1328 178 1343 q 100 1312 125 1312 q 38 1341 63 1312 q 14 1413 14 1370 q 31 1471 14 1444 q 75 1514 49 1498 q 126 1530 101 1530 m 501 1530 q 563 1500 539 1530 q 588 1428 588 1471 q 570 1371 588 1398 q 526 1328 553 1343 q 475 1312 500 1312 q 413 1341 438 1312 q 389 1413 389 1370 q 406 1471 389 1444 q 450 1514 424 1498 q 501 1530 476 1530 z "},"İ":{"ha":603,"x_min":69,"x_max":533,"o":"m 506 0 l 83 0 l 83 43 l 214 146 l 214 988 l 69 1036 l 97 1092 l 519 1092 l 519 1049 l 388 946 l 388 106 l 533 56 l 506 0 m 315 1535 q 384 1504 357 1535 q 411 1428 411 1474 q 392 1367 411 1396 q 343 1322 372 1339 q 286 1306 314 1306 q 217 1336 244 1306 q 190 1413 190 1367 q 210 1473 190 1444 q 258 1518 229 1501 q 315 1535 288 1535 z "},"Ì":{"ha":603,"x_min":25,"x_max":533,"o":"m 506 0 l 83 0 l 83 43 l 214 146 l 214 988 l 69 1036 l 97 1092 l 519 1092 l 519 1049 l 388 946 l 388 106 l 533 56 l 506 0 m 331 1293 l 25 1533 l 51 1567 l 238 1593 l 386 1321 l 331 1293 z "},"Ī":{"ha":603,"x_min":-17,"x_max":619,"o":"m 506 0 l 83 0 l 83 43 l 214 146 l 214 988 l 69 1036 l 97 1092 l 519 1092 l 519 1049 l 388 946 l 388 106 l 533 56 l 506 0 m -17 1457 l 619 1457 l 619 1400 l -17 1400 l -17 1457 z "},"Į":{"ha":603,"x_min":69,"x_max":533,"o":"m 506 0 q 416 -94 443 -57 q 389 -162 389 -132 q 404 -201 389 -187 q 453 -222 419 -215 l 453 -275 l 338 -367 q 215 -211 215 -321 q 226 -156 215 -181 l 422 0 l 83 0 l 83 43 l 214 146 l 214 988 l 69 1036 l 97 1092 l 519 1092 l 519 1049 l 388 946 l 388 106 l 533 56 l 506 0 z "},"J":{"ha":589,"x_min":42,"x_max":519,"o":"m 388 138 q 391 35 388 82 q 400 -28 394 -11 l 133 -367 l 81 -325 q 187 -156 160 -225 q 214 15 214 -86 l 214 982 l 42 1036 l 69 1092 l 519 1092 l 519 1049 l 388 946 l 388 138 z "},"K":{"ha":1194,"x_min":69,"x_max":1176,"o":"m 533 56 l 506 0 l 83 0 l 83 43 l 214 146 l 214 988 l 69 1036 l 97 1092 l 519 1092 l 519 1049 l 388 946 l 388 106 l 533 56 m 1149 0 l 897 0 l 467 547 l 893 919 l 732 1036 l 760 1092 l 1133 1092 l 1133 1049 l 633 613 l 1015 135 l 1176 56 l 1149 0 z "},"Ķ":{"ha":1194,"x_min":69,"x_max":1176,"o":"m 533 56 l 506 0 l 83 0 l 83 43 l 214 146 l 214 988 l 69 1036 l 97 1092 l 519 1092 l 519 1049 l 388 946 l 388 106 l 533 56 m 1149 0 l 897 0 l 467 547 l 893 919 l 732 1036 l 760 1092 l 1133 1092 l 1133 1049 l 633 613 l 1015 135 l 1176 56 l 1149 0 m 799 -158 l 622 -422 l 567 -422 l 603 -250 l 494 -171 l 522 -115 l 799 -115 l 799 -158 z "},"L":{"ha":1089,"x_min":69,"x_max":992,"o":"m 917 0 l 83 0 l 83 43 l 214 146 l 214 988 l 69 1036 l 97 1092 l 519 1092 l 519 1049 l 388 946 l 388 63 l 746 63 l 950 364 l 992 350 l 992 -25 l 917 0 z "},"Ĺ":{"ha":1089,"x_min":69,"x_max":992,"o":"m 917 0 l 83 0 l 83 43 l 214 146 l 214 988 l 69 1036 l 97 1092 l 519 1092 l 519 1049 l 388 946 l 388 63 l 746 63 l 950 364 l 992 350 l 992 -25 l 917 0 m 603 1533 l 297 1293 l 242 1321 l 390 1593 l 576 1567 l 603 1533 z "},"Ľ":{"ha":1089,"x_min":69,"x_max":992,"o":"m 917 0 l 83 0 l 83 43 l 214 146 l 214 988 l 69 1036 l 97 1092 l 519 1092 l 519 1049 l 388 946 l 388 63 l 746 63 l 950 364 l 992 350 l 992 -25 l 917 0 m 829 883 l 663 672 l 610 714 q 660 817 643 764 q 678 915 678 869 q 676 939 678 932 l 621 988 l 621 1031 l 776 1092 l 829 1092 l 829 883 z "},"Ļ":{"ha":1089,"x_min":69,"x_max":992,"o":"m 917 0 l 83 0 l 83 43 l 214 146 l 214 988 l 69 1036 l 97 1092 l 519 1092 l 519 1049 l 388 946 l 388 63 l 746 63 l 950 364 l 992 350 l 992 -25 l 917 0 m 711 -158 l 535 -422 l 479 -422 l 515 -250 l 407 -171 l 435 -115 l 711 -115 l 711 -158 z "},"Ŀ":{"ha":1089,"x_min":69,"x_max":992,"o":"m 917 0 l 83 0 l 83 43 l 214 146 l 214 988 l 69 1036 l 97 1092 l 519 1092 l 519 1049 l 388 946 l 388 63 l 746 63 l 950 364 l 992 350 l 992 -25 l 917 0 m 869 826 q 938 796 911 826 q 965 719 965 765 q 946 659 965 688 q 897 614 926 631 q 840 597 868 597 q 772 628 799 597 q 744 704 744 658 q 764 765 744 736 q 813 810 783 793 q 869 826 842 826 z "},"Ł":{"ha":1089,"x_min":0,"x_max":992,"o":"m 917 -1 l 83 -1 l 83 42 l 214 144 l 214 386 l 0 217 l 0 296 l 214 465 l 214 986 l 69 1035 l 97 1090 l 519 1090 l 519 1047 l 388 944 l 388 542 l 772 846 l 772 767 l 388 463 l 388 63 l 746 63 l 950 364 l 992 350 l 992 -26 l 917 -1 z "},"M":{"ha":1494,"x_min":69,"x_max":1425,"o":"m 1397 -1 l 975 -1 l 975 42 l 1106 144 l 1106 913 l 735 -1 l 658 -1 l 290 922 l 290 128 l 436 54 l 408 -1 l 83 -1 l 83 42 l 214 144 l 214 958 l 69 1036 l 97 1092 l 399 1092 l 746 219 l 1092 1092 l 1411 1092 l 1411 1049 l 1279 946 l 1279 106 l 1425 54 l 1397 -1 z "},"N":{"ha":1214,"x_min":69,"x_max":1158,"o":"m 1026 944 l 1026 -1 l 950 -1 l 290 833 l 290 128 l 436 54 l 408 -1 l 83 -1 l 83 42 l 214 144 l 214 958 l 69 1036 l 97 1092 l 307 1092 l 950 278 l 950 964 l 806 1036 l 833 1092 l 1158 1092 l 1158 1047 l 1026 944 z "},"Ń":{"ha":1214,"x_min":69,"x_max":1158,"o":"m 1026 944 l 1026 -1 l 950 -1 l 290 833 l 290 128 l 436 54 l 408 -1 l 83 -1 l 83 42 l 214 144 l 214 958 l 69 1036 l 97 1092 l 307 1092 l 950 278 l 950 964 l 806 1036 l 833 1092 l 1158 1092 l 1158 1047 l 1026 944 m 885 1533 l 579 1293 l 524 1321 l 672 1593 l 858 1567 l 885 1533 z "},"Ň":{"ha":1214,"x_min":69,"x_max":1158,"o":"m 1026 944 l 1026 -1 l 950 -1 l 290 833 l 290 128 l 436 54 l 408 -1 l 83 -1 l 83 42 l 214 144 l 214 958 l 69 1036 l 97 1092 l 307 1092 l 950 278 l 950 964 l 806 1036 l 833 1092 l 1158 1092 l 1158 1047 l 1026 944 m 611 1285 l 296 1533 l 322 1567 l 494 1593 l 657 1407 l 876 1581 l 918 1528 l 611 1285 z "},"Ņ":{"ha":1214,"x_min":69,"x_max":1158,"o":"m 1026 944 l 1026 -1 l 950 -1 l 290 833 l 290 128 l 436 54 l 408 -1 l 83 -1 l 83 42 l 214 144 l 214 958 l 69 1036 l 97 1092 l 307 1092 l 950 278 l 950 964 l 806 1036 l 833 1092 l 1158 1092 l 1158 1047 l 1026 944 m 774 -158 l 597 -422 l 542 -422 l 578 -250 l 469 -171 l 497 -115 l 774 -115 l 774 -158 z "},"Ŋ":{"ha":1214,"x_min":69,"x_max":1158,"o":"m 1026 136 q 1030 34 1026 81 q 1039 -29 1033 -12 l 772 -368 l 719 -326 q 840 -158 801 -224 q 892 -47 879 -93 q 903 58 904 0 l 290 833 l 290 128 l 436 54 l 408 -1 l 83 -1 l 83 42 l 214 144 l 214 958 l 69 1036 l 97 1092 l 307 1092 l 950 278 l 950 964 l 806 1036 l 833 1092 l 1158 1092 l 1158 1049 l 1026 944 l 1026 136 z "},"Ñ":{"ha":1214,"x_min":69,"x_max":1158,"o":"m 1026 944 l 1026 -1 l 950 -1 l 290 833 l 290 128 l 436 54 l 408 -1 l 83 -1 l 83 42 l 214 144 l 214 958 l 69 1036 l 97 1092 l 307 1092 l 950 278 l 950 964 l 806 1036 l 833 1092 l 1158 1092 l 1158 1047 l 1026 944 m 535 1581 q 726 1475 636 1475 q 813 1506 771 1475 l 860 1542 l 901 1489 l 678 1313 q 488 1417 576 1417 q 397 1385 440 1417 l 353 1351 l 311 1404 l 535 1581 z "},"O":{"ha":1290,"x_min":97,"x_max":1193,"o":"m 694 1119 q 955 1049 842 1119 q 1131 853 1068 978 q 1193 569 1193 728 q 1099 269 1193 407 q 864 52 1004 132 q 596 -28 724 -28 q 335 42 449 -28 q 160 238 222 113 q 97 521 97 363 q 192 822 97 683 q 426 1040 286 960 q 694 1119 567 1119 m 614 1003 q 447 949 522 1003 q 328 801 371 896 q 285 588 285 706 q 328 338 285 451 q 459 157 371 225 q 676 89 547 89 q 844 142 768 89 q 963 291 919 196 q 1006 504 1006 386 q 963 755 1006 642 q 832 935 919 868 q 614 1003 744 1003 z "},"Ó":{"ha":1290,"x_min":97,"x_max":1193,"o":"m 694 1119 q 955 1049 842 1119 q 1131 853 1068 978 q 1193 569 1193 728 q 1099 269 1193 407 q 864 52 1004 132 q 596 -28 724 -28 q 335 42 449 -28 q 160 238 222 113 q 97 521 97 363 q 192 822 97 683 q 426 1040 286 960 q 694 1119 567 1119 m 614 1003 q 447 949 522 1003 q 328 801 371 896 q 285 588 285 706 q 328 338 285 451 q 459 157 371 225 q 676 89 547 89 q 844 142 768 89 q 963 291 919 196 q 1006 504 1006 386 q 963 755 1006 642 q 832 935 919 868 q 614 1003 744 1003 m 924 1533 l 618 1293 l 563 1321 l 711 1593 l 897 1567 l 924 1533 z "},"Ô":{"ha":1290,"x_min":97,"x_max":1193,"o":"m 694 1119 q 955 1049 842 1119 q 1131 853 1068 978 q 1193 569 1193 728 q 1099 269 1193 407 q 864 52 1004 132 q 596 -28 724 -28 q 335 42 449 -28 q 160 238 222 113 q 97 521 97 363 q 192 822 97 683 q 426 1040 286 960 q 694 1119 567 1119 m 614 1003 q 447 949 522 1003 q 328 801 371 896 q 285 588 285 706 q 328 338 285 451 q 459 157 371 225 q 676 89 547 89 q 844 142 768 89 q 963 291 919 196 q 1006 504 1006 386 q 963 755 1006 642 q 832 935 919 868 q 614 1003 744 1003 m 931 1299 l 758 1272 l 596 1458 l 376 1285 l 335 1338 l 642 1581 l 957 1332 l 931 1299 z "},"Ö":{"ha":1290,"x_min":97,"x_max":1193,"o":"m 443 1529 q 505 1500 481 1529 q 529 1428 529 1471 q 512 1371 529 1397 q 468 1328 494 1344 q 417 1313 442 1313 q 355 1342 379 1313 q 331 1414 331 1371 q 348 1471 331 1444 q 392 1513 365 1497 q 443 1529 418 1529 m 874 1529 q 935 1500 911 1529 q 960 1428 960 1471 q 942 1371 960 1397 q 899 1328 925 1344 q 847 1313 872 1313 q 785 1342 810 1313 q 761 1414 761 1371 q 778 1471 761 1444 q 822 1513 796 1497 q 874 1529 849 1529 m 694 1119 q 955 1049 842 1119 q 1131 853 1068 978 q 1193 569 1193 728 q 1099 269 1193 407 q 864 52 1004 132 q 596 -28 724 -28 q 335 42 449 -28 q 160 238 222 113 q 97 521 97 363 q 192 822 97 683 q 426 1040 286 960 q 694 1119 567 1119 m 614 1003 q 447 949 522 1003 q 328 801 371 896 q 285 588 285 706 q 328 338 285 451 q 459 157 371 225 q 676 89 547 89 q 844 142 768 89 q 963 291 919 196 q 1006 504 1006 386 q 963 755 1006 642 q 832 935 919 868 q 614 1003 744 1003 z "},"Ò":{"ha":1290,"x_min":97,"x_max":1193,"o":"m 694 1119 q 955 1049 842 1119 q 1131 853 1068 978 q 1193 569 1193 728 q 1099 269 1193 407 q 864 52 1004 132 q 596 -28 724 -28 q 335 42 449 -28 q 160 238 222 113 q 97 521 97 363 q 192 822 97 683 q 426 1040 286 960 q 694 1119 567 1119 m 614 1003 q 447 949 522 1003 q 328 801 371 896 q 285 588 285 706 q 328 338 285 451 q 459 157 371 225 q 676 89 547 89 q 844 142 768 89 q 963 291 919 196 q 1006 504 1006 386 q 963 755 1006 642 q 832 935 919 868 q 614 1003 744 1003 m 675 1293 l 369 1533 l 396 1567 l 582 1593 l 731 1321 l 675 1293 z "},"Ő":{"ha":1290,"x_min":97,"x_max":1193,"o":"m 694 1119 q 955 1049 842 1119 q 1131 853 1068 978 q 1193 569 1193 728 q 1099 269 1193 407 q 864 52 1004 132 q 596 -28 724 -28 q 335 42 449 -28 q 160 238 222 113 q 97 521 97 363 q 192 822 97 683 q 426 1040 286 960 q 694 1119 567 1119 m 614 1003 q 447 949 522 1003 q 328 801 371 896 q 285 588 285 706 q 328 338 285 451 q 459 157 371 225 q 676 89 547 89 q 844 142 768 89 q 963 291 919 196 q 1006 504 1006 386 q 963 755 1006 642 q 832 935 919 868 q 614 1003 744 1003 m 403 1293 l 347 1321 l 450 1593 l 626 1567 l 653 1533 l 403 1293 m 833 1293 l 778 1321 l 881 1593 l 1057 1567 l 1083 1533 l 833 1293 z "},"Ō":{"ha":1290,"x_min":97,"x_max":1193,"o":"m 694 1119 q 955 1049 842 1119 q 1131 853 1068 978 q 1193 569 1193 728 q 1099 269 1193 407 q 864 52 1004 132 q 596 -28 724 -28 q 335 42 449 -28 q 160 238 222 113 q 97 521 97 363 q 192 822 97 683 q 426 1040 286 960 q 694 1119 567 1119 m 614 1003 q 447 949 522 1003 q 328 801 371 896 q 285 588 285 706 q 328 338 285 451 q 459 157 371 225 q 676 89 547 89 q 844 142 768 89 q 963 291 919 196 q 1006 504 1006 386 q 963 755 1006 642 q 832 935 919 868 q 614 1003 744 1003 m 328 1457 l 964 1457 l 964 1400 l 328 1400 l 328 1457 z "},"Ø":{"ha":1290,"x_min":99,"x_max":1193,"o":"m 967 1040 q 1133 846 1074 969 q 1193 568 1193 722 q 1099 268 1193 406 q 864 51 1004 131 q 596 -29 724 -29 q 378 18 476 -29 l 247 -208 l 194 -178 l 325 49 q 158 242 218 119 q 99 518 99 364 q 193 819 99 681 q 428 1037 288 957 q 696 1117 568 1117 q 914 1069 815 1117 l 1046 1299 l 1099 1268 l 967 1040 m 285 588 q 317 369 285 471 q 411 200 349 268 l 835 933 q 614 1001 743 1001 q 447 948 522 1001 q 328 799 371 894 q 285 586 285 704 l 285 588 m 676 88 q 844 141 768 88 q 963 290 919 194 q 1006 503 1006 385 q 974 722 1006 621 q 881 890 943 822 l 457 157 q 676 89 549 89 l 676 88 z "},"Õ":{"ha":1290,"x_min":97,"x_max":1193,"o":"m 694 1119 q 955 1049 842 1119 q 1131 853 1068 978 q 1193 569 1193 728 q 1099 269 1193 407 q 864 52 1004 132 q 596 -28 724 -28 q 335 42 449 -28 q 160 238 222 113 q 97 521 97 363 q 192 822 97 683 q 426 1040 286 960 q 694 1119 567 1119 m 614 1003 q 447 949 522 1003 q 328 801 371 896 q 285 588 285 706 q 328 338 285 451 q 459 157 371 225 q 676 89 547 89 q 844 142 768 89 q 963 291 919 196 q 1006 504 1006 386 q 963 755 1006 642 q 832 935 919 868 q 614 1003 744 1003 m 574 1581 q 765 1475 675 1475 q 851 1506 810 1475 l 899 1542 l 940 1489 l 717 1313 q 526 1417 615 1417 q 436 1385 479 1417 l 392 1351 l 350 1404 l 574 1581 z "},"Œ":{"ha":1722,"x_min":97,"x_max":1583,"o":"m 1508 0 l 949 0 q 692 -8 817 0 q 554 -14 597 -14 q 315 55 419 -14 q 154 246 211 124 q 97 522 97 368 q 185 815 97 681 q 403 1027 272 949 q 653 1106 535 1106 q 782 1099 717 1106 q 947 1092 890 1092 l 1494 1092 l 1569 1117 l 1569 797 l 1528 783 l 1363 1029 l 993 1029 l 993 589 l 1197 589 l 1299 767 l 1342 767 l 1342 344 l 1286 317 l 1199 526 l 993 526 l 993 63 l 1357 63 l 1542 336 l 1583 322 l 1583 -25 l 1508 0 m 285 588 q 326 330 285 446 q 452 144 367 214 q 663 75 538 75 q 819 125 747 75 l 819 968 q 614 1003 735 1003 q 447 949 522 1003 q 328 801 371 896 q 285 588 285 706 z "},"P":{"ha":1082,"x_min":69,"x_max":999,"o":"m 608 532 q 758 583 703 532 q 813 725 813 635 q 748 934 813 853 q 560 1015 683 1015 q 388 961 465 1015 l 388 114 l 603 54 l 575 -1 l 83 -1 l 83 42 l 214 144 l 214 989 l 69 1036 l 97 1092 l 258 1092 q 524 1100 393 1092 q 667 1106 621 1106 q 840 1065 764 1106 q 957 951 915 1024 q 999 792 999 879 q 928 608 999 694 q 747 474 857 522 q 532 431 638 425 l 467 478 l 494 533 l 607 533 l 608 532 z "},"Þ":{"ha":1082,"x_min":69,"x_max":1000,"o":"m 668 843 q 841 807 765 843 q 958 708 917 771 q 1000 571 1000 646 q 929 410 1000 486 q 749 290 858 333 q 533 251 639 246 l 468 299 l 496 354 l 608 354 q 758 394 703 354 q 813 506 813 435 q 748 684 813 614 q 560 754 683 754 q 388 700 465 754 l 388 104 l 533 54 l 506 -1 l 83 -1 l 83 42 l 214 144 l 214 986 l 69 1035 l 97 1090 l 519 1090 l 519 1047 l 388 944 l 388 832 q 521 839 444 833 q 667 844 621 844 l 668 843 z "},"Q":{"ha":1290,"x_min":97,"x_max":1471,"o":"m 1471 -264 q 1172 -367 1254 -367 q 1015 -258 1121 -367 q 774 8 908 -149 q 596 -28 681 -28 q 335 42 449 -28 q 160 238 222 113 q 97 521 97 363 q 192 822 97 683 q 426 1040 286 960 q 694 1119 567 1119 q 955 1049 842 1119 q 1131 853 1068 978 q 1193 569 1193 728 q 1101 274 1193 410 q 869 56 1010 138 q 1115 -122 1000 -43 q 1254 -201 1229 -201 l 1442 -201 l 1471 -264 m 286 588 q 329 338 286 451 q 460 157 372 225 q 678 89 549 89 q 845 142 769 89 q 964 291 921 196 q 1007 504 1007 386 q 964 755 1007 642 q 833 935 921 868 q 615 1003 746 1003 q 448 949 524 1003 q 329 801 372 896 q 286 588 286 706 z "},"R":{"ha":1124,"x_min":71,"x_max":1125,"o":"m 1097 -3 l 839 -3 l 533 490 l 468 538 l 489 579 l 567 579 q 716 627 661 579 q 771 758 771 675 q 710 941 771 868 q 532 1014 649 1014 q 389 968 454 1014 l 389 103 l 535 53 l 507 -3 l 85 -3 l 85 40 l 215 143 l 215 988 l 71 1035 l 99 1090 l 260 1090 q 508 1099 386 1090 q 640 1104 597 1104 q 806 1067 733 1104 q 919 965 879 1029 q 958 825 958 901 q 915 692 958 756 q 802 583 872 629 q 654 513 732 536 l 744 482 l 960 135 l 1125 53 l 1097 -3 z "},"Ŕ":{"ha":1124,"x_min":71,"x_max":1125,"o":"m 1097 -3 l 839 -3 l 533 490 l 468 538 l 489 579 l 567 579 q 716 627 661 579 q 771 758 771 675 q 710 941 771 868 q 532 1014 649 1014 q 389 968 454 1014 l 389 103 l 535 53 l 507 -3 l 85 -3 l 85 40 l 215 143 l 215 988 l 71 1035 l 99 1090 l 260 1090 q 508 1099 386 1090 q 640 1104 597 1104 q 806 1067 733 1104 q 919 965 879 1029 q 958 825 958 901 q 915 692 958 756 q 802 583 872 629 q 654 513 732 536 l 744 482 l 960 135 l 1125 53 l 1097 -3 m 806 1533 l 500 1293 l 444 1321 l 593 1593 l 779 1567 l 806 1533 z "},"Ř":{"ha":1124,"x_min":71,"x_max":1125,"o":"m 1097 -3 l 839 -3 l 533 490 l 468 538 l 489 579 l 567 579 q 716 627 661 579 q 771 758 771 675 q 710 941 771 868 q 532 1014 649 1014 q 389 968 454 1014 l 389 103 l 535 53 l 507 -3 l 85 -3 l 85 40 l 215 143 l 215 988 l 71 1035 l 99 1090 l 260 1090 q 508 1099 386 1090 q 640 1104 597 1104 q 806 1067 733 1104 q 919 965 879 1029 q 958 825 958 901 q 915 692 958 756 q 802 583 872 629 q 654 513 732 536 l 744 482 l 960 135 l 1125 53 l 1097 -3 m 532 1285 l 217 1533 l 243 1567 l 415 1593 l 578 1407 l 797 1581 l 839 1528 l 532 1285 z "},"Ŗ":{"ha":1124,"x_min":71,"x_max":1125,"o":"m 1097 -3 l 839 -3 l 533 490 l 468 538 l 489 579 l 567 579 q 716 627 661 579 q 771 758 771 675 q 710 941 771 868 q 532 1014 649 1014 q 389 968 454 1014 l 389 103 l 535 53 l 507 -3 l 85 -3 l 85 40 l 215 143 l 215 988 l 71 1035 l 99 1090 l 260 1090 q 508 1099 386 1090 q 640 1104 597 1104 q 806 1067 733 1104 q 919 965 879 1029 q 958 825 958 901 q 915 692 958 756 q 802 583 872 629 q 654 513 732 536 l 744 482 l 960 135 l 1125 53 l 1097 -3 m 778 -158 l 601 -422 l 546 -422 l 582 -250 l 474 -171 l 501 -115 l 778 -115 l 778 -158 z "},"S":{"ha":972,"x_min":104,"x_max":875,"o":"m 697 246 q 663 326 697 289 q 576 395 628 364 q 435 472 524 426 q 265 567 329 528 q 156 661 201 607 q 111 781 111 715 q 169 930 111 850 q 312 1065 228 1010 q 467 1119 396 1119 q 667 1099 553 1119 q 833 1054 781 1078 l 833 785 l 781 785 q 631 960 713 897 q 461 1022 550 1022 q 335 973 382 1022 q 289 844 289 924 q 324 759 289 799 q 412 689 360 719 q 557 610 464 658 q 724 519 660 558 q 831 427 788 479 q 875 310 875 375 q 813 160 875 240 q 660 26 750 81 q 497 -29 571 -29 q 283 -8 407 -29 q 104 36 158 13 l 104 306 l 157 306 q 318 131 228 193 q 504 68 408 68 q 606 93 561 68 q 674 159 650 118 q 697 246 697 200 z "},"Ś":{"ha":972,"x_min":104,"x_max":875,"o":"m 697 246 q 663 326 697 289 q 576 395 628 364 q 435 472 524 426 q 265 567 329 528 q 156 661 201 607 q 111 781 111 715 q 169 930 111 850 q 312 1065 228 1010 q 467 1119 396 1119 q 667 1099 553 1119 q 833 1054 781 1078 l 833 785 l 781 785 q 631 960 713 897 q 461 1022 550 1022 q 335 973 382 1022 q 289 844 289 924 q 324 759 289 799 q 412 689 360 719 q 557 610 464 658 q 724 519 660 558 q 831 427 788 479 q 875 310 875 375 q 813 160 875 240 q 660 26 750 81 q 497 -29 571 -29 q 283 -8 407 -29 q 104 36 158 13 l 104 306 l 157 306 q 318 131 228 193 q 504 68 408 68 q 606 93 561 68 q 674 159 650 118 q 697 246 697 200 m 750 1533 l 444 1293 l 389 1321 l 538 1593 l 724 1567 l 750 1533 z "},"Š":{"ha":972,"x_min":104,"x_max":875,"o":"m 697 246 q 663 326 697 289 q 576 395 628 364 q 435 472 524 426 q 265 567 329 528 q 156 661 201 607 q 111 781 111 715 q 169 930 111 850 q 312 1065 228 1010 q 467 1119 396 1119 q 667 1099 553 1119 q 833 1054 781 1078 l 833 785 l 781 785 q 631 960 713 897 q 461 1022 550 1022 q 335 973 382 1022 q 289 844 289 924 q 324 759 289 799 q 412 689 360 719 q 557 610 464 658 q 724 519 660 558 q 831 427 788 479 q 875 310 875 375 q 813 160 875 240 q 660 26 750 81 q 497 -29 571 -29 q 283 -8 407 -29 q 104 36 158 13 l 104 306 l 157 306 q 318 131 228 193 q 504 68 408 68 q 606 93 561 68 q 674 159 650 118 q 697 246 697 200 m 476 1285 l 161 1533 l 188 1567 l 360 1593 l 522 1407 l 742 1581 l 783 1528 l 476 1285 z "},"Ş":{"ha":972,"x_min":104,"x_max":875,"o":"m 874 311 q 826 182 874 251 q 706 58 779 113 q 563 -18 633 3 l 507 -65 q 599 -153 574 -118 q 624 -226 624 -187 q 558 -325 624 -290 q 357 -367 493 -360 l 357 -324 q 486 -201 486 -282 q 466 -147 486 -171 q 396 -92 446 -122 l 471 -28 q 267 -6 379 -25 q 104 36 154 14 l 104 306 l 157 306 q 318 131 228 193 q 504 68 408 68 q 606 93 561 68 q 674 159 650 118 q 697 246 697 200 q 663 326 697 289 q 576 395 628 364 q 435 472 524 426 q 265 567 329 528 q 156 661 201 607 q 111 781 111 715 q 169 930 111 850 q 312 1065 228 1010 q 467 1119 396 1119 q 667 1099 553 1119 q 833 1054 781 1078 l 833 785 l 781 785 q 631 960 713 897 q 461 1022 550 1022 q 335 973 382 1022 q 289 844 289 924 q 324 759 289 799 q 412 689 360 719 q 557 610 464 658 q 724 519 660 558 q 831 427 788 479 q 875 310 875 375 l 874 311 z "},"Ș":{"ha":972,"x_min":104,"x_max":875,"o":"m 697 246 q 663 326 697 289 q 576 395 628 364 q 435 472 524 426 q 265 567 329 528 q 156 661 201 607 q 111 781 111 715 q 169 930 111 850 q 312 1065 228 1010 q 467 1119 396 1119 q 667 1099 553 1119 q 833 1054 781 1078 l 833 785 l 781 785 q 631 960 713 897 q 461 1022 550 1022 q 335 973 382 1022 q 289 844 289 924 q 324 759 289 799 q 412 689 360 719 q 557 610 464 658 q 724 519 660 558 q 831 427 788 479 q 875 310 875 375 q 813 160 875 240 q 660 26 750 81 q 497 -29 571 -29 q 283 -8 407 -29 q 104 36 158 13 l 104 306 l 157 306 q 318 131 228 193 q 504 68 408 68 q 606 93 561 68 q 674 159 650 118 q 697 246 697 200 m 638 -158 l 461 -422 l 406 -422 l 442 -250 l 333 -171 l 361 -115 l 638 -115 l 638 -158 z "},"ẞ":{"ha":1244,"x_min":69,"x_max":1140,"o":"m 754 653 l 1139 653 l 1139 600 l 693 165 l 1021 165 l 1081 279 l 1122 265 l 1122 -26 l 1046 -1 l 486 -1 l 486 51 l 935 486 l 535 486 l 535 539 l 921 925 q 821 957 888 935 q 674 1001 736 986 q 550 1017 613 1017 q 421 967 468 1017 q 374 839 374 918 l 374 0 l 69 0 l 69 43 l 200 146 l 200 781 q 258 930 200 850 q 401 1065 317 1010 q 556 1119 485 1119 q 796 1107 646 1119 q 962 1097 872 1101 q 1140 1092 1051 1092 l 1139 1047 l 754 653 z "},"T":{"ha":1156,"x_min":97,"x_max":1058,"o":"m 1058 769 l 1017 756 l 832 1029 l 663 1029 l 663 106 l 808 56 l 781 0 l 358 0 l 358 43 l 489 146 l 489 1029 l 324 1029 l 139 756 l 97 769 l 97 1117 l 172 1092 l 983 1092 l 1058 1117 l 1058 769 z "},"Ŧ":{"ha":1156,"x_min":97,"x_max":1058,"o":"m 1058 769 l 1017 756 l 832 1029 l 663 1029 l 663 575 l 926 575 l 926 513 l 663 513 l 663 106 l 808 56 l 781 0 l 358 0 l 358 43 l 489 146 l 489 513 l 229 513 l 229 575 l 489 575 l 489 1029 l 324 1029 l 139 756 l 97 769 l 97 1117 l 172 1092 l 983 1092 l 1058 1117 l 1058 769 z "},"Ť":{"ha":1156,"x_min":97,"x_max":1058,"o":"m 1058 769 l 1017 756 l 832 1029 l 663 1029 l 663 106 l 808 56 l 781 0 l 358 0 l 358 43 l 489 146 l 489 1029 l 324 1029 l 139 756 l 97 769 l 97 1117 l 172 1092 l 983 1092 l 1058 1117 l 1058 769 m 582 1285 l 267 1533 l 293 1567 l 465 1593 l 628 1407 l 847 1581 l 889 1528 l 582 1285 z "},"Ţ":{"ha":1156,"x_min":97,"x_max":1058,"o":"m 1058 769 l 1017 756 l 832 1029 l 663 1029 l 663 106 l 808 56 l 781 0 l 679 0 l 599 -65 q 690 -153 665 -118 q 715 -226 715 -187 q 650 -325 715 -290 q 449 -367 585 -360 l 449 -324 q 578 -201 578 -282 q 558 -147 578 -171 q 488 -92 538 -122 l 599 0 l 358 0 l 358 43 l 489 146 l 489 1029 l 324 1029 l 139 756 l 97 769 l 97 1117 l 172 1092 l 983 1092 l 1058 1117 l 1058 769 z "},"Ț":{"ha":1156,"x_min":97,"x_max":1058,"o":"m 1058 769 l 1017 756 l 832 1029 l 663 1029 l 663 106 l 808 56 l 781 0 l 358 0 l 358 43 l 489 146 l 489 1029 l 324 1029 l 139 756 l 97 769 l 97 1117 l 172 1092 l 983 1092 l 1058 1117 l 1058 769 m 731 -158 l 554 -422 l 499 -422 l 535 -250 l 426 -171 l 454 -115 l 731 -115 l 731 -158 z "},"U":{"ha":1247,"x_min":56,"x_max":1206,"o":"m 1074 946 l 1074 431 q 1003 181 1074 285 q 831 24 933 76 q 629 -28 728 -28 q 408 27 506 -28 q 255 178 310 82 q 200 396 200 275 l 200 988 l 56 1036 l 83 1092 l 506 1092 l 506 1049 l 374 946 l 374 463 q 460 188 374 286 q 724 89 547 89 q 852 131 789 89 q 956 256 915 174 q 997 449 997 338 l 997 964 l 853 1036 l 881 1092 l 1206 1092 l 1206 1049 l 1074 946 z "},"Ú":{"ha":1247,"x_min":56,"x_max":1206,"o":"m 1074 946 l 1074 431 q 1003 181 1074 285 q 831 24 933 76 q 629 -28 728 -28 q 408 27 506 -28 q 255 178 310 82 q 200 396 200 275 l 200 988 l 56 1036 l 83 1092 l 506 1092 l 506 1049 l 374 946 l 374 463 q 460 188 374 286 q 724 89 547 89 q 852 131 789 89 q 956 256 915 174 q 997 449 997 338 l 997 964 l 853 1036 l 881 1092 l 1206 1092 l 1206 1049 l 1074 946 m 919 1533 l 614 1293 l 558 1321 l 707 1593 l 893 1567 l 919 1533 z "},"Û":{"ha":1247,"x_min":56,"x_max":1206,"o":"m 1074 946 l 1074 431 q 1003 181 1074 285 q 831 24 933 76 q 629 -28 728 -28 q 408 27 506 -28 q 255 178 310 82 q 200 396 200 275 l 200 988 l 56 1036 l 83 1092 l 506 1092 l 506 1049 l 374 946 l 374 463 q 460 188 374 286 q 724 89 547 89 q 852 131 789 89 q 956 256 915 174 q 997 449 997 338 l 997 964 l 853 1036 l 881 1092 l 1206 1092 l 1206 1049 l 1074 946 m 926 1299 l 754 1272 l 592 1458 l 372 1285 l 331 1338 l 638 1581 l 953 1332 l 926 1299 z "},"Ü":{"ha":1247,"x_min":56,"x_max":1206,"o":"m 413 1313 q 351 1342 375 1313 q 326 1414 326 1371 q 344 1471 326 1444 q 388 1513 361 1497 q 439 1529 414 1529 q 501 1500 476 1529 q 525 1428 525 1471 q 508 1371 525 1397 q 464 1328 490 1344 q 413 1313 438 1313 m 843 1313 q 781 1342 806 1313 q 757 1414 757 1371 q 774 1471 757 1444 q 818 1513 792 1497 q 869 1529 844 1529 q 931 1500 907 1529 q 956 1428 956 1471 q 938 1371 956 1397 q 894 1328 921 1344 q 843 1313 868 1313 m 1074 946 l 1074 431 q 1003 181 1074 285 q 831 24 933 76 q 629 -28 728 -28 q 408 27 506 -28 q 255 178 310 82 q 200 396 200 275 l 200 988 l 56 1036 l 83 1092 l 506 1092 l 506 1049 l 374 946 l 374 463 q 460 188 374 286 q 724 89 547 89 q 852 131 789 89 q 956 256 915 174 q 997 449 997 338 l 997 964 l 853 1036 l 881 1092 l 1206 1092 l 1206 1049 l 1074 946 z "},"Ù":{"ha":1247,"x_min":56,"x_max":1206,"o":"m 1074 946 l 1074 431 q 1003 181 1074 285 q 831 24 933 76 q 629 -28 728 -28 q 408 27 506 -28 q 255 178 310 82 q 200 396 200 275 l 200 988 l 56 1036 l 83 1092 l 506 1092 l 506 1049 l 374 946 l 374 463 q 460 188 374 286 q 724 89 547 89 q 852 131 789 89 q 956 256 915 174 q 997 449 997 338 l 997 964 l 853 1036 l 881 1092 l 1206 1092 l 1206 1049 l 1074 946 m 671 1293 l 365 1533 l 392 1567 l 578 1593 l 726 1321 l 671 1293 z "},"Ű":{"ha":1247,"x_min":56,"x_max":1206,"o":"m 1074 946 l 1074 431 q 1003 181 1074 285 q 831 24 933 76 q 629 -28 728 -28 q 408 27 506 -28 q 255 178 310 82 q 200 396 200 275 l 200 988 l 56 1036 l 83 1092 l 506 1092 l 506 1049 l 374 946 l 374 463 q 460 188 374 286 q 724 89 547 89 q 852 131 789 89 q 956 256 915 174 q 997 449 997 338 l 997 964 l 853 1036 l 881 1092 l 1206 1092 l 1206 1049 l 1074 946 m 399 1293 l 343 1321 l 446 1593 l 622 1567 l 649 1533 l 399 1293 m 829 1293 l 774 1321 l 876 1593 l 1053 1567 l 1079 1533 l 829 1293 z "},"Ū":{"ha":1247,"x_min":56,"x_max":1206,"o":"m 1074 946 l 1074 431 q 1003 181 1074 285 q 831 24 933 76 q 629 -28 728 -28 q 408 27 506 -28 q 255 178 310 82 q 200 396 200 275 l 200 988 l 56 1036 l 83 1092 l 506 1092 l 506 1049 l 374 946 l 374 463 q 460 188 374 286 q 724 89 547 89 q 852 131 789 89 q 956 256 915 174 q 997 449 997 338 l 997 964 l 853 1036 l 881 1092 l 1206 1092 l 1206 1049 l 1074 946 m 324 1457 l 960 1457 l 960 1400 l 324 1400 l 324 1457 z "},"Ų":{"ha":1247,"x_min":56,"x_max":1206,"o":"m 1074 946 l 1074 431 q 1036 241 1074 325 q 935 97 999 157 q 797 -67 828 -17 q 765 -149 765 -117 q 783 -198 765 -181 q 843 -222 801 -215 l 843 -275 l 728 -367 q 638 -312 669 -347 q 606 -232 606 -278 q 617 -156 606 -185 l 763 -4 q 629 -28 692 -28 q 408 27 506 -28 q 255 178 310 82 q 200 396 200 275 l 200 988 l 56 1036 l 83 1092 l 506 1092 l 506 1049 l 374 946 l 374 463 q 460 188 374 286 q 724 89 547 89 q 852 131 789 89 q 956 256 915 174 q 997 449 997 338 l 997 964 l 853 1036 l 881 1092 l 1206 1092 l 1206 1049 l 1074 946 z "},"Ů":{"ha":1247,"x_min":56,"x_max":1206,"o":"m 1074 946 l 1074 431 q 1003 181 1074 285 q 831 24 933 76 q 629 -28 728 -28 q 408 27 506 -28 q 255 178 310 82 q 200 396 200 275 l 200 988 l 56 1036 l 83 1092 l 506 1092 l 506 1049 l 374 946 l 374 463 q 460 188 374 286 q 724 89 547 89 q 852 131 789 89 q 956 256 915 174 q 997 449 997 338 l 997 964 l 853 1036 l 881 1092 l 1206 1092 l 1206 1049 l 1074 946 m 690 1581 q 799 1541 756 1581 q 843 1444 843 1501 q 804 1353 843 1396 q 707 1285 765 1311 q 592 1260 649 1260 q 483 1299 528 1260 q 439 1396 439 1339 q 478 1487 439 1444 q 575 1555 517 1529 q 690 1581 633 1581 m 610 1519 q 555 1505 574 1519 q 536 1463 536 1490 q 572 1361 536 1401 q 672 1321 607 1321 q 727 1336 708 1321 q 746 1379 746 1351 q 710 1480 746 1440 q 610 1519 675 1519 z "},"V":{"ha":1213,"x_min":0,"x_max":1213,"o":"m 1082 946 l 689 44 l 544 -26 l 139 951 l 0 1036 l 28 1092 l 450 1092 l 450 1049 l 319 947 l 654 140 l 1007 953 l 763 1036 l 790 1092 l 1213 1092 l 1213 1049 l 1082 946 z "},"W":{"ha":1660,"x_min":0,"x_max":1660,"o":"m 1539 954 l 1206 44 l 1061 -26 l 840 628 l 633 44 l 489 -26 l 132 957 l 0 1036 l 28 1092 l 408 1092 l 408 1049 l 307 972 l 596 158 l 803 736 l 728 958 l 600 1036 l 628 1092 l 1036 1092 l 1036 1049 l 913 953 l 1171 161 l 1457 953 l 1210 1036 l 1238 1092 l 1660 1092 l 1660 1049 l 1539 954 z "},"Ẃ":{"ha":1660,"x_min":0,"x_max":1660,"o":"m 1539 954 l 1206 44 l 1061 -26 l 840 628 l 633 44 l 489 -26 l 132 957 l 0 1036 l 28 1092 l 408 1092 l 408 1049 l 307 972 l 596 158 l 803 736 l 728 958 l 600 1036 l 628 1092 l 1036 1092 l 1036 1049 l 913 953 l 1171 161 l 1457 953 l 1210 1036 l 1238 1092 l 1660 1092 l 1660 1049 l 1539 954 m 1146 1533 l 840 1293 l 785 1321 l 933 1593 l 1119 1567 l 1146 1533 z "},"Ŵ":{"ha":1660,"x_min":0,"x_max":1660,"o":"m 1539 954 l 1206 44 l 1061 -26 l 840 628 l 633 44 l 489 -26 l 132 957 l 0 1036 l 28 1092 l 408 1092 l 408 1049 l 307 972 l 596 158 l 803 736 l 728 958 l 600 1036 l 628 1092 l 1036 1092 l 1036 1049 l 913 953 l 1171 161 l 1457 953 l 1210 1036 l 1238 1092 l 1660 1092 l 1660 1049 l 1539 954 m 1153 1299 l 981 1272 l 818 1458 l 599 1285 l 557 1338 l 864 1581 l 1179 1332 l 1153 1299 z "},"Ẅ":{"ha":1660,"x_min":0,"x_max":1660,"o":"m 639 1313 q 577 1342 601 1313 q 553 1414 553 1371 q 570 1471 553 1444 q 614 1513 588 1497 q 665 1529 640 1529 q 727 1500 703 1529 q 751 1428 751 1471 q 734 1371 751 1397 q 690 1328 717 1344 q 639 1313 664 1313 m 1069 1313 q 1008 1342 1032 1313 q 983 1414 983 1371 q 1001 1471 983 1444 q 1044 1513 1018 1497 q 1096 1529 1071 1529 q 1158 1500 1133 1529 q 1182 1428 1182 1471 q 1165 1371 1182 1397 q 1121 1328 1147 1344 q 1069 1313 1094 1313 m 1539 954 l 1206 44 l 1061 -26 l 840 628 l 633 44 l 489 -26 l 132 957 l 0 1036 l 28 1092 l 408 1092 l 408 1049 l 307 972 l 596 158 l 803 736 l 728 958 l 600 1036 l 628 1092 l 1036 1092 l 1036 1049 l 913 953 l 1171 161 l 1457 953 l 1210 1036 l 1238 1092 l 1660 1092 l 1660 1049 l 1539 954 z "},"Ẁ":{"ha":1660,"x_min":0,"x_max":1660,"o":"m 1539 954 l 1206 44 l 1061 -26 l 840 628 l 633 44 l 489 -26 l 132 957 l 0 1036 l 28 1092 l 408 1092 l 408 1049 l 307 972 l 596 158 l 803 736 l 728 958 l 600 1036 l 628 1092 l 1036 1092 l 1036 1049 l 913 953 l 1171 161 l 1457 953 l 1210 1036 l 1238 1092 l 1660 1092 l 1660 1049 l 1539 954 m 897 1293 l 592 1533 l 618 1567 l 804 1593 l 953 1321 l 897 1293 z "},"X":{"ha":1213,"x_min":28,"x_max":1169,"o":"m 1142 0 l 719 0 l 719 43 l 829 128 l 565 461 l 276 135 l 478 56 l 450 0 l 28 0 l 28 43 l 182 138 l 522 517 l 182 951 l 42 1036 l 69 1092 l 492 1092 l 492 1049 l 382 964 l 644 633 l 910 956 l 707 1036 l 735 1092 l 1157 1092 l 1157 1049 l 1014 961 l 690 576 l 1031 140 l 1169 56 l 1142 0 z "},"Y":{"ha":1115,"x_min":0,"x_max":1115,"o":"m 640 106 l 786 56 l 758 0 l 336 0 l 336 43 l 467 146 l 467 393 l 110 969 l 0 1036 l 28 1092 l 450 1092 l 450 1049 l 321 949 l 599 497 l 888 949 l 665 1036 l 693 1092 l 1115 1092 l 1115 1049 l 1001 979 l 640 414 l 640 106 z "},"Ý":{"ha":1115,"x_min":0,"x_max":1115,"o":"m 640 106 l 786 56 l 758 0 l 336 0 l 336 43 l 467 146 l 467 393 l 110 969 l 0 1036 l 28 1092 l 450 1092 l 450 1049 l 321 949 l 599 497 l 888 949 l 665 1036 l 693 1092 l 1115 1092 l 1115 1049 l 1001 979 l 640 414 l 640 106 m 836 1533 l 531 1293 l 475 1321 l 624 1593 l 810 1567 l 836 1533 z "},"Ŷ":{"ha":1115,"x_min":0,"x_max":1115,"o":"m 640 106 l 786 56 l 758 0 l 336 0 l 336 43 l 467 146 l 467 393 l 110 969 l 0 1036 l 28 1092 l 450 1092 l 450 1049 l 321 949 l 599 497 l 888 949 l 665 1036 l 693 1092 l 1115 1092 l 1115 1049 l 1001 979 l 640 414 l 640 106 m 843 1299 l 671 1272 l 508 1458 l 289 1285 l 247 1338 l 554 1581 l 869 1332 l 843 1299 z "},"Ÿ":{"ha":1115,"x_min":0,"x_max":1115,"o":"m 329 1313 q 267 1342 292 1313 q 243 1414 243 1371 q 260 1471 243 1444 q 304 1513 278 1497 q 356 1529 331 1529 q 417 1500 393 1529 q 442 1428 442 1471 q 424 1371 442 1397 q 381 1328 407 1344 q 329 1313 354 1313 m 760 1313 q 698 1342 722 1313 q 674 1414 674 1371 q 691 1471 674 1444 q 735 1513 708 1497 q 786 1529 761 1529 q 848 1500 824 1529 q 872 1428 872 1471 q 855 1371 872 1397 q 811 1328 838 1344 q 760 1313 785 1313 m 640 106 l 786 56 l 758 0 l 336 0 l 336 43 l 467 146 l 467 393 l 110 969 l 0 1036 l 28 1092 l 450 1092 l 450 1049 l 321 949 l 599 497 l 888 949 l 665 1036 l 693 1092 l 1115 1092 l 1115 1049 l 1001 979 l 640 414 l 640 106 z "},"Ỳ":{"ha":1115,"x_min":0,"x_max":1115,"o":"m 640 106 l 786 56 l 758 0 l 336 0 l 336 43 l 467 146 l 467 393 l 110 969 l 0 1036 l 28 1092 l 450 1092 l 450 1049 l 321 949 l 599 497 l 888 949 l 665 1036 l 693 1092 l 1115 1092 l 1115 1049 l 1001 979 l 640 414 l 640 106 m 588 1293 l 282 1533 l 308 1567 l 494 1593 l 643 1321 l 588 1293 z "},"Z":{"ha":1097,"x_min":96,"x_max":994,"o":"m 744 63 l 939 350 l 981 336 l 981 -25 l 906 0 l 96 0 l 96 63 l 792 1029 l 356 1029 l 181 769 l 139 783 l 139 1117 l 214 1092 l 994 1092 l 994 1029 l 299 63 l 744 63 z "},"Ź":{"ha":1097,"x_min":96,"x_max":994,"o":"m 744 63 l 939 350 l 981 336 l 981 -25 l 906 0 l 96 0 l 96 63 l 792 1029 l 356 1029 l 181 769 l 139 783 l 139 1117 l 214 1092 l 994 1092 l 994 1029 l 299 63 l 744 63 m 826 1533 l 521 1293 l 465 1321 l 614 1593 l 800 1567 l 826 1533 z "},"Ž":{"ha":1097,"x_min":96,"x_max":994,"o":"m 744 63 l 939 350 l 981 336 l 981 -25 l 906 0 l 96 0 l 96 63 l 792 1029 l 356 1029 l 181 769 l 139 783 l 139 1117 l 214 1092 l 994 1092 l 994 1029 l 299 63 l 744 63 m 553 1285 l 238 1533 l 264 1567 l 436 1593 l 599 1407 l 818 1581 l 860 1528 l 553 1285 z "},"Ż":{"ha":1097,"x_min":96,"x_max":994,"o":"m 744 63 l 939 350 l 981 336 l 981 -25 l 906 0 l 96 0 l 96 63 l 792 1029 l 356 1029 l 181 769 l 139 783 l 139 1117 l 214 1092 l 994 1092 l 994 1029 l 299 63 l 744 63 m 563 1535 q 631 1504 604 1535 q 658 1428 658 1474 q 639 1367 658 1396 q 590 1322 619 1339 q 533 1306 561 1306 q 465 1336 492 1306 q 438 1413 438 1367 q 457 1473 438 1444 q 506 1518 476 1501 q 563 1535 535 1535 z "},"a":{"ha":863,"x_min":83,"x_max":828,"o":"m 800 0 l 536 0 l 536 121 l 379 -3 q 310 -14 351 -14 q 137 46 190 -14 q 83 189 83 106 q 119 288 83 239 q 222 379 156 336 l 536 379 l 536 468 q 488 596 536 558 q 357 633 440 633 q 146 529 271 633 l 104 582 l 304 740 q 438 751 360 751 q 633 690 564 751 q 703 510 703 628 l 703 104 l 828 56 l 800 0 m 354 104 q 536 182 439 104 l 536 322 l 290 322 q 265 278 272 300 q 257 229 257 256 q 283 141 257 178 q 354 104 310 104 z "},"á":{"ha":863,"x_min":83,"x_max":828,"o":"m 800 0 l 536 0 l 536 121 l 379 -3 q 310 -14 351 -14 q 137 46 190 -14 q 83 189 83 106 q 119 288 83 239 q 222 379 156 336 l 536 379 l 536 468 q 488 596 536 558 q 357 633 440 633 q 146 529 271 633 l 104 582 l 304 740 q 438 751 360 751 q 633 690 564 751 q 703 510 703 628 l 703 104 l 828 56 l 800 0 m 354 104 q 536 182 439 104 l 536 322 l 290 322 q 265 278 272 300 q 257 229 257 256 q 283 141 257 178 q 354 104 310 104 m 693 1179 l 388 939 l 332 967 l 481 1239 l 667 1213 l 693 1179 z "},"ă":{"ha":863,"x_min":83,"x_max":828,"o":"m 800 0 l 536 0 l 536 121 l 379 -3 q 310 -14 351 -14 q 137 46 190 -14 q 83 189 83 106 q 119 288 83 239 q 222 379 156 336 l 536 379 l 536 468 q 488 596 536 558 q 357 633 440 633 q 146 529 271 633 l 104 582 l 304 740 q 438 751 360 751 q 633 690 564 751 q 703 510 703 628 l 703 104 l 828 56 l 800 0 m 354 104 q 536 182 439 104 l 536 322 l 290 322 q 265 278 272 300 q 257 229 257 256 q 283 141 257 178 q 354 104 310 104 m 701 1213 q 656 1104 701 1161 q 541 1009 610 1047 q 407 971 472 971 q 251 1003 326 971 q 139 1106 175 1035 l 274 1213 q 353 1089 311 1124 q 442 1054 394 1054 q 516 1078 488 1054 q 544 1135 544 1101 l 701 1213 z "},"â":{"ha":863,"x_min":83,"x_max":828,"o":"m 800 0 l 536 0 l 536 121 l 379 -3 q 310 -14 351 -14 q 137 46 190 -14 q 83 189 83 106 q 119 288 83 239 q 222 379 156 336 l 536 379 l 536 468 q 488 596 536 558 q 357 633 440 633 q 146 529 271 633 l 104 582 l 304 740 q 438 751 360 751 q 633 690 564 751 q 703 510 703 628 l 703 104 l 828 56 l 800 0 m 354 104 q 536 182 439 104 l 536 322 l 290 322 q 265 278 272 300 q 257 229 257 256 q 283 141 257 178 q 354 104 310 104 m 700 944 l 528 918 l 365 1104 l 146 931 l 104 983 l 411 1226 l 726 978 l 700 944 z "},"ä":{"ha":863,"x_min":83,"x_max":828,"o":"m 214 958 q 152 988 176 958 q 128 1060 128 1017 q 145 1117 128 1090 q 189 1159 163 1143 q 240 1175 215 1175 q 302 1146 278 1175 q 326 1074 326 1117 q 309 1017 326 1043 q 265 974 292 990 q 214 958 239 958 m 589 958 q 527 988 551 958 q 503 1060 503 1017 q 520 1117 503 1090 q 564 1159 538 1143 q 615 1175 590 1175 q 677 1146 653 1175 q 701 1074 701 1117 q 684 1017 701 1043 q 640 974 667 990 q 589 958 614 958 m 800 0 l 536 0 l 536 121 l 379 -3 q 310 -14 351 -14 q 137 46 190 -14 q 83 189 83 106 q 119 288 83 239 q 222 379 156 336 l 536 379 l 536 468 q 488 596 536 558 q 357 633 440 633 q 146 529 271 633 l 104 582 l 304 740 q 438 751 360 751 q 633 690 564 751 q 703 510 703 628 l 703 104 l 828 56 l 800 0 m 354 104 q 536 182 439 104 l 536 322 l 290 322 q 265 278 272 300 q 257 229 257 256 q 283 141 257 178 q 354 104 310 104 z "},"à":{"ha":863,"x_min":83,"x_max":828,"o":"m 800 0 l 536 0 l 536 121 l 379 -3 q 310 -14 351 -14 q 137 46 190 -14 q 83 189 83 106 q 119 288 83 239 q 222 379 156 336 l 536 379 l 536 468 q 488 596 536 558 q 357 633 440 633 q 146 529 271 633 l 104 582 l 304 740 q 438 751 360 751 q 633 690 564 751 q 703 510 703 628 l 703 104 l 828 56 l 800 0 m 354 104 q 536 182 439 104 l 536 322 l 290 322 q 265 278 272 300 q 257 229 257 256 q 283 141 257 178 q 354 104 310 104 m 444 939 l 139 1179 l 165 1213 l 351 1239 l 500 967 l 444 939 z "},"ā":{"ha":863,"x_min":83,"x_max":828,"o":"m 800 0 l 536 0 l 536 121 l 379 -3 q 310 -14 351 -14 q 137 46 190 -14 q 83 189 83 106 q 119 288 83 239 q 222 379 156 336 l 536 379 l 536 468 q 488 596 536 558 q 357 633 440 633 q 146 529 271 633 l 104 582 l 304 740 q 438 751 360 751 q 633 690 564 751 q 703 510 703 628 l 703 104 l 828 56 l 800 0 m 354 104 q 536 182 439 104 l 536 322 l 290 322 q 265 278 272 300 q 257 229 257 256 q 283 141 257 178 q 354 104 310 104 m 125 1103 l 706 1103 l 706 1040 l 125 1040 l 125 1103 z "},"ą":{"ha":863,"x_min":83,"x_max":828,"o":"m 800 0 q 710 -94 738 -57 q 683 -162 683 -132 q 699 -201 683 -187 q 747 -222 714 -215 l 747 -275 l 632 -367 q 510 -211 510 -321 q 521 -156 510 -181 l 717 0 l 536 0 l 536 121 l 379 -3 q 310 -14 351 -14 q 137 46 190 -14 q 83 189 83 106 q 119 288 83 239 q 222 379 156 336 l 536 379 l 536 468 q 488 596 536 558 q 357 633 440 633 q 146 529 271 633 l 104 582 l 304 740 q 438 751 360 751 q 633 690 564 751 q 703 510 703 628 l 703 104 l 828 56 l 800 0 m 354 104 q 536 182 439 104 l 536 322 l 290 322 q 265 278 272 300 q 257 229 257 256 q 283 141 257 178 q 354 104 310 104 z "},"å":{"ha":863,"x_min":83,"x_max":828,"o":"m 800 0 l 536 0 l 536 121 l 379 -3 q 310 -14 351 -14 q 137 46 190 -14 q 83 189 83 106 q 119 288 83 239 q 222 379 156 336 l 536 379 l 536 468 q 488 596 536 558 q 357 633 440 633 q 146 529 271 633 l 104 582 l 304 740 q 438 751 360 751 q 633 690 564 751 q 703 510 703 628 l 703 104 l 828 56 l 800 0 m 354 104 q 536 182 439 104 l 536 322 l 290 322 q 265 278 272 300 q 257 229 257 256 q 283 141 257 178 q 354 104 310 104 m 464 1226 q 573 1187 529 1226 q 617 1090 617 1147 q 578 999 617 1042 q 481 931 539 957 q 365 906 422 906 q 257 945 301 906 q 213 1042 213 985 q 251 1133 213 1090 q 349 1201 290 1175 q 464 1226 407 1226 m 383 1165 q 328 1151 347 1165 q 310 1108 310 1136 q 345 1007 310 1047 q 446 967 381 967 q 501 982 482 967 q 519 1025 519 997 q 484 1126 519 1086 q 383 1165 449 1165 z "},"ã":{"ha":863,"x_min":83,"x_max":828,"o":"m 800 0 l 536 0 l 536 121 l 379 -3 q 310 -14 351 -14 q 137 46 190 -14 q 83 189 83 106 q 119 288 83 239 q 222 379 156 336 l 536 379 l 536 468 q 488 596 536 558 q 357 633 440 633 q 146 529 271 633 l 104 582 l 304 740 q 438 751 360 751 q 633 690 564 751 q 703 510 703 628 l 703 104 l 828 56 l 800 0 m 354 104 q 536 182 439 104 l 536 322 l 290 322 q 265 278 272 300 q 257 229 257 256 q 283 141 257 178 q 354 104 310 104 m 343 1226 q 535 1121 444 1121 q 621 1151 579 1121 l 668 1188 l 710 1135 l 486 958 q 296 1063 385 1063 q 206 1031 249 1063 l 161 997 l 119 1050 l 343 1226 z "},"æ":{"ha":1272,"x_min":83,"x_max":1175,"o":"m 899 104 q 1129 225 981 104 l 1171 172 l 951 -3 q 818 -14 896 -14 q 681 24 743 -14 q 578 129 618 63 l 421 -3 q 310 -14 376 -14 q 137 46 190 -14 q 83 189 83 106 q 119 287 83 239 q 222 378 154 335 l 522 378 l 522 468 q 357 633 522 633 q 146 529 271 633 l 104 582 l 304 740 q 438 751 360 751 q 576 722 519 751 q 663 638 633 693 q 791 721 721 690 q 925 751 861 751 q 1110 647 1044 751 q 1175 372 1175 543 l 703 372 q 763 180 711 256 q 900 104 814 104 l 899 104 m 843 635 q 700 429 707 635 l 983 429 q 962 545 972 507 q 924 609 951 583 q 843 635 897 635 m 368 103 q 547 190 450 103 q 519 322 524 253 l 289 322 q 263 278 271 300 q 256 229 256 256 q 286 141 256 178 q 367 104 317 104 l 368 103 z "},"b":{"ha":979,"x_min":35,"x_max":882,"o":"m 618 751 q 753 703 693 751 q 848 574 814 656 q 882 393 882 492 q 817 192 882 286 q 653 42 751 99 q 464 -14 556 -14 q 358 11 407 -14 q 271 82 308 36 l 211 0 l 158 0 l 158 994 l 35 1081 l 35 1124 l 272 1213 l 325 1213 l 325 593 l 511 740 q 618 751 556 751 m 544 103 q 701 326 701 103 q 661 544 701 456 q 547 633 621 633 q 444 613 494 633 q 325 531 394 592 l 325 282 q 382 154 325 206 q 544 103 439 103 z "},"c":{"ha":851,"x_min":97,"x_max":764,"o":"m 488 751 q 620 735 544 751 q 729 700 696 719 l 729 486 l 676 486 q 552 595 622 556 q 407 635 482 635 q 310 578 343 635 q 278 411 278 521 q 335 192 278 281 q 497 104 392 104 q 722 218 576 104 l 764 165 l 550 -3 q 417 -14 494 -14 q 252 34 325 -14 q 138 164 179 82 q 97 344 97 246 q 158 546 97 451 q 310 696 218 640 q 488 751 401 751 z "},"ć":{"ha":851,"x_min":97,"x_max":764,"o":"m 488 751 q 620 735 544 751 q 729 700 696 719 l 729 486 l 676 486 q 552 595 622 556 q 407 635 482 635 q 310 578 343 635 q 278 411 278 521 q 335 192 278 281 q 497 104 392 104 q 722 218 576 104 l 764 165 l 550 -3 q 417 -14 494 -14 q 252 34 325 -14 q 138 164 179 82 q 97 344 97 246 q 158 546 97 451 q 310 696 218 640 q 488 751 401 751 m 718 1179 l 413 939 l 357 967 l 506 1239 l 692 1213 l 718 1179 z "},"č":{"ha":851,"x_min":97,"x_max":764,"o":"m 488 751 q 620 735 544 751 q 729 700 696 719 l 729 486 l 676 486 q 552 595 622 556 q 407 635 482 635 q 310 578 343 635 q 278 411 278 521 q 335 192 278 281 q 497 104 392 104 q 722 218 576 104 l 764 165 l 550 -3 q 417 -14 494 -14 q 252 34 325 -14 q 138 164 179 82 q 97 344 97 246 q 158 546 97 451 q 310 696 218 640 q 488 751 401 751 m 444 931 l 129 1179 l 156 1213 l 328 1239 l 490 1053 l 710 1226 l 751 1174 l 444 931 z "},"ç":{"ha":851,"x_min":97,"x_max":764,"o":"m 474 -67 q 565 -154 540 -119 q 590 -228 590 -189 q 525 -326 590 -292 q 324 -368 460 -361 l 324 -325 q 453 -203 453 -283 q 433 -148 453 -172 q 363 -93 413 -124 l 458 -14 l 417 -14 q 252 34 325 -14 q 138 164 179 82 q 97 344 97 246 q 158 546 97 451 q 310 696 218 640 q 488 751 401 751 q 620 735 544 751 q 729 700 696 719 l 729 486 l 676 486 q 552 595 622 556 q 407 635 482 635 q 310 578 343 635 q 278 411 278 521 q 335 192 278 281 q 497 104 392 104 q 722 218 576 104 l 764 165 l 574 15 l 474 -65 l 474 -67 z "},"ċ":{"ha":851,"x_min":97,"x_max":764,"o":"m 488 751 q 620 735 544 751 q 729 700 696 719 l 729 486 l 676 486 q 552 595 622 556 q 407 635 482 635 q 310 578 343 635 q 278 411 278 521 q 335 192 278 281 q 497 104 392 104 q 722 218 576 104 l 764 165 l 550 -3 q 417 -14 494 -14 q 252 34 325 -14 q 138 164 179 82 q 97 344 97 246 q 158 546 97 451 q 310 696 218 640 q 488 751 401 751 m 454 1181 q 523 1150 496 1181 q 550 1074 550 1119 q 531 1013 550 1042 q 482 968 511 985 q 425 951 453 951 q 356 982 383 951 q 329 1058 329 1013 q 349 1119 329 1090 q 397 1164 368 1147 q 454 1181 426 1181 z "},"d":{"ha":979,"x_min":96,"x_max":943,"o":"m 915 0 l 651 0 l 651 100 l 522 -3 q 415 -14 478 -14 q 251 34 324 -14 q 137 164 178 82 q 96 344 96 246 q 161 545 96 451 q 324 695 226 639 q 514 751 422 751 q 653 708 590 751 l 653 994 l 529 1081 l 529 1124 l 767 1213 l 819 1213 l 819 104 l 943 56 l 915 0 m 486 104 q 566 116 528 104 q 651 161 604 128 l 651 478 q 587 591 643 547 q 433 635 531 635 q 276 411 276 635 q 331 192 276 281 q 486 104 385 104 z "},"ð":{"ha":932,"x_min":86,"x_max":833,"o":"m 558 1038 q 758 770 683 921 q 833 474 833 619 q 775 233 833 346 q 621 51 717 119 q 415 -17 525 -17 q 252 31 325 -17 q 138 160 179 78 q 96 342 96 242 q 157 535 96 440 q 315 689 218 629 q 514 749 413 749 q 568 746 529 749 q 408 947 506 858 l 165 800 l 136 850 l 361 986 q 86 1124 238 1082 l 86 1167 l 247 1226 q 514 1081 386 1185 l 756 1226 l 786 1176 l 560 1040 l 558 1038 m 494 100 q 619 172 579 100 q 658 394 658 243 q 618 632 658 518 l 433 632 q 276 408 276 632 q 303 247 276 317 q 381 138 331 176 q 496 100 431 100 l 494 100 z "},"ď":{"ha":979,"x_min":96,"x_max":1150,"o":"m 915 0 l 651 0 l 651 100 l 522 -3 q 415 -14 478 -14 q 251 34 324 -14 q 137 164 178 82 q 96 344 96 246 q 161 545 96 451 q 324 695 226 639 q 514 751 422 751 q 653 708 590 751 l 653 994 l 529 1081 l 529 1124 l 767 1213 l 819 1213 l 819 104 l 943 56 l 915 0 m 486 104 q 566 116 528 104 q 651 161 604 128 l 651 478 q 587 591 643 547 q 433 635 531 635 q 276 411 276 635 q 331 192 276 281 q 486 104 385 104 m 1150 1004 l 983 793 l 931 835 q 981 938 964 885 q 999 1036 999 990 q 997 1060 999 1053 l 942 1108 l 942 1151 l 1097 1213 l 1150 1213 l 1150 1004 z "},"đ":{"ha":979,"x_min":96,"x_max":979,"o":"m 818 103 l 943 54 l 915 -1 l 651 -1 l 651 99 l 522 -4 q 415 -15 478 -15 q 251 33 324 -15 q 137 163 178 81 q 96 343 96 244 q 161 544 96 450 q 324 694 226 638 q 514 750 422 750 q 653 707 590 750 l 653 938 l 399 938 l 399 994 l 653 994 l 653 1196 l 767 1239 l 819 1239 l 819 994 l 979 994 l 979 938 l 818 936 l 818 103 m 486 103 q 566 115 528 103 q 651 160 604 126 l 651 476 q 587 590 643 546 q 433 633 531 633 q 276 410 276 633 q 331 191 276 279 q 486 103 385 103 z "},"e":{"ha":893,"x_min":97,"x_max":796,"o":"m 550 -3 q 417 -14 494 -14 q 252 34 325 -14 q 138 164 179 82 q 97 344 97 246 q 163 545 97 451 q 326 695 228 639 q 515 751 424 751 q 720 647 647 751 q 793 372 793 543 l 279 372 q 344 179 288 254 q 497 104 400 104 q 754 244 588 104 l 796 192 l 550 -3 m 435 635 q 278 429 285 635 l 603 429 q 577 544 590 504 q 531 609 564 583 q 435 635 499 635 z "},"é":{"ha":893,"x_min":97,"x_max":796,"o":"m 550 -3 q 417 -14 494 -14 q 252 34 325 -14 q 138 164 179 82 q 97 344 97 246 q 163 545 97 451 q 326 695 228 639 q 515 751 424 751 q 720 647 647 751 q 793 372 793 543 l 279 372 q 344 179 288 254 q 497 104 400 104 q 754 244 588 104 l 796 192 l 550 -3 m 435 635 q 278 429 285 635 l 603 429 q 577 544 590 504 q 531 609 564 583 q 435 635 499 635 m 725 1179 l 419 939 l 364 967 l 513 1239 l 699 1213 l 725 1179 z "},"ě":{"ha":893,"x_min":97,"x_max":796,"o":"m 550 -3 q 417 -14 494 -14 q 252 34 325 -14 q 138 164 179 82 q 97 344 97 246 q 163 545 97 451 q 326 695 228 639 q 515 751 424 751 q 720 647 647 751 q 793 372 793 543 l 279 372 q 344 179 288 254 q 497 104 400 104 q 754 244 588 104 l 796 192 l 550 -3 m 435 635 q 278 429 285 635 l 603 429 q 577 544 590 504 q 531 609 564 583 q 435 635 499 635 m 451 931 l 136 1179 l 163 1213 l 335 1239 l 497 1053 l 717 1226 l 758 1174 l 451 931 z "},"ê":{"ha":893,"x_min":97,"x_max":796,"o":"m 550 -3 q 417 -14 494 -14 q 252 34 325 -14 q 138 164 179 82 q 97 344 97 246 q 163 545 97 451 q 326 695 228 639 q 515 751 424 751 q 720 647 647 751 q 793 372 793 543 l 279 372 q 344 179 288 254 q 497 104 400 104 q 754 244 588 104 l 796 192 l 550 -3 m 435 635 q 278 429 285 635 l 603 429 q 577 544 590 504 q 531 609 564 583 q 435 635 499 635 m 732 944 l 560 918 l 397 1104 l 178 931 l 136 983 l 443 1226 l 758 978 l 732 944 z "},"ë":{"ha":893,"x_min":97,"x_max":796,"o":"m 246 958 q 184 988 208 958 q 160 1060 160 1017 q 177 1117 160 1090 q 221 1159 194 1143 q 272 1175 247 1175 q 334 1146 310 1175 q 358 1074 358 1117 q 341 1017 358 1043 q 297 974 324 990 q 246 958 271 958 m 621 958 q 559 988 583 958 q 535 1060 535 1017 q 552 1117 535 1090 q 596 1159 569 1143 q 647 1175 622 1175 q 709 1146 685 1175 q 733 1074 733 1117 q 716 1017 733 1043 q 672 974 699 990 q 621 958 646 958 m 550 -3 q 417 -14 494 -14 q 252 34 325 -14 q 138 164 179 82 q 97 344 97 246 q 163 545 97 451 q 326 695 228 639 q 515 751 424 751 q 720 647 647 751 q 793 372 793 543 l 279 372 q 344 179 288 254 q 497 104 400 104 q 754 244 588 104 l 796 192 l 550 -3 m 435 635 q 278 429 285 635 l 603 429 q 577 544 590 504 q 531 609 564 583 q 435 635 499 635 z "},"ė":{"ha":893,"x_min":97,"x_max":796,"o":"m 550 -3 q 417 -14 494 -14 q 252 34 325 -14 q 138 164 179 82 q 97 344 97 246 q 163 545 97 451 q 326 695 228 639 q 515 751 424 751 q 720 647 647 751 q 793 372 793 543 l 279 372 q 344 179 288 254 q 497 104 400 104 q 754 244 588 104 l 796 192 l 550 -3 m 435 635 q 278 429 285 635 l 603 429 q 577 544 590 504 q 531 609 564 583 q 435 635 499 635 m 461 1181 q 530 1150 503 1181 q 557 1074 557 1119 q 538 1013 557 1042 q 489 968 518 985 q 432 951 460 951 q 363 982 390 951 q 336 1058 336 1013 q 356 1119 336 1090 q 404 1164 375 1147 q 461 1181 433 1181 z "},"è":{"ha":893,"x_min":97,"x_max":796,"o":"m 550 -3 q 417 -14 494 -14 q 252 34 325 -14 q 138 164 179 82 q 97 344 97 246 q 163 545 97 451 q 326 695 228 639 q 515 751 424 751 q 720 647 647 751 q 793 372 793 543 l 279 372 q 344 179 288 254 q 497 104 400 104 q 754 244 588 104 l 796 192 l 550 -3 m 435 635 q 278 429 285 635 l 603 429 q 577 544 590 504 q 531 609 564 583 q 435 635 499 635 m 476 939 l 171 1179 l 197 1213 l 383 1239 l 532 967 l 476 939 z "},"ē":{"ha":893,"x_min":97,"x_max":796,"o":"m 550 -3 q 417 -14 494 -14 q 252 34 325 -14 q 138 164 179 82 q 97 344 97 246 q 163 545 97 451 q 326 695 228 639 q 515 751 424 751 q 720 647 647 751 q 793 372 793 543 l 279 372 q 344 179 288 254 q 497 104 400 104 q 754 244 588 104 l 796 192 l 550 -3 m 435 635 q 278 429 285 635 l 603 429 q 577 544 590 504 q 531 609 564 583 q 435 635 499 635 m 157 1103 l 738 1103 l 738 1040 l 157 1040 l 157 1103 z "},"ę":{"ha":893,"x_min":97,"x_max":796,"o":"m 551 -3 q 475 -92 494 -56 q 456 -162 456 -129 q 470 -202 456 -187 q 519 -222 485 -217 l 519 -275 l 404 -367 q 335 -312 360 -347 q 310 -232 310 -278 q 321 -156 310 -185 l 467 -12 q 417 -14 449 -14 q 252 34 325 -14 q 138 164 179 82 q 97 344 97 246 q 163 545 97 451 q 326 695 228 639 q 515 751 424 751 q 720 647 647 751 q 793 372 793 543 l 279 372 q 344 179 288 254 q 497 104 400 104 q 754 244 588 104 l 796 192 l 551 -3 m 436 635 q 279 429 286 635 l 604 429 q 578 544 592 504 q 533 609 565 583 q 436 635 500 635 z "},"f":{"ha":610,"x_min":35,"x_max":735,"o":"m 576 1226 q 665 1219 615 1226 q 735 1203 714 1211 l 735 989 l 682 989 q 597 1077 647 1044 q 496 1110 547 1110 q 399 1053 432 1110 q 367 886 367 996 l 367 696 l 617 696 l 617 639 l 367 639 l 367 115 l 561 56 l 533 0 l 76 0 l 76 43 l 200 140 l 200 639 l 35 639 l 35 696 l 200 696 l 200 819 q 258 1021 200 926 q 405 1171 317 1115 q 576 1226 493 1226 z "},"g":{"ha":889,"x_min":82,"x_max":849,"o":"m 685 642 q 724 517 724 586 q 689 397 724 456 q 596 293 654 338 q 468 226 538 249 q 431 147 431 189 q 467 103 431 124 q 576 56 504 83 q 728 -16 675 17 q 782 -96 782 -49 q 728 -203 782 -137 q 596 -317 675 -268 q 443 -365 517 -365 q 259 -339 365 -365 q 82 -286 153 -312 l 82 -72 l 135 -72 q 293 -218 213 -168 q 475 -268 374 -268 q 544 -253 513 -268 q 592 -215 575 -237 q 610 -171 610 -192 q 567 -106 610 -133 q 432 -40 524 -79 q 302 22 344 -4 q 260 83 260 49 q 304 151 260 117 q 410 213 349 186 q 364 208 388 208 q 229 241 290 208 q 133 328 168 274 q 97 446 97 382 q 150 593 97 522 q 287 708 203 664 q 458 751 371 751 q 629 696 556 751 l 847 696 l 849 642 l 685 642 m 444 328 q 540 359 507 328 q 572 451 572 390 q 519 586 572 535 q 378 638 465 638 q 284 608 317 638 q 251 517 251 578 q 305 380 251 432 q 444 328 358 328 z "},"ğ":{"ha":889,"x_min":82,"x_max":849,"o":"m 685 642 q 724 517 724 586 q 689 397 724 456 q 596 293 654 338 q 468 226 538 249 q 431 147 431 189 q 467 103 431 124 q 576 56 504 83 q 728 -16 675 17 q 782 -96 782 -49 q 728 -203 782 -137 q 596 -317 675 -268 q 443 -365 517 -365 q 259 -339 365 -365 q 82 -286 153 -312 l 82 -72 l 135 -72 q 293 -218 213 -168 q 475 -268 374 -268 q 544 -253 513 -268 q 592 -215 575 -237 q 610 -171 610 -192 q 567 -106 610 -133 q 432 -40 524 -79 q 302 22 344 -4 q 260 83 260 49 q 304 151 260 117 q 410 213 349 186 q 364 208 388 208 q 229 241 290 208 q 133 328 168 274 q 97 446 97 382 q 150 593 97 522 q 287 708 203 664 q 458 751 371 751 q 629 696 556 751 l 847 696 l 849 642 l 685 642 m 444 328 q 540 359 507 328 q 572 451 572 390 q 519 586 572 535 q 378 638 465 638 q 284 608 317 638 q 251 517 251 578 q 305 380 251 432 q 444 328 358 328 m 710 1213 q 664 1104 710 1161 q 549 1009 618 1047 q 415 971 481 971 q 259 1003 335 971 q 147 1106 183 1035 l 282 1213 q 361 1089 319 1124 q 450 1054 403 1054 q 524 1078 496 1054 q 553 1135 553 1101 l 710 1213 z "},"ģ":{"ha":889,"x_min":82,"x_max":849,"o":"m 685 642 q 724 517 724 586 q 689 397 724 456 q 596 293 654 338 q 468 226 538 249 q 431 147 431 189 q 467 103 431 124 q 576 56 504 83 q 728 -16 675 17 q 782 -96 782 -49 q 728 -203 782 -137 q 596 -317 675 -268 q 443 -365 517 -365 q 259 -339 365 -365 q 82 -286 153 -312 l 82 -72 l 135 -72 q 293 -218 213 -168 q 475 -268 374 -268 q 544 -253 513 -268 q 592 -215 575 -237 q 610 -171 610 -192 q 567 -106 610 -133 q 432 -40 524 -79 q 302 22 344 -4 q 260 83 260 49 q 304 151 260 117 q 410 213 349 186 q 364 208 388 208 q 229 241 290 208 q 133 328 168 274 q 97 446 97 382 q 150 593 97 522 q 287 708 203 664 q 458 751 371 751 q 629 696 556 751 l 847 696 l 849 642 l 685 642 m 444 328 q 540 359 507 328 q 572 451 572 390 q 519 586 572 535 q 378 638 465 638 q 284 608 317 638 q 251 517 251 578 q 305 380 251 432 q 444 328 358 328 m 271 1018 l 447 1282 l 503 1282 l 467 1110 l 575 1031 l 547 975 l 271 975 l 271 1018 z "},"ġ":{"ha":889,"x_min":82,"x_max":849,"o":"m 685 642 q 724 517 724 586 q 689 397 724 456 q 596 293 654 338 q 468 226 538 249 q 431 147 431 189 q 467 103 431 124 q 576 56 504 83 q 728 -16 675 17 q 782 -96 782 -49 q 728 -203 782 -137 q 596 -317 675 -268 q 443 -365 517 -365 q 259 -339 365 -365 q 82 -286 153 -312 l 82 -72 l 135 -72 q 293 -218 213 -168 q 475 -268 374 -268 q 544 -253 513 -268 q 592 -215 575 -237 q 610 -171 610 -192 q 567 -106 610 -133 q 432 -40 524 -79 q 302 22 344 -4 q 260 83 260 49 q 304 151 260 117 q 410 213 349 186 q 364 208 388 208 q 229 241 290 208 q 133 328 168 274 q 97 446 97 382 q 150 593 97 522 q 287 708 203 664 q 458 751 371 751 q 629 696 556 751 l 847 696 l 849 642 l 685 642 m 444 328 q 540 359 507 328 q 572 451 572 390 q 519 586 572 535 q 378 638 465 638 q 284 608 317 638 q 251 517 251 578 q 305 380 251 432 q 444 328 358 328 m 438 1181 q 506 1150 479 1181 q 533 1074 533 1119 q 514 1013 533 1042 q 465 968 494 985 q 408 951 436 951 q 340 982 367 951 q 313 1058 313 1013 q 332 1119 313 1090 q 381 1164 351 1147 q 438 1181 410 1181 z "},"h":{"ha":971,"x_min":49,"x_max":936,"o":"m 908 0 l 644 0 l 644 468 q 621 575 644 544 q 536 606 597 606 q 445 589 490 606 q 339 525 400 572 l 339 104 l 464 56 l 436 0 l 49 0 l 49 43 l 172 140 l 172 994 l 49 1081 l 49 1124 l 286 1213 l 339 1213 l 339 590 l 529 740 q 606 751 558 751 q 756 694 700 751 q 811 538 811 636 l 811 104 l 936 56 l 908 0 z "},"ħ":{"ha":971,"x_min":0,"x_max":936,"o":"m 908 0 l 644 0 l 644 468 q 621 575 644 544 q 536 606 597 606 q 445 589 490 606 q 339 525 400 572 l 339 104 l 464 56 l 436 0 l 49 0 l 49 43 l 172 140 l 172 938 l 0 938 l 0 994 l 172 994 l 172 1183 l 286 1239 l 339 1239 l 339 994 l 581 994 l 581 938 l 339 938 l 339 590 l 529 740 q 606 751 558 751 q 756 694 700 751 q 811 538 811 636 l 811 104 l 936 56 l 908 0 z "},"i":{"ha":540,"x_min":76,"x_max":492,"o":"m 464 0 l 76 0 l 76 43 l 200 140 l 200 546 l 76 632 l 76 675 l 314 764 l 367 764 l 367 104 l 492 56 l 464 0 m 278 1181 q 347 1150 319 1181 q 374 1074 374 1119 q 354 1013 374 1042 q 306 968 335 985 q 249 951 276 951 q 180 982 207 951 q 153 1058 153 1013 q 172 1119 153 1090 q 221 1164 192 1147 q 278 1181 250 1181 z "},"ı":{"ha":540,"x_min":76,"x_max":492,"o":"m 464 0 l 76 0 l 76 43 l 200 140 l 200 546 l 76 632 l 76 675 l 314 764 l 367 764 l 367 104 l 492 56 l 464 0 z "},"í":{"ha":540,"x_min":76,"x_max":542,"o":"m 464 0 l 76 0 l 76 43 l 200 140 l 200 546 l 76 632 l 76 675 l 314 764 l 367 764 l 367 104 l 492 56 l 464 0 m 542 1179 l 236 939 l 181 967 l 329 1239 l 515 1213 l 542 1179 z "},"î":{"ha":540,"x_min":-47,"x_max":575,"o":"m 464 0 l 76 0 l 76 43 l 200 140 l 200 546 l 76 632 l 76 675 l 314 764 l 367 764 l 367 104 l 492 56 l 464 0 m 549 944 l 376 918 l 214 1104 l -6 931 l -47 983 l 260 1226 l 575 978 l 549 944 z "},"ï":{"ha":540,"x_min":-24,"x_max":550,"o":"m 175 1074 q 158 1017 175 1043 q 114 974 140 990 q 63 958 88 958 q 1 988 25 958 q -24 1060 -24 1017 q -6 1117 -24 1090 q 38 1159 11 1143 q 89 1175 64 1175 q 151 1146 126 1175 q 175 1074 175 1117 m 464 1175 q 526 1146 501 1175 q 550 1074 550 1117 q 533 1017 550 1043 q 489 974 515 990 q 438 958 463 958 q 376 988 400 958 q 351 1060 351 1017 q 369 1117 351 1090 q 413 1159 386 1143 q 464 1175 439 1175 m 492 56 l 464 0 l 76 0 l 76 43 l 200 140 l 200 546 l 76 632 l 76 675 l 314 764 l 367 764 l 367 104 l 492 56 z "},"ì":{"ha":540,"x_min":-12,"x_max":492,"o":"m 464 0 l 76 0 l 76 43 l 200 140 l 200 546 l 76 632 l 76 675 l 314 764 l 367 764 l 367 104 l 492 56 l 464 0 m 293 939 l -12 1179 l 14 1213 l 200 1239 l 349 967 l 293 939 z "},"ĳ":{"ha":1067,"x_min":76,"x_max":919,"o":"m 249 951 q 180 982 207 951 q 153 1058 153 1013 q 172 1119 153 1090 q 221 1164 192 1147 q 278 1181 250 1181 q 347 1150 319 1181 q 374 1074 374 1119 q 354 1013 374 1042 q 306 968 335 985 q 249 951 276 951 m 789 951 q 720 982 747 951 q 693 1058 693 1013 q 713 1119 693 1090 q 761 1164 732 1147 q 818 1181 790 1181 q 887 1150 860 1181 q 914 1074 914 1119 q 894 1013 914 1042 q 846 968 875 985 q 789 951 817 951 m 492 56 l 464 0 l 76 0 l 76 43 l 200 140 l 200 546 l 76 632 l 76 675 l 314 764 l 367 764 l 367 104 l 492 56 m 907 138 q 910 35 907 82 q 919 -28 914 -11 l 653 -367 l 600 -325 q 712 -157 683 -226 q 740 15 740 -87 l 740 546 l 617 632 l 617 675 l 854 764 l 907 764 l 907 138 z "},"ī":{"ha":540,"x_min":-26,"x_max":554,"o":"m 464 0 l 76 0 l 76 43 l 200 140 l 200 546 l 76 632 l 76 675 l 314 764 l 367 764 l 367 104 l 492 56 l 464 0 m -26 1103 l 554 1103 l 554 1040 l -26 1040 l -26 1103 z "},"į":{"ha":540,"x_min":76,"x_max":492,"o":"m 249 951 q 180 982 207 951 q 153 1058 153 1013 q 172 1119 153 1090 q 221 1164 192 1147 q 278 1181 250 1181 q 347 1150 319 1181 q 374 1074 374 1119 q 354 1013 374 1042 q 306 968 335 985 q 249 951 276 951 m 464 0 q 374 -94 401 -57 q 347 -162 347 -132 q 363 -201 347 -187 q 411 -222 378 -215 l 411 -275 l 296 -367 q 174 -211 174 -321 q 185 -156 174 -181 l 381 0 l 76 0 l 76 43 l 200 140 l 200 546 l 76 632 l 76 675 l 314 764 l 367 764 l 367 104 l 492 56 l 464 0 z "},"j":{"ha":526,"x_min":60,"x_max":379,"o":"m 367 138 q 370 35 367 82 q 379 -28 374 -11 l 113 -367 l 60 -325 q 172 -157 143 -226 q 200 15 200 -87 l 200 546 l 76 632 l 76 675 l 314 764 l 367 764 l 367 138 m 278 1181 q 347 1150 319 1181 q 374 1074 374 1119 q 354 1013 374 1042 q 306 968 335 985 q 249 951 276 951 q 180 982 207 951 q 153 1058 153 1013 q 172 1119 153 1090 q 221 1164 192 1147 q 278 1181 250 1181 z "},"ȷ":{"ha":526,"x_min":60,"x_max":379,"o":"m 367 138 q 370 35 367 82 q 379 -28 374 -11 l 113 -367 l 60 -325 q 172 -157 143 -226 q 200 15 200 -87 l 200 546 l 76 632 l 76 675 l 314 764 l 367 764 l 367 138 z "},"k":{"ha":957,"x_min":49,"x_max":936,"o":"m 464 56 l 436 0 l 49 0 l 49 43 l 172 140 l 172 994 l 49 1081 l 49 1124 l 286 1213 l 339 1213 l 339 104 l 464 56 m 908 0 l 674 0 l 413 367 l 672 585 l 539 682 l 567 738 l 899 738 l 899 694 l 576 424 l 811 104 l 936 56 l 908 0 z "},"ķ":{"ha":957,"x_min":49,"x_max":936,"o":"m 464 56 l 436 0 l 49 0 l 49 43 l 172 140 l 172 994 l 49 1081 l 49 1124 l 286 1213 l 339 1213 l 339 104 l 464 56 m 908 0 l 674 0 l 413 367 l 672 585 l 539 682 l 567 738 l 899 738 l 899 694 l 576 424 l 811 104 l 936 56 l 908 0 m 660 -158 l 483 -422 l 428 -422 l 464 -250 l 356 -171 l 383 -115 l 660 -115 l 660 -158 z "},"l":{"ha":513,"x_min":49,"x_max":464,"o":"m 436 0 l 49 0 l 49 43 l 172 140 l 172 994 l 49 1081 l 49 1124 l 286 1213 l 339 1213 l 339 104 l 464 56 l 436 0 z "},"ĺ":{"ha":513,"x_min":49,"x_max":528,"o":"m 436 0 l 49 0 l 49 43 l 172 140 l 172 994 l 49 1081 l 49 1124 l 286 1213 l 339 1213 l 339 104 l 464 56 l 436 0 m 528 1585 l 222 1344 l 167 1372 l 315 1644 l 501 1618 l 528 1585 z "},"ľ":{"ha":513,"x_min":49,"x_max":669,"o":"m 436 0 l 49 0 l 49 43 l 172 140 l 172 994 l 49 1081 l 49 1124 l 286 1213 l 339 1213 l 339 104 l 464 56 l 436 0 m 669 1004 l 503 793 l 450 835 q 501 938 483 885 q 518 1036 518 990 q 517 1060 518 1053 l 461 1108 l 461 1151 l 617 1213 l 669 1213 l 669 1004 z "},"ļ":{"ha":513,"x_min":49,"x_max":464,"o":"m 436 0 l 49 0 l 49 43 l 172 140 l 172 994 l 49 1081 l 49 1124 l 286 1213 l 339 1213 l 339 104 l 464 56 l 436 0 m 417 -158 l 240 -422 l 185 -422 l 221 -250 l 113 -171 l 140 -115 l 417 -115 l 417 -158 z "},"ŀ":{"ha":704,"x_min":49,"x_max":713,"o":"m 436 0 l 49 0 l 49 43 l 172 140 l 172 994 l 49 1081 l 49 1124 l 286 1213 l 339 1213 l 339 104 l 464 56 l 436 0 m 617 689 q 685 658 658 689 q 713 582 713 628 q 693 522 713 550 q 644 476 674 493 q 588 460 615 460 q 519 490 546 460 q 492 567 492 521 q 511 627 492 599 q 560 672 531 656 q 617 689 589 689 z "},"ł":{"ha":499,"x_min":-28,"x_max":526,"o":"m 339 103 l 464 54 l 436 -1 l 49 -1 l 49 42 l 172 139 l 172 563 l -28 357 l -28 436 l 172 650 l 172 994 l 49 1081 l 49 1124 l 286 1213 l 339 1213 l 339 744 l 526 947 l 526 854 l 339 653 l 339 103 z "},"m":{"ha":1443,"x_min":78,"x_max":1410,"o":"m 1382 0 l 1118 0 l 1118 468 q 1094 575 1118 544 q 1010 606 1071 606 q 925 590 967 606 q 826 526 883 574 l 826 104 l 951 56 l 924 0 l 660 0 l 660 468 q 636 575 660 544 q 551 606 613 606 q 467 590 508 606 q 368 526 425 574 l 368 104 l 493 56 l 465 0 l 78 0 l 78 43 l 201 140 l 201 533 l 78 606 l 78 649 l 315 765 l 360 588 l 544 742 q 621 753 574 753 q 754 709 701 753 q 821 589 807 665 l 1001 740 q 1078 751 1031 751 q 1228 694 1172 751 q 1283 538 1283 636 l 1283 104 l 1410 56 l 1382 0 z "},"n":{"ha":999,"x_min":76,"x_max":964,"o":"m 936 -1 l 672 -1 l 672 467 q 649 574 672 543 q 564 604 625 604 q 473 588 518 604 q 367 524 428 571 l 367 103 l 492 54 l 464 -1 l 76 -1 l 76 42 l 200 139 l 200 532 l 76 604 l 76 647 l 314 764 l 360 583 l 557 740 q 633 751 586 751 q 783 694 728 751 q 839 538 839 636 l 839 104 l 964 54 l 936 -1 z "},"ń":{"ha":999,"x_min":76,"x_max":964,"o":"m 936 -1 l 672 -1 l 672 467 q 649 574 672 543 q 564 604 625 604 q 473 588 518 604 q 367 524 428 571 l 367 103 l 492 54 l 464 -1 l 76 -1 l 76 42 l 200 139 l 200 532 l 76 604 l 76 647 l 314 764 l 360 583 l 557 740 q 633 751 586 751 q 783 694 728 751 q 839 538 839 636 l 839 104 l 964 54 l 936 -1 m 764 1179 l 458 939 l 403 967 l 551 1239 l 738 1213 l 764 1179 z "},"ň":{"ha":999,"x_min":76,"x_max":964,"o":"m 936 -1 l 672 -1 l 672 467 q 649 574 672 543 q 564 604 625 604 q 473 588 518 604 q 367 524 428 571 l 367 103 l 492 54 l 464 -1 l 76 -1 l 76 42 l 200 139 l 200 532 l 76 604 l 76 647 l 314 764 l 360 583 l 557 740 q 633 751 586 751 q 783 694 728 751 q 839 538 839 636 l 839 104 l 964 54 l 936 -1 m 490 931 l 175 1179 l 201 1213 l 374 1239 l 536 1053 l 756 1226 l 797 1174 l 490 931 z "},"ņ":{"ha":999,"x_min":76,"x_max":964,"o":"m 936 -1 l 672 -1 l 672 467 q 649 574 672 543 q 564 604 625 604 q 473 588 518 604 q 367 524 428 571 l 367 103 l 492 54 l 464 -1 l 76 -1 l 76 42 l 200 139 l 200 532 l 76 604 l 76 647 l 314 764 l 360 583 l 557 740 q 633 751 586 751 q 783 694 728 751 q 839 538 839 636 l 839 104 l 964 54 l 936 -1 m 708 -158 l 532 -422 l 476 -422 l 513 -250 l 404 -171 l 432 -115 l 708 -115 l 708 -158 z "},"ŋ":{"ha":999,"x_min":76,"x_max":851,"o":"m 839 136 q 842 34 839 81 q 851 -29 846 -12 l 585 -368 l 532 -326 q 644 -158 615 -228 q 672 14 672 -89 l 672 467 q 649 574 672 543 q 564 604 625 604 q 473 588 518 604 q 367 524 428 571 l 367 103 l 492 54 l 464 -1 l 76 -1 l 76 42 l 200 139 l 200 532 l 76 604 l 76 647 l 314 764 l 360 583 l 557 740 q 633 751 586 751 q 783 694 728 751 q 839 538 839 636 l 839 136 z "},"ñ":{"ha":999,"x_min":76,"x_max":964,"o":"m 936 -1 l 672 -1 l 672 467 q 649 574 672 543 q 564 604 625 604 q 473 588 518 604 q 367 524 428 571 l 367 103 l 492 54 l 464 -1 l 76 -1 l 76 42 l 200 139 l 200 532 l 76 604 l 76 647 l 314 764 l 360 583 l 557 740 q 633 751 586 751 q 783 694 728 751 q 839 538 839 636 l 839 104 l 964 54 l 936 -1 m 414 1226 q 606 1121 515 1121 q 692 1151 650 1121 l 739 1188 l 781 1135 l 557 958 q 367 1063 456 1063 q 276 1031 319 1063 l 232 997 l 190 1050 l 414 1226 z "},"o":{"ha":932,"x_min":97,"x_max":835,"o":"m 515 751 q 680 703 607 751 q 794 574 753 656 q 835 393 835 492 q 769 192 835 286 q 606 42 704 99 q 417 -14 508 -14 q 252 34 325 -14 q 138 164 179 82 q 97 344 97 246 q 163 545 97 451 q 326 695 228 639 q 515 751 424 751 m 435 635 q 278 411 278 635 q 335 191 278 279 q 497 103 392 103 q 654 328 654 103 q 597 547 654 458 q 435 635 540 635 z "},"ó":{"ha":932,"x_min":97,"x_max":835,"o":"m 515 751 q 680 703 607 751 q 794 574 753 656 q 835 393 835 492 q 769 192 835 286 q 606 42 704 99 q 417 -14 508 -14 q 252 34 325 -14 q 138 164 179 82 q 97 344 97 246 q 163 545 97 451 q 326 695 228 639 q 515 751 424 751 m 435 635 q 278 411 278 635 q 335 191 278 279 q 497 103 392 103 q 654 328 654 103 q 597 547 654 458 q 435 635 540 635 m 744 1179 l 439 939 l 383 967 l 532 1239 l 718 1213 l 744 1179 z "},"ô":{"ha":932,"x_min":97,"x_max":835,"o":"m 515 751 q 680 703 607 751 q 794 574 753 656 q 835 393 835 492 q 769 192 835 286 q 606 42 704 99 q 417 -14 508 -14 q 252 34 325 -14 q 138 164 179 82 q 97 344 97 246 q 163 545 97 451 q 326 695 228 639 q 515 751 424 751 m 435 635 q 278 411 278 635 q 335 191 278 279 q 497 103 392 103 q 654 328 654 103 q 597 547 654 458 q 435 635 540 635 m 751 944 l 579 918 l 417 1104 l 197 931 l 156 983 l 463 1226 l 778 978 l 751 944 z "},"ö":{"ha":932,"x_min":97,"x_max":835,"o":"m 292 1175 q 353 1146 329 1175 q 378 1074 378 1117 q 360 1017 378 1043 q 317 974 343 990 q 265 958 290 958 q 203 988 228 958 q 179 1060 179 1017 q 197 1117 179 1090 q 240 1159 214 1143 q 292 1175 267 1175 m 667 1175 q 728 1146 704 1175 q 753 1074 753 1117 q 735 1017 753 1043 q 692 974 718 990 q 640 958 665 958 q 578 988 603 958 q 554 1060 554 1017 q 572 1117 554 1090 q 615 1159 589 1143 q 667 1175 642 1175 m 515 751 q 680 703 607 751 q 794 574 753 656 q 835 393 835 492 q 769 192 835 286 q 606 42 704 99 q 417 -14 508 -14 q 252 34 325 -14 q 138 164 179 82 q 97 344 97 246 q 163 545 97 451 q 326 695 228 639 q 515 751 424 751 m 435 635 q 278 411 278 635 q 335 191 278 279 q 497 103 392 103 q 654 328 654 103 q 597 547 654 458 q 435 635 540 635 z "},"ò":{"ha":932,"x_min":97,"x_max":835,"o":"m 515 751 q 680 703 607 751 q 794 574 753 656 q 835 393 835 492 q 769 192 835 286 q 606 42 704 99 q 417 -14 508 -14 q 252 34 325 -14 q 138 164 179 82 q 97 344 97 246 q 163 545 97 451 q 326 695 228 639 q 515 751 424 751 m 435 635 q 278 411 278 635 q 335 191 278 279 q 497 103 392 103 q 654 328 654 103 q 597 547 654 458 q 435 635 540 635 m 496 939 l 190 1179 l 217 1213 l 403 1239 l 551 967 l 496 939 z "},"ő":{"ha":932,"x_min":97,"x_max":863,"o":"m 515 751 q 680 703 607 751 q 794 574 753 656 q 835 393 835 492 q 769 192 835 286 q 606 42 704 99 q 417 -14 508 -14 q 252 34 325 -14 q 138 164 179 82 q 97 344 97 246 q 163 545 97 451 q 326 695 228 639 q 515 751 424 751 m 435 635 q 278 411 278 635 q 335 191 278 279 q 497 103 392 103 q 654 328 654 103 q 597 547 654 458 q 435 635 540 635 m 515 1179 l 265 939 l 210 967 l 313 1239 l 489 1213 l 515 1179 m 863 1179 l 613 939 l 557 967 l 660 1239 l 836 1213 l 863 1179 z "},"ō":{"ha":932,"x_min":97,"x_max":835,"o":"m 515 751 q 680 703 607 751 q 794 574 753 656 q 835 393 835 492 q 769 192 835 286 q 606 42 704 99 q 417 -14 508 -14 q 252 34 325 -14 q 138 164 179 82 q 97 344 97 246 q 163 545 97 451 q 326 695 228 639 q 515 751 424 751 m 435 635 q 278 411 278 635 q 335 191 278 279 q 497 103 392 103 q 654 328 654 103 q 597 547 654 458 q 435 635 540 635 m 176 1103 l 757 1103 l 757 1040 l 176 1040 l 176 1103 z "},"ø":{"ha":932,"x_min":96,"x_max":832,"o":"m 686 699 q 793 571 754 651 q 832 394 832 490 q 767 194 832 288 q 603 44 701 100 q 414 -12 506 -12 q 290 14 350 -12 l 165 -203 l 115 -174 l 240 42 q 134 169 172 89 q 96 344 96 249 q 161 545 96 451 q 324 695 226 639 q 514 751 422 751 q 638 726 582 751 l 763 942 l 813 913 l 689 697 l 686 699 m 275 414 q 329 197 275 283 l 557 592 q 432 636 504 636 q 275 413 275 636 l 275 414 m 493 104 q 650 329 650 104 q 596 546 650 461 l 368 151 q 494 106 421 106 l 493 104 z "},"õ":{"ha":932,"x_min":97,"x_max":835,"o":"m 515 751 q 680 703 607 751 q 794 574 753 656 q 835 393 835 492 q 769 192 835 286 q 606 42 704 99 q 417 -14 508 -14 q 252 34 325 -14 q 138 164 179 82 q 97 344 97 246 q 163 545 97 451 q 326 695 228 639 q 515 751 424 751 m 435 635 q 278 411 278 635 q 335 191 278 279 q 497 103 392 103 q 654 328 654 103 q 597 547 654 458 q 435 635 540 635 m 394 1226 q 586 1121 496 1121 q 672 1151 631 1121 l 719 1188 l 761 1135 l 538 958 q 347 1063 436 1063 q 257 1031 300 1063 l 213 997 l 171 1050 l 394 1226 z "},"œ":{"ha":1350,"x_min":99,"x_max":1253,"o":"m 978 104 q 1208 225 1060 104 l 1250 172 l 1031 -3 q 897 -14 975 -14 q 765 22 825 -14 q 663 119 704 57 q 531 22 604 58 q 390 -14 458 -14 q 240 34 307 -14 q 136 164 174 82 q 99 344 99 246 q 159 546 99 451 q 311 696 219 640 q 489 751 403 751 q 620 715 560 751 q 719 617 681 679 q 856 715 779 679 q 1003 751 932 751 q 1188 647 1122 751 q 1253 372 1253 543 l 781 372 q 840 180 789 256 q 978 104 892 104 m 469 103 q 566 160 533 103 q 599 328 599 217 q 549 547 599 458 q 407 635 499 635 q 310 578 343 635 q 278 411 278 521 q 328 192 278 281 q 469 103 378 103 m 922 635 q 779 429 786 635 l 1063 429 q 1041 545 1051 507 q 1003 609 1031 583 q 922 635 976 635 z "},"p":{"ha":1021,"x_min":76,"x_max":924,"o":"m 506 -15 q 367 31 431 -15 l 367 -239 l 561 -299 l 533 -354 l 76 -354 l 76 -311 l 200 -214 l 200 532 l 76 604 l 76 647 l 314 764 l 360 583 l 558 740 q 660 751 603 751 q 795 703 735 751 q 890 574 856 656 q 924 393 924 492 q 858 192 924 286 q 695 42 793 99 q 506 -14 597 -14 l 506 -15 m 589 618 q 486 597 536 618 q 367 515 436 576 l 367 281 q 424 153 367 204 q 586 101 481 101 q 743 325 743 101 q 703 533 743 449 q 589 618 663 618 z "},"þ":{"ha":992,"x_min":49,"x_max":894,"o":"m 478 -12 q 339 31 401 -12 l 339 -237 l 533 -297 l 506 -353 l 49 -353 l 49 -310 l 172 -212 l 172 994 l 49 1081 l 49 1124 l 286 1213 l 339 1213 l 339 594 l 524 740 q 631 751 568 751 q 766 703 706 751 q 860 574 826 656 q 894 393 894 492 q 829 192 894 286 q 666 42 764 99 q 476 -14 568 -14 l 478 -12 m 561 635 q 459 615 508 635 q 340 533 410 594 l 340 261 q 405 148 349 192 q 558 104 461 104 q 715 328 715 104 q 675 546 715 457 q 561 635 635 635 z "},"q":{"ha":979,"x_min":97,"x_max":944,"o":"m 917 -354 l 460 -354 l 460 -311 l 653 -208 l 653 99 l 524 -4 q 417 -15 479 -15 q 252 33 325 -15 q 138 163 179 81 q 97 343 97 244 q 163 544 97 450 q 326 694 228 638 q 515 750 424 750 q 697 668 622 750 l 767 765 l 819 765 l 819 -249 l 944 -299 l 917 -354 m 488 103 q 567 115 529 103 q 653 160 606 126 l 653 476 q 588 590 644 546 q 435 633 532 633 q 278 410 278 633 q 332 191 278 279 q 488 103 386 103 z "},"r":{"ha":721,"x_min":76,"x_max":713,"o":"m 578 750 q 658 725 624 750 q 713 656 693 700 l 621 540 l 568 540 q 548 590 563 575 q 508 604 533 604 q 444 588 478 604 q 367 528 410 572 l 367 114 l 561 54 l 533 -1 l 76 -1 l 76 42 l 200 139 l 200 532 l 76 604 l 76 647 l 314 764 l 357 593 l 501 740 q 578 751 531 751 l 578 750 z "},"ŕ":{"ha":721,"x_min":76,"x_max":713,"o":"m 578 750 q 658 725 624 750 q 713 656 693 700 l 621 540 l 568 540 q 548 590 563 575 q 508 604 533 604 q 444 588 478 604 q 367 528 410 572 l 367 114 l 561 54 l 533 -1 l 76 -1 l 76 42 l 200 139 l 200 532 l 76 604 l 76 647 l 314 764 l 357 593 l 501 740 q 578 751 531 751 l 578 750 m 653 1179 l 347 939 l 292 967 l 440 1239 l 626 1213 l 653 1179 z "},"ř":{"ha":721,"x_min":64,"x_max":713,"o":"m 578 750 q 658 725 624 750 q 713 656 693 700 l 621 540 l 568 540 q 548 590 563 575 q 508 604 533 604 q 444 588 478 604 q 367 528 410 572 l 367 114 l 561 54 l 533 -1 l 76 -1 l 76 42 l 200 139 l 200 532 l 76 604 l 76 647 l 314 764 l 357 593 l 501 740 q 578 751 531 751 l 578 750 m 379 931 l 64 1179 l 90 1213 l 263 1239 l 425 1053 l 644 1226 l 686 1174 l 379 931 z "},"ŗ":{"ha":721,"x_min":76,"x_max":713,"o":"m 578 750 q 658 725 624 750 q 713 656 693 700 l 621 540 l 568 540 q 548 590 563 575 q 508 604 533 604 q 444 588 478 604 q 367 528 410 572 l 367 114 l 561 54 l 533 -1 l 76 -1 l 76 42 l 200 139 l 200 532 l 76 604 l 76 647 l 314 764 l 357 593 l 501 740 q 578 751 531 751 l 578 750 m 456 -158 l 279 -422 l 224 -422 l 260 -250 l 151 -171 l 179 -115 l 456 -115 l 456 -158 z "},"s":{"ha":776,"x_min":118,"x_max":681,"o":"m 524 150 q 481 222 524 189 q 349 300 438 254 q 232 365 276 338 q 156 430 188 393 q 125 510 125 467 q 167 617 125 560 q 269 713 208 674 q 383 751 331 751 q 531 735 447 751 q 653 700 615 719 l 653 486 l 600 486 q 497 620 556 572 q 378 668 439 668 q 308 645 335 668 q 282 588 282 622 q 327 510 282 544 q 464 431 372 476 q 578 368 535 394 q 651 306 621 342 q 681 228 681 271 q 637 120 681 176 q 530 25 593 64 q 414 -14 467 -14 q 252 2 346 -14 q 118 38 158 18 l 118 251 l 171 251 q 286 117 219 165 q 421 69 353 69 q 495 93 467 69 q 524 150 524 117 z "},"ś":{"ha":776,"x_min":118,"x_max":681,"o":"m 524 150 q 481 222 524 189 q 349 300 438 254 q 232 365 276 338 q 156 430 188 393 q 125 510 125 467 q 167 617 125 560 q 269 713 208 674 q 383 751 331 751 q 531 735 447 751 q 653 700 615 719 l 653 486 l 600 486 q 497 620 556 572 q 378 668 439 668 q 308 645 335 668 q 282 588 282 622 q 327 510 282 544 q 464 431 372 476 q 578 368 535 394 q 651 306 621 342 q 681 228 681 271 q 637 120 681 176 q 530 25 593 64 q 414 -14 467 -14 q 252 2 346 -14 q 118 38 158 18 l 118 251 l 171 251 q 286 117 219 165 q 421 69 353 69 q 495 93 467 69 q 524 150 524 117 m 681 1179 l 375 939 l 319 967 l 468 1239 l 654 1213 l 681 1179 z "},"š":{"ha":776,"x_min":92,"x_max":714,"o":"m 524 150 q 481 222 524 189 q 349 300 438 254 q 232 365 276 338 q 156 430 188 393 q 125 510 125 467 q 167 617 125 560 q 269 713 208 674 q 383 751 331 751 q 531 735 447 751 q 653 700 615 719 l 653 486 l 600 486 q 497 620 556 572 q 378 668 439 668 q 308 645 335 668 q 282 588 282 622 q 327 510 282 544 q 464 431 372 476 q 578 368 535 394 q 651 306 621 342 q 681 228 681 271 q 637 120 681 176 q 530 25 593 64 q 414 -14 467 -14 q 252 2 346 -14 q 118 38 158 18 l 118 251 l 171 251 q 286 117 219 165 q 421 69 353 69 q 495 93 467 69 q 524 150 524 117 m 407 931 l 92 1179 l 118 1213 l 290 1239 l 453 1053 l 672 1226 l 714 1174 l 407 931 z "},"ş":{"ha":776,"x_min":118,"x_max":682,"o":"m 682 228 q 635 117 682 175 q 524 21 588 58 l 417 -65 q 508 -153 483 -118 q 533 -226 533 -187 q 468 -325 533 -290 q 267 -367 403 -360 l 267 -324 q 396 -201 396 -282 q 376 -147 396 -171 q 306 -92 356 -122 l 400 -14 q 242 4 329 -11 q 118 38 156 19 l 118 251 l 171 251 q 286 117 219 165 q 421 69 353 69 q 495 93 467 69 q 524 150 524 117 q 481 222 524 189 q 349 300 438 254 q 232 365 276 338 q 156 430 188 393 q 125 510 125 467 q 167 617 125 560 q 269 713 208 674 q 383 751 331 751 q 531 735 447 751 q 653 700 615 719 l 653 486 l 600 486 q 497 620 556 572 q 378 668 439 668 q 308 645 335 668 q 282 588 282 622 q 327 510 282 544 q 464 431 372 476 q 578 368 535 394 q 651 306 621 342 q 681 228 681 271 l 682 228 z "},"ș":{"ha":776,"x_min":118,"x_max":681,"o":"m 524 150 q 481 222 524 189 q 349 300 438 254 q 232 365 276 338 q 156 430 188 393 q 125 510 125 467 q 167 617 125 560 q 269 713 208 674 q 383 751 331 751 q 531 735 447 751 q 653 700 615 719 l 653 486 l 600 486 q 497 620 556 572 q 378 668 439 668 q 308 645 335 668 q 282 588 282 622 q 327 510 282 544 q 464 431 372 476 q 578 368 535 394 q 651 306 621 342 q 681 228 681 271 q 637 120 681 176 q 530 25 593 64 q 414 -14 467 -14 q 252 2 346 -14 q 118 38 158 18 l 118 251 l 171 251 q 286 117 219 165 q 421 69 353 69 q 495 93 467 69 q 524 150 524 117 m 549 -158 l 372 -422 l 317 -422 l 353 -250 l 244 -171 l 272 -115 l 549 -115 l 549 -158 z "},"ß":{"ha":1082,"x_min":35,"x_max":986,"o":"m 657 657 q 694 572 657 608 q 807 482 731 535 q 901 411 867 440 q 961 342 936 382 q 986 256 986 303 q 947 136 986 200 q 851 29 907 72 q 747 -14 794 -14 q 607 -2 688 -14 q 493 24 526 10 l 493 238 l 546 238 q 642 114 585 158 q 754 69 699 69 q 808 101 788 69 q 829 178 829 133 q 794 258 829 222 q 683 346 758 293 q 587 419 622 389 q 526 490 551 450 q 500 579 500 531 q 529 673 500 631 q 615 772 558 715 q 685 849 661 817 q 708 915 708 882 q 676 997 708 950 q 594 1076 644 1043 q 494 1110 544 1110 q 398 1053 431 1110 q 365 886 365 996 l 365 0 l 75 0 l 75 43 l 199 140 l 199 639 l 35 639 l 35 696 l 199 696 l 199 819 q 257 1021 199 926 q 403 1171 315 1115 q 575 1226 492 1226 q 696 1191 626 1226 q 815 1101 765 1156 q 865 993 865 1047 q 836 898 865 939 q 751 804 807 857 q 681 727 704 760 q 657 657 657 694 z "},"ſ":{"ha":610,"x_min":35,"x_max":735,"o":"m 576 1226 q 665 1219 615 1226 q 735 1203 714 1211 l 735 989 l 682 989 q 597 1077 647 1044 q 496 1110 547 1110 q 399 1053 432 1110 q 367 886 367 996 l 367 115 l 561 56 l 533 0 l 76 0 l 76 43 l 200 140 l 200 639 l 35 639 l 35 696 l 200 696 l 200 819 q 258 1021 200 926 q 405 1171 317 1115 q 576 1226 493 1226 z "},"t":{"ha":633,"x_min":22,"x_max":613,"o":"m 472 -3 q 394 -14 440 -14 q 226 47 279 -14 q 172 233 172 107 l 172 639 l 22 639 l 22 696 l 286 1003 l 339 1003 l 339 696 l 589 696 l 589 639 l 339 639 l 339 217 q 447 104 339 104 q 503 117 476 104 q 571 161 531 129 l 613 108 l 472 -3 z "},"ŧ":{"ha":633,"x_min":22,"x_max":613,"o":"m 472 -3 q 394 -14 440 -14 q 226 47 279 -14 q 172 233 172 107 l 172 639 l 22 639 l 22 696 l 286 1003 l 339 1003 l 339 696 l 589 696 l 589 639 l 339 639 l 339 217 q 447 104 339 104 q 503 117 476 104 q 571 161 531 129 l 613 108 l 472 -3 m 306 522 l 306 522 l 306 522 l 306 522 l 306 522 z "},"ť":{"ha":633,"x_min":22,"x_max":669,"o":"m 669 1004 l 503 793 l 450 835 q 501 938 483 885 q 518 1036 518 990 q 517 1060 518 1053 l 461 1108 l 461 1151 l 617 1213 l 669 1213 l 669 1004 m 447 104 q 503 117 476 104 q 571 161 531 129 l 613 108 l 472 -3 q 394 -14 440 -14 q 226 47 279 -14 q 172 233 172 107 l 172 639 l 22 639 l 22 696 l 286 1003 l 339 1003 l 339 696 l 589 696 l 589 639 l 339 639 l 339 217 q 447 104 339 104 z "},"ţ":{"ha":633,"x_min":22,"x_max":613,"o":"m 397 -64 q 489 -151 464 -117 q 514 -225 514 -186 q 449 -324 514 -289 q 247 -365 383 -358 l 247 -322 q 376 -200 376 -281 q 356 -145 376 -169 q 286 -90 336 -121 l 381 -12 q 222 51 272 -10 q 172 233 172 111 l 172 639 l 22 639 l 22 696 l 286 1003 l 339 1003 l 339 696 l 589 696 l 589 639 l 339 639 l 339 217 q 447 104 339 104 q 503 117 476 104 q 571 161 531 129 l 613 108 l 540 51 q 438 -32 488 7 q 397 -65 421 -47 l 397 -64 z "},"ț":{"ha":633,"x_min":22,"x_max":613,"o":"m 472 -3 q 394 -14 440 -14 q 226 47 279 -14 q 172 233 172 107 l 172 639 l 22 639 l 22 696 l 286 1003 l 339 1003 l 339 696 l 589 696 l 589 639 l 339 639 l 339 217 q 447 104 339 104 q 503 117 476 104 q 571 161 531 129 l 613 108 l 472 -3 m 529 -158 l 353 -422 l 297 -422 l 333 -250 l 225 -171 l 253 -115 l 529 -115 l 529 -158 z "},"u":{"ha":971,"x_min":49,"x_max":922,"o":"m 894 0 l 631 0 l 631 144 l 454 -3 q 378 -14 425 -14 q 228 44 283 -14 q 172 200 172 101 l 172 532 l 49 604 l 49 647 l 286 764 l 339 764 l 339 269 q 363 163 339 193 q 447 132 386 132 q 532 148 490 132 q 631 211 574 164 l 631 532 l 507 604 l 507 647 l 744 764 l 797 764 l 797 104 l 922 56 l 894 0 z "},"ú":{"ha":971,"x_min":49,"x_max":922,"o":"m 894 0 l 631 0 l 631 144 l 454 -3 q 378 -14 425 -14 q 228 44 283 -14 q 172 200 172 101 l 172 532 l 49 604 l 49 647 l 286 764 l 339 764 l 339 269 q 363 163 339 193 q 447 132 386 132 q 532 148 490 132 q 631 211 574 164 l 631 532 l 507 604 l 507 647 l 744 764 l 797 764 l 797 104 l 922 56 l 894 0 m 771 1179 l 465 939 l 410 967 l 558 1239 l 744 1213 l 771 1179 z "},"û":{"ha":971,"x_min":49,"x_max":922,"o":"m 894 0 l 631 0 l 631 144 l 454 -3 q 378 -14 425 -14 q 228 44 283 -14 q 172 200 172 101 l 172 532 l 49 604 l 49 647 l 286 764 l 339 764 l 339 269 q 363 163 339 193 q 447 132 386 132 q 532 148 490 132 q 631 211 574 164 l 631 532 l 507 604 l 507 647 l 744 764 l 797 764 l 797 104 l 922 56 l 894 0 m 778 944 l 606 918 l 443 1104 l 224 931 l 182 983 l 489 1226 l 804 978 l 778 944 z "},"ü":{"ha":971,"x_min":49,"x_max":922,"o":"m 292 958 q 230 988 254 958 q 206 1060 206 1017 q 223 1117 206 1090 q 267 1159 240 1143 q 318 1175 293 1175 q 380 1146 356 1175 q 404 1074 404 1117 q 387 1017 404 1043 q 343 974 369 990 q 292 958 317 958 m 667 958 q 605 988 629 958 q 581 1060 581 1017 q 598 1117 581 1090 q 642 1159 615 1143 q 693 1175 668 1175 q 755 1146 731 1175 q 779 1074 779 1117 q 762 1017 779 1043 q 718 974 744 990 q 667 958 692 958 m 894 0 l 631 0 l 631 144 l 454 -3 q 378 -14 425 -14 q 228 44 283 -14 q 172 200 172 101 l 172 532 l 49 604 l 49 647 l 286 764 l 339 764 l 339 269 q 363 163 339 193 q 447 132 386 132 q 532 148 490 132 q 631 211 574 164 l 631 532 l 507 604 l 507 647 l 744 764 l 797 764 l 797 104 l 922 56 l 894 0 z "},"ù":{"ha":971,"x_min":49,"x_max":922,"o":"m 894 0 l 631 0 l 631 144 l 454 -3 q 378 -14 425 -14 q 228 44 283 -14 q 172 200 172 101 l 172 532 l 49 604 l 49 647 l 286 764 l 339 764 l 339 269 q 363 163 339 193 q 447 132 386 132 q 532 148 490 132 q 631 211 574 164 l 631 532 l 507 604 l 507 647 l 744 764 l 797 764 l 797 104 l 922 56 l 894 0 m 522 939 l 217 1179 l 243 1213 l 429 1239 l 578 967 l 522 939 z "},"ű":{"ha":971,"x_min":49,"x_max":922,"o":"m 894 0 l 631 0 l 631 144 l 454 -3 q 378 -14 425 -14 q 228 44 283 -14 q 172 200 172 101 l 172 532 l 49 604 l 49 647 l 286 764 l 339 764 l 339 269 q 363 163 339 193 q 447 132 386 132 q 532 148 490 132 q 631 211 574 164 l 631 532 l 507 604 l 507 647 l 744 764 l 797 764 l 797 104 l 922 56 l 894 0 m 542 1179 l 292 939 l 236 967 l 339 1239 l 515 1213 l 542 1179 m 889 1179 l 639 939 l 583 967 l 686 1239 l 863 1213 l 889 1179 z "},"ū":{"ha":971,"x_min":49,"x_max":922,"o":"m 894 0 l 631 0 l 631 144 l 454 -3 q 378 -14 425 -14 q 228 44 283 -14 q 172 200 172 101 l 172 532 l 49 604 l 49 647 l 286 764 l 339 764 l 339 269 q 363 163 339 193 q 447 132 386 132 q 532 148 490 132 q 631 211 574 164 l 631 532 l 507 604 l 507 647 l 744 764 l 797 764 l 797 104 l 922 56 l 894 0 m 203 1103 l 783 1103 l 783 1040 l 203 1040 l 203 1103 z "},"ų":{"ha":971,"x_min":49,"x_max":922,"o":"m 894 0 q 805 -94 832 -57 q 778 -162 778 -132 q 793 -201 778 -187 q 842 -222 808 -215 l 842 -275 l 726 -367 q 604 -211 604 -321 q 615 -156 604 -181 l 811 0 l 631 0 l 631 144 l 454 -3 q 378 -14 425 -14 q 228 44 283 -14 q 172 200 172 101 l 172 532 l 49 604 l 49 647 l 286 764 l 339 764 l 339 269 q 363 163 339 193 q 447 132 386 132 q 532 148 490 132 q 631 211 574 164 l 631 532 l 507 604 l 507 647 l 744 764 l 797 764 l 797 104 l 922 56 l 894 0 z "},"ů":{"ha":971,"x_min":49,"x_max":922,"o":"m 894 0 l 631 0 l 631 144 l 454 -3 q 378 -14 425 -14 q 228 44 283 -14 q 172 200 172 101 l 172 532 l 49 604 l 49 647 l 286 764 l 339 764 l 339 269 q 363 163 339 193 q 447 132 386 132 q 532 148 490 132 q 631 211 574 164 l 631 532 l 507 604 l 507 647 l 744 764 l 797 764 l 797 104 l 922 56 l 894 0 m 542 1226 q 651 1187 607 1226 q 694 1090 694 1147 q 656 999 694 1042 q 558 931 617 957 q 443 906 500 906 q 335 945 379 906 q 290 1042 290 985 q 329 1133 290 1090 q 426 1201 368 1175 q 542 1226 485 1226 m 461 1165 q 406 1151 425 1165 q 388 1108 388 1136 q 423 1007 388 1047 q 524 967 458 967 q 578 982 560 967 q 597 1025 597 997 q 562 1126 597 1086 q 461 1165 526 1165 z "},"v":{"ha":861,"x_min":7,"x_max":810,"o":"m 810 694 l 458 0 l 353 0 l 136 529 l 7 604 l 7 647 l 244 764 l 297 554 l 467 140 l 663 547 l 478 682 l 506 738 l 810 738 l 810 694 z "},"w":{"ha":1249,"x_min":8,"x_max":1199,"o":"m 1199 694 l 889 0 l 783 0 l 639 354 l 460 0 l 354 0 l 138 529 l 8 604 l 8 647 l 246 764 l 299 554 l 468 142 l 604 435 l 565 529 l 436 604 l 436 647 l 674 764 l 726 554 l 892 153 l 1058 542 l 865 682 l 893 738 l 1199 738 l 1199 694 z "},"ẃ":{"ha":1249,"x_min":8,"x_max":1199,"o":"m 1199 694 l 889 0 l 783 0 l 639 354 l 460 0 l 354 0 l 138 529 l 8 604 l 8 647 l 246 764 l 299 554 l 468 142 l 604 435 l 565 529 l 436 604 l 436 647 l 674 764 l 726 554 l 892 153 l 1058 542 l 865 682 l 893 738 l 1199 738 l 1199 694 m 903 1179 l 597 939 l 542 967 l 690 1239 l 876 1213 l 903 1179 z "},"ŵ":{"ha":1249,"x_min":8,"x_max":1199,"o":"m 1199 694 l 889 0 l 783 0 l 639 354 l 460 0 l 354 0 l 138 529 l 8 604 l 8 647 l 246 764 l 299 554 l 468 142 l 604 435 l 565 529 l 436 604 l 436 647 l 674 764 l 726 554 l 892 153 l 1058 542 l 865 682 l 893 738 l 1199 738 l 1199 694 m 910 944 l 738 918 l 575 1104 l 356 931 l 314 983 l 621 1226 l 936 978 l 910 944 z "},"ẅ":{"ha":1249,"x_min":8,"x_max":1199,"o":"m 424 958 q 362 988 386 958 q 338 1060 338 1017 q 355 1117 338 1090 q 399 1159 372 1143 q 450 1175 425 1175 q 512 1146 488 1175 q 536 1074 536 1117 q 519 1017 536 1043 q 475 974 501 990 q 424 958 449 958 m 799 958 q 737 988 761 958 q 713 1060 713 1017 q 730 1117 713 1090 q 774 1159 747 1143 q 825 1175 800 1175 q 887 1146 863 1175 q 911 1074 911 1117 q 894 1017 911 1043 q 850 974 876 990 q 799 958 824 958 m 1199 694 l 889 0 l 783 0 l 639 354 l 460 0 l 354 0 l 138 529 l 8 604 l 8 647 l 246 764 l 299 554 l 468 142 l 604 435 l 565 529 l 436 604 l 436 647 l 674 764 l 726 554 l 892 153 l 1058 542 l 865 682 l 893 738 l 1199 738 l 1199 694 z "},"ẁ":{"ha":1249,"x_min":8,"x_max":1199,"o":"m 1199 694 l 889 0 l 783 0 l 639 354 l 460 0 l 354 0 l 138 529 l 8 604 l 8 647 l 246 764 l 299 554 l 468 142 l 604 435 l 565 529 l 436 604 l 436 647 l 674 764 l 726 554 l 892 153 l 1058 542 l 865 682 l 893 738 l 1199 738 l 1199 694 m 654 939 l 349 1179 l 375 1213 l 561 1239 l 710 967 l 654 939 z "},"x":{"ha":858,"x_min":21,"x_max":836,"o":"m 808 0 l 601 0 l 383 292 l 229 147 l 358 54 l 331 -1 l 26 -1 l 26 42 l 344 344 l 143 606 l 21 682 l 49 738 l 256 738 l 471 450 l 619 589 l 490 682 l 518 738 l 822 738 l 822 694 l 510 397 l 713 133 l 836 56 l 808 0 z "},"y":{"ha":861,"x_min":7,"x_max":810,"o":"m 810 694 l 458 0 l 169 -367 l 117 -325 q 237 -176 196 -240 q 294 -48 278 -112 q 311 106 311 17 l 136 529 l 7 604 l 7 647 l 244 764 l 297 554 l 467 140 l 663 547 l 478 682 l 506 738 l 810 738 l 810 694 z "},"ý":{"ha":861,"x_min":7,"x_max":810,"o":"m 810 694 l 458 0 l 169 -367 l 117 -325 q 237 -176 196 -240 q 294 -48 278 -112 q 311 106 311 17 l 136 529 l 7 604 l 7 647 l 244 764 l 297 554 l 467 140 l 663 547 l 478 682 l 506 738 l 810 738 l 810 694 m 694 1179 l 389 939 l 333 967 l 482 1239 l 668 1213 l 694 1179 z "},"ŷ":{"ha":861,"x_min":7,"x_max":810,"o":"m 810 694 l 458 0 l 169 -367 l 117 -325 q 237 -176 196 -240 q 294 -48 278 -112 q 311 106 311 17 l 136 529 l 7 604 l 7 647 l 244 764 l 297 554 l 467 140 l 663 547 l 478 682 l 506 738 l 810 738 l 810 694 m 701 944 l 529 918 l 367 1104 l 147 931 l 106 983 l 413 1226 l 728 978 l 701 944 z "},"ÿ":{"ha":861,"x_min":7,"x_max":810,"o":"m 215 958 q 153 988 178 958 q 129 1060 129 1017 q 147 1117 129 1090 q 190 1159 164 1143 q 242 1175 217 1175 q 303 1146 279 1175 q 328 1074 328 1117 q 310 1017 328 1043 q 267 974 293 990 q 215 958 240 958 m 590 958 q 528 988 553 958 q 504 1060 504 1017 q 522 1117 504 1090 q 565 1159 539 1143 q 617 1175 592 1175 q 678 1146 654 1175 q 703 1074 703 1117 q 685 1017 703 1043 q 642 974 668 990 q 590 958 615 958 m 810 694 l 458 0 l 169 -367 l 117 -325 q 237 -176 196 -240 q 294 -48 278 -112 q 311 106 311 17 l 136 529 l 7 604 l 7 647 l 244 764 l 297 554 l 467 140 l 663 547 l 478 682 l 506 738 l 810 738 l 810 694 z "},"ỳ":{"ha":861,"x_min":7,"x_max":810,"o":"m 810 694 l 458 0 l 169 -367 l 117 -325 q 237 -176 196 -240 q 294 -48 278 -112 q 311 106 311 17 l 136 529 l 7 604 l 7 647 l 244 764 l 297 554 l 467 140 l 663 547 l 478 682 l 506 738 l 810 738 l 810 694 m 446 939 l 140 1179 l 167 1213 l 353 1239 l 501 967 l 446 939 z "},"z":{"ha":849,"x_min":97,"x_max":751,"o":"m 632 167 l 692 281 l 733 267 l 733 -25 l 657 0 l 97 0 l 97 53 l 564 571 l 213 571 l 157 471 l 115 485 l 115 763 l 192 738 l 751 738 l 751 685 l 288 167 l 632 167 z "},"ź":{"ha":849,"x_min":97,"x_max":751,"o":"m 632 167 l 692 281 l 733 267 l 733 -25 l 657 0 l 97 0 l 97 53 l 564 571 l 213 571 l 157 471 l 115 485 l 115 763 l 192 738 l 751 738 l 751 685 l 288 167 l 632 167 m 710 1179 l 404 939 l 349 967 l 497 1239 l 683 1213 l 710 1179 z "},"ž":{"ha":849,"x_min":97,"x_max":751,"o":"m 632 167 l 692 281 l 733 267 l 733 -25 l 657 0 l 97 0 l 97 53 l 564 571 l 213 571 l 157 471 l 115 485 l 115 763 l 192 738 l 751 738 l 751 685 l 288 167 l 632 167 m 436 931 l 121 1179 l 147 1213 l 319 1239 l 482 1053 l 701 1226 l 743 1174 l 436 931 z "},"ż":{"ha":849,"x_min":97,"x_max":751,"o":"m 632 167 l 692 281 l 733 267 l 733 -25 l 657 0 l 97 0 l 97 53 l 564 571 l 213 571 l 157 471 l 115 485 l 115 763 l 192 738 l 751 738 l 751 685 l 288 167 l 632 167 m 446 1181 q 515 1150 488 1181 q 542 1074 542 1119 q 522 1013 542 1042 q 474 968 503 985 q 417 951 444 951 q 348 982 375 951 q 321 1058 321 1013 q 340 1119 321 1090 q 389 1164 360 1147 q 446 1181 418 1181 z "},"ﬁ":{"ha":1079,"x_min":35,"x_max":1031,"o":"m 1003 0 l 739 0 l 739 553 l 625 639 l 365 639 l 365 115 l 560 56 l 532 0 l 75 0 l 75 43 l 199 140 l 199 639 l 35 639 l 35 696 l 199 696 l 199 819 q 257 1021 199 926 q 403 1171 315 1115 q 575 1226 492 1226 q 736 1208 646 1226 q 858 1169 826 1189 q 899 1129 886 1154 q 913 1074 913 1104 q 893 1013 913 1042 q 844 968 874 985 q 788 951 815 951 q 703 1008 731 951 q 656 1074 681 1053 q 596 1102 632 1094 q 494 1110 560 1110 q 398 1053 431 1110 q 365 886 365 996 l 365 696 l 638 696 l 853 764 l 906 764 l 906 104 l 1031 56 l 1003 0 z "},"ﬂ":{"ha":1079,"x_min":35,"x_max":1029,"o":"m 1001 0 l 738 0 l 738 1032 q 647 1088 706 1067 q 536 1110 589 1110 q 414 1051 463 1110 q 365 886 365 992 l 365 696 l 615 696 l 615 639 l 365 639 l 365 115 l 560 56 l 532 0 l 75 0 l 75 43 l 199 140 l 199 639 l 35 639 l 35 696 l 199 696 l 199 819 q 266 1020 199 926 q 435 1170 333 1114 q 631 1226 536 1226 q 853 1213 722 1226 l 906 1213 l 906 104 l 1029 56 l 1001 0 z "},"ª":{"ha":751,"x_min":83,"x_max":717,"o":"m 692 576 l 468 576 l 468 667 l 335 574 q 276 566 311 566 q 129 611 174 566 q 83 718 83 656 q 114 792 83 756 q 201 861 145 828 l 468 861 l 468 927 q 427 1023 468 995 q 316 1051 387 1051 q 136 973 243 1051 l 101 1013 l 271 1132 q 384 1140 318 1140 q 551 1094 492 1140 q 610 959 610 1047 l 610 655 l 716 618 l 692 576 m 314 655 q 468 713 386 655 l 468 818 l 259 818 q 237 785 244 801 q 231 748 231 768 q 253 682 231 710 q 314 655 276 655 z "},"º":{"ha":821,"x_min":96,"x_max":724,"o":"m 452 1140 q 592 1104 530 1140 q 689 1007 654 1068 q 723 871 723 945 q 668 721 723 791 q 529 608 612 650 q 368 566 446 566 q 228 602 290 566 q 131 699 166 638 q 97 835 97 761 q 152 985 97 915 q 291 1098 207 1056 q 452 1140 374 1140 m 383 1052 q 250 885 250 1052 q 298 720 250 786 q 437 653 347 653 q 570 822 570 653 q 522 986 570 920 q 383 1052 473 1052 z "},"Δ":{"ha":1204,"x_min":83,"x_max":1107,"o":"m 1107 0 l 83 0 l 83 43 l 522 1047 l 667 1118 l 1107 56 l 1107 0 m 557 951 l 172 63 l 926 63 l 557 951 z "},"Ω":{"ha":1290,"x_min":97,"x_max":1193,"o":"m 1165 239 l 1165 -25 l 1090 0 l 693 0 l 693 368 q 852 408 781 371 q 965 506 924 444 q 1006 643 1006 568 q 963 826 1006 744 q 833 955 921 907 q 614 1003 744 1003 q 447 967 522 1003 q 328 867 371 931 q 285 726 285 804 q 364 490 285 590 q 597 368 443 390 l 597 0 l 200 0 l 125 -25 l 125 239 l 167 253 l 351 63 l 451 63 l 451 263 q 267 341 347 285 q 142 480 188 397 q 97 660 97 563 q 192 890 97 783 q 427 1058 286 996 q 694 1119 568 1119 q 955 1066 842 1119 q 1131 919 1068 1013 q 1193 708 1193 825 q 1144 540 1193 619 q 1013 399 1094 460 q 839 301 932 338 l 839 63 l 939 63 l 1124 253 l 1165 239 z "},"μ":{"ha":967,"x_min":97,"x_max":883,"o":"m 803 251 q 825 168 803 214 q 883 82 847 122 l 689 -14 l 636 -14 l 636 144 l 460 -3 q 383 -14 431 -14 q 344 -11 369 -14 l 344 -87 q 366 -170 343 -124 q 425 -257 389 -217 l 231 -353 l 178 -353 l 178 499 q 156 581 179 535 q 97 668 133 628 l 292 764 l 344 764 l 344 269 q 368 163 344 193 q 453 132 392 132 q 538 148 496 132 q 636 211 579 164 l 636 499 q 614 582 636 536 q 556 668 592 628 l 750 764 l 803 764 l 803 251 z "},"π":{"ha":1092,"x_min":0,"x_max":1008,"o":"m 824 238 q 846 154 824 200 q 904 68 868 108 l 738 -14 l 685 -14 l 685 569 l 461 569 l 461 0 l 242 0 l 242 43 q 300 129 278 83 q 322 213 322 175 l 322 569 l 253 569 q 42 515 161 569 l 0 568 l 214 738 l 1008 738 l 1008 569 l 824 569 l 824 238 z "},"ॲ":{"ha":1408,"x_min":122,"x_max":1665,"o":"m 1311 956 l 1311 -11 l 1258 -11 l 1101 128 l 1144 178 l 1144 465 q 1051 413 1099 429 q 943 397 1003 397 q 796 428 869 397 q 799 403 799 411 q 761 303 800 353 q 661 222 722 254 q 536 190 600 190 q 479 194 513 190 q 429 201 446 197 l 122 472 l 167 525 l 243 458 q 485 339 379 339 q 592 375 550 342 q 635 458 635 408 q 588 549 635 500 q 433 664 540 597 l 433 717 q 547 797 508 750 q 586 899 586 843 q 567 960 586 939 q 514 982 549 982 q 403 948 468 982 q 272 854 339 914 l 175 940 l 175 993 q 303 1077 238 1047 q 426 1107 369 1107 q 574 1062 497 1107 q 701 949 650 1017 q 753 819 753 881 q 716 707 753 761 q 617 618 679 653 q 683 569 649 597 q 774 520 733 535 q 853 506 815 506 q 993 549 926 506 q 1144 699 1060 593 l 1144 953 l 917 953 l 819 1039 l 819 1092 l 1436 1092 l 1533 1006 l 1533 956 l 1311 956 m 1008 1622 q 997 1532 997 1569 q 1047 1442 997 1471 q 1196 1413 1096 1413 q 1390 1474 1314 1413 q 1485 1643 1465 1535 l 1539 1690 l 1665 1578 q 1599 1434 1653 1499 q 1462 1333 1546 1369 q 1276 1296 1378 1296 q 1058 1338 1165 1296 q 884 1448 951 1381 q 817 1585 817 1515 q 828 1689 817 1638 l 872 1740 l 1008 1622 z "},"ऄ":{"ha":1408,"x_min":-210,"x_max":1533,"o":"m 1311 956 l 1311 -11 l 1258 -11 l 1101 128 l 1144 178 l 1144 465 q 1051 413 1099 429 q 943 397 1003 397 q 796 428 869 397 q 799 403 799 411 q 761 303 800 353 q 661 222 722 254 q 536 190 600 190 q 479 194 513 190 q 429 201 446 197 l 122 472 l 167 525 l 243 458 q 485 339 379 339 q 592 375 550 342 q 635 458 635 408 q 588 549 635 500 q 433 664 540 597 l 433 717 q 547 797 508 750 q 586 899 586 843 q 567 960 586 939 q 514 982 549 982 q 403 948 468 982 q 272 854 339 914 l 175 940 l 175 993 q 303 1077 238 1047 q 426 1107 369 1107 q 574 1062 497 1107 q 701 949 650 1017 q 753 819 753 881 q 716 707 753 761 q 617 618 679 653 q 683 569 649 597 q 774 520 733 535 q 853 506 815 506 q 993 549 926 506 q 1144 699 1060 593 l 1144 953 l 917 953 l 819 1039 l 819 1092 l 1146 1092 l 928 1281 q 811 1352 871 1329 q 676 1375 751 1375 q 602 1371 635 1375 q 525 1358 569 1367 q 368 1340 440 1340 q 194 1373 268 1340 q 14 1496 119 1406 l -210 1686 l -165 1739 l 31 1572 q 148 1501 88 1525 q 282 1478 208 1478 q 356 1482 324 1478 q 433 1494 389 1486 q 590 1513 518 1513 q 766 1480 692 1513 q 944 1357 840 1447 l 1251 1092 l 1436 1092 l 1533 1006 l 1533 956 l 1311 956 z "},"अ":{"ha":1408,"x_min":122,"x_max":1533,"o":"m 1311 956 l 1311 -11 l 1258 -11 l 1101 128 l 1144 178 l 1144 465 q 1051 413 1099 429 q 943 397 1003 397 q 796 428 869 397 q 799 403 799 411 q 761 303 800 353 q 661 222 722 254 q 536 190 600 190 q 479 194 513 190 q 429 201 446 197 l 122 472 l 167 525 l 243 458 q 485 339 379 339 q 592 375 550 342 q 635 458 635 408 q 588 549 635 500 q 433 664 540 597 l 433 717 q 547 797 508 750 q 586 899 586 843 q 567 960 586 939 q 514 982 549 982 q 403 948 468 982 q 272 854 339 914 l 175 940 l 175 993 q 303 1077 238 1047 q 426 1107 369 1107 q 574 1062 497 1107 q 701 949 650 1017 q 753 819 753 881 q 716 707 753 761 q 617 618 679 653 q 683 569 649 597 q 774 520 733 535 q 853 506 815 506 q 993 549 926 506 q 1144 699 1060 593 l 1144 953 l 917 953 l 819 1039 l 819 1092 l 1436 1092 l 1533 1006 l 1533 956 l 1311 956 z "},"आ":{"ha":1864,"x_min":122,"x_max":1989,"o":"m 1767 956 l 1767 -11 l 1714 -11 l 1557 128 l 1600 178 l 1600 956 l 1311 956 l 1311 -11 l 1258 -11 l 1101 128 l 1144 178 l 1144 465 q 1051 413 1099 429 q 943 397 1003 397 q 796 428 869 397 q 799 403 799 411 q 761 303 800 353 q 661 222 722 254 q 536 190 600 190 q 479 194 513 190 q 429 201 446 197 l 122 472 l 167 525 l 243 458 q 485 339 379 339 q 592 375 550 342 q 635 458 635 408 q 588 549 635 500 q 433 664 540 597 l 433 717 q 547 797 508 750 q 586 899 586 843 q 567 960 586 939 q 514 982 549 982 q 403 948 468 982 q 272 854 339 914 l 175 940 l 175 993 q 303 1077 238 1047 q 426 1107 369 1107 q 574 1062 497 1107 q 701 949 650 1017 q 753 819 753 881 q 716 707 753 761 q 617 618 679 653 q 683 569 649 597 q 774 520 733 535 q 853 506 815 506 q 993 549 926 506 q 1144 699 1060 593 l 1144 953 l 917 953 l 819 1039 l 819 1092 l 1892 1092 l 1989 1006 l 1989 956 l 1767 956 z "},"इ":{"ha":990,"x_min":-56,"x_max":1206,"o":"m 543 694 q 426 658 474 694 q 379 568 379 621 q 397 520 379 542 q 458 474 414 499 q 558 528 518 511 q 629 544 599 544 q 784 495 703 544 q 919 373 865 446 q 974 232 974 300 q 908 122 974 181 q 744 25 842 64 q 557 -14 646 -14 q 463 -3 514 -14 l 611 -135 q 727 -206 667 -183 q 863 -229 788 -229 q 1011 -211 926 -229 l 1108 -297 l 1108 -350 q 949 -367 1028 -367 q 772 -334 847 -367 q 594 -211 697 -301 l 236 106 q 138 213 174 156 q 101 326 101 271 q 120 396 101 374 q 167 418 139 418 q 364 175 265 418 q 531 135 435 135 q 661 160 596 135 q 768 227 726 186 q 810 308 810 268 q 783 365 810 338 q 725 392 756 392 q 558 332 660 392 q 403 392 485 340 q 268 515 322 444 q 214 644 214 586 q 247 738 214 694 q 335 808 279 782 q 454 833 390 833 l 678 833 l 678 953 l 42 953 l -56 1039 l -56 1092 l 1108 1092 l 1206 1006 l 1206 953 l 844 953 l 844 694 l 543 694 z "},"ई":{"ha":990,"x_min":-56,"x_max":1206,"o":"m 543 694 q 426 658 474 694 q 379 568 379 621 q 397 520 379 542 q 458 474 414 499 q 558 528 518 511 q 629 544 599 544 q 784 495 703 544 q 919 373 865 446 q 974 232 974 300 q 908 122 974 181 q 744 25 842 64 q 557 -14 646 -14 q 463 -3 514 -14 l 611 -135 q 727 -206 667 -183 q 863 -229 788 -229 q 1011 -211 926 -229 l 1108 -297 l 1108 -350 q 949 -367 1028 -367 q 772 -334 847 -367 q 594 -211 697 -301 l 236 106 q 138 213 174 156 q 101 326 101 271 q 120 396 101 374 q 167 418 139 418 q 364 175 265 418 q 531 135 435 135 q 661 160 596 135 q 768 227 726 186 q 810 308 810 268 q 783 365 810 338 q 725 392 756 392 q 558 332 660 392 q 403 392 485 340 q 268 515 322 444 q 214 644 214 586 q 247 738 214 694 q 335 808 279 782 q 454 833 390 833 l 678 833 l 678 953 l 42 953 l -56 1039 l -56 1092 l 696 1092 l 449 1304 q 438 1426 438 1358 q 479 1595 438 1524 q 597 1706 521 1667 q 772 1744 672 1744 q 890 1735 833 1744 l 1104 1567 l 1063 1514 q 928 1590 986 1567 q 813 1614 869 1614 q 671 1551 724 1614 q 618 1386 618 1489 q 726 1154 618 1247 l 799 1092 l 1108 1092 l 1206 1006 l 1206 953 l 844 953 l 844 694 l 543 694 z "},"उ":{"ha":839,"x_min":-97,"x_max":936,"o":"m 589 953 q 658 858 633 908 q 683 758 683 808 q 642 635 683 689 q 528 556 600 581 q 863 208 863 364 q 815 106 863 158 q 697 20 768 54 q 557 -14 625 -14 q 438 -3 482 -14 l 46 343 l 90 396 l 244 260 q 385 164 321 193 q 526 135 450 135 q 609 155 569 135 q 674 208 649 175 q 699 275 699 240 q 664 358 699 317 q 546 455 629 400 q 308 593 463 510 l 308 646 q 398 685 353 654 q 473 756 443 717 q 503 828 503 796 q 447 953 503 921 l 0 953 l -97 1039 l -97 1092 l 839 1092 l 936 1006 l 936 953 l 589 953 z "},"ऊ":{"ha":1474,"x_min":-97,"x_max":1557,"o":"m 589 951 q 658 857 633 907 q 683 757 683 807 q 642 633 683 688 q 528 554 600 579 l 592 517 l 621 553 q 719 667 678 626 q 821 735 761 708 q 965 761 881 761 q 1137 717 1049 761 q 1283 597 1225 672 q 1342 438 1342 522 q 1306 327 1342 378 q 1206 247 1269 276 q 1064 218 1143 218 l 967 304 l 967 357 q 1015 353 992 353 q 1123 396 1085 353 q 1161 504 1161 439 q 1133 613 1161 575 q 1049 650 1106 650 q 940 627 988 650 q 853 567 892 604 q 749 457 814 529 q 721 425 747 456 q 863 208 863 308 q 815 106 863 158 q 697 20 768 54 q 557 -14 625 -14 q 438 -3 482 -14 l 46 343 l 90 396 l 244 260 q 385 164 321 193 q 526 135 450 135 q 609 155 569 135 q 674 208 649 175 q 699 275 699 240 q 664 358 699 317 q 546 455 629 400 q 308 593 463 510 l 308 646 q 398 685 353 654 q 473 756 443 717 q 503 828 503 796 q 447 953 503 921 l 0 953 l -97 1039 l -97 1092 l 1460 1092 l 1557 1006 l 1557 953 l 589 951 z "},"ऋ":{"ha":1729,"x_min":-97,"x_max":1831,"o":"m 883 624 q 951 619 913 619 q 1086 650 1025 619 q 1133 763 1100 713 q 1206 840 1165 813 q 1283 868 1247 868 q 1391 840 1331 868 q 1494 768 1451 811 q 1536 686 1536 725 q 1472 607 1536 636 q 1281 554 1407 578 q 1375 408 1292 488 l 1417 372 l 1417 319 q 1368 324 1392 324 q 1260 281 1299 324 q 1222 172 1222 238 q 1250 64 1222 101 q 1335 26 1278 26 q 1449 79 1392 26 q 1553 219 1506 132 l 1650 133 l 1650 81 q 1554 -44 1607 -3 q 1418 -85 1501 -85 q 1247 -40 1335 -85 q 1100 79 1158 4 q 1042 239 1042 154 q 1069 337 1042 292 q 1147 413 1097 382 q 1093 513 1111 461 q 1035 510 1057 510 q 883 540 963 510 l 883 -15 l 831 -15 l 674 124 l 717 174 l 717 453 q 371 228 538 318 l 274 314 l 274 367 q 589 564 419 439 l 582 569 q 519 612 546 600 q 465 624 492 624 q 338 590 400 624 q 151 463 276 556 l 54 549 l 54 601 q 240 715 167 681 q 368 749 313 749 q 473 730 428 749 q 592 650 518 711 l 644 606 q 715 664 682 635 l 715 953 l 0 953 l -97 1039 l -97 1092 l 1733 1092 l 1831 1006 l 1831 953 l 889 953 l 883 951 l 883 624 z "},"ॠ":{"ha":1729,"x_min":-97,"x_max":1831,"o":"m 885 626 q 953 622 914 622 q 1088 653 1026 622 q 1134 765 1101 715 q 1208 843 1167 815 q 1285 871 1249 871 q 1392 842 1332 871 q 1495 771 1453 814 q 1538 689 1538 728 q 1473 610 1538 639 q 1282 557 1408 581 q 1328 463 1289 514 l 1365 463 l 1463 376 l 1463 324 q 1388 333 1425 333 q 1274 300 1315 333 q 1232 221 1233 267 q 1247 176 1232 197 q 1392 196 1314 196 l 1485 124 l 1485 71 q 1309 37 1372 69 q 1246 -56 1246 4 q 1361 -112 1246 -112 q 1468 -83 1415 -111 q 1558 -6 1521 -54 l 1656 -92 l 1656 -144 q 1560 -198 1613 -181 q 1456 -215 1507 -215 q 1278 -180 1367 -215 q 1135 -88 1190 -144 q 1079 25 1079 -32 q 1103 92 1079 61 q 1172 147 1128 124 q 1094 213 1124 176 q 1065 288 1065 250 q 1146 415 1065 367 q 1093 513 1110 465 q 1035 510 1057 510 q 883 540 963 510 l 883 -15 l 831 -15 l 674 124 l 717 174 l 717 453 q 371 228 538 318 l 274 314 l 274 367 q 589 564 419 439 l 582 569 q 519 612 546 600 q 465 624 492 624 q 338 590 400 624 q 151 463 276 556 l 54 549 l 54 601 q 240 715 167 681 q 368 749 313 749 q 473 730 428 749 q 592 650 518 711 l 644 606 q 715 664 682 635 l 715 953 l 0 953 l -97 1039 l -97 1092 l 1733 1092 l 1831 1006 l 1831 953 l 889 953 l 885 954 l 885 626 z "},"ऌ":{"ha":1276,"x_min":-83,"x_max":1360,"o":"m 919 728 q 1079 608 1014 685 q 1144 454 1144 532 q 1118 388 1144 419 q 1035 306 1092 357 q 928 198 965 246 q 890 92 890 150 q 971 -19 890 -19 q 1138 146 1056 -19 l 1249 60 l 1249 7 q 1167 -94 1214 -58 q 1063 -131 1119 -131 q 901 -87 982 -131 q 769 24 821 -43 q 717 157 717 92 q 749 249 717 206 q 846 351 782 292 q 935 447 906 408 q 964 525 964 485 q 934 616 964 579 q 849 653 904 653 q 749 615 789 653 q 665 511 708 578 l 643 479 l 546 565 l 546 610 q 467 653 524 653 q 356 603 397 653 q 315 486 315 554 q 340 396 315 439 q 424 303 364 353 l 542 201 l 497 150 l 146 453 q 135 542 135 492 q 167 653 135 603 q 257 734 200 704 q 383 764 314 764 q 497 744 439 764 q 607 690 556 725 q 670 742 636 724 q 753 763 704 761 l 753 953 l 14 953 l -83 1039 l -83 1092 l 1263 1092 l 1360 1006 l 1360 953 l 919 954 l 919 728 z "},"ॡ":{"ha":1276,"x_min":-83,"x_max":1360,"o":"m 918 728 q 1078 608 1013 685 q 1143 454 1143 532 q 1122 375 1143 410 q 1070 317 1100 340 q 990 260 1040 293 q 908 200 935 225 q 881 142 881 175 q 896 97 881 118 q 989 104 944 104 l 1082 32 l 1082 -21 q 908 -46 974 -15 q 843 -128 843 -76 q 872 -174 843 -158 q 956 -190 900 -190 q 1066 -162 1018 -190 q 1156 -83 1114 -135 l 1253 -169 l 1253 -222 q 1047 -293 1168 -293 q 874 -257 961 -293 q 732 -165 788 -221 q 676 -56 676 -110 q 712 21 676 -14 q 808 76 747 56 q 714 210 714 139 q 740 276 714 250 q 822 336 767 303 q 896 387 868 365 q 943 442 924 408 q 963 522 963 476 q 933 615 963 578 q 847 651 904 651 q 747 614 788 651 q 664 510 707 576 l 642 478 l 544 564 l 544 617 l 549 621 q 467 653 521 653 q 356 603 397 653 q 315 486 315 554 q 340 396 315 439 q 424 303 364 353 l 542 201 l 497 150 l 146 453 q 135 542 135 492 q 167 653 135 603 q 257 734 200 704 q 383 764 314 764 q 497 744 439 764 q 607 690 556 725 q 670 742 636 724 q 753 763 704 761 l 753 953 l 14 953 l -83 1039 l -83 1092 l 1263 1092 l 1360 1006 l 1360 953 l 918 954 l 918 728 z "},"ऍ":{"ha":851,"x_min":-83,"x_max":1129,"o":"m 767 953 q 807 751 797 817 q 817 644 817 686 q 777 449 817 521 q 664 344 738 376 l 567 431 l 567 483 q 622 560 607 517 q 636 690 636 604 q 621 953 636 775 l 342 953 q 300 636 300 756 q 332 444 300 526 q 440 299 364 363 l 639 122 q 771 -29 725 46 q 834 -183 817 -104 q 850 -367 851 -262 l 797 -367 l 683 -311 l 685 -272 q 518 136 685 -12 l 310 319 q 162 478 203 414 q 121 632 121 543 q 172 953 121 724 l 22 953 l -83 1039 l -83 1092 l 879 1092 l 976 1006 l 976 953 l 767 953 m 472 1622 q 461 1532 461 1569 q 510 1442 461 1471 q 660 1413 560 1413 q 853 1474 778 1413 q 949 1643 929 1535 l 1003 1690 l 1129 1578 q 1063 1434 1117 1499 q 926 1333 1010 1369 q 740 1296 842 1296 q 522 1338 629 1296 q 348 1448 415 1381 q 281 1585 281 1515 q 292 1689 281 1638 l 336 1740 l 472 1622 z "},"ऎ":{"ha":851,"x_min":-746,"x_max":976,"o":"m 767 953 q 807 751 797 817 q 817 644 817 686 q 777 449 817 521 q 664 344 738 376 l 567 431 l 567 483 q 622 560 607 517 q 636 690 636 604 q 621 953 636 775 l 342 953 q 300 636 300 756 q 332 444 300 526 q 440 299 364 363 l 639 122 q 771 -29 725 46 q 834 -183 817 -104 q 850 -367 851 -262 l 797 -367 l 683 -311 l 685 -272 q 518 136 685 -12 l 310 319 q 162 478 203 414 q 121 632 121 543 q 172 953 121 724 l 22 953 l -83 1039 l -83 1092 l 610 1092 l 392 1281 q 275 1352 335 1329 q 140 1375 215 1375 q 66 1371 99 1375 q -11 1358 33 1367 q -168 1340 -96 1340 q -342 1373 -268 1340 q -522 1496 -417 1406 l -746 1686 l -701 1739 l -506 1572 q -388 1501 -449 1525 q -254 1478 -328 1478 q -180 1482 -212 1478 q -103 1494 -147 1486 q 54 1513 -18 1513 q 230 1480 156 1513 q 408 1357 304 1447 l 715 1092 l 879 1092 l 976 1006 l 976 953 l 767 953 z "},"ए":{"ha":851,"x_min":-83,"x_max":976,"o":"m 767 953 q 807 751 797 817 q 817 644 817 686 q 777 449 817 521 q 664 344 738 376 l 567 431 l 567 483 q 622 560 607 517 q 636 690 636 604 q 621 953 636 775 l 342 953 q 300 636 300 756 q 332 444 300 526 q 440 299 364 363 l 639 122 q 771 -29 725 46 q 834 -183 817 -104 q 850 -367 851 -262 l 797 -367 l 683 -311 l 685 -272 q 518 136 685 -12 l 310 319 q 162 478 203 414 q 121 632 121 543 q 172 953 121 724 l 22 953 l -83 1039 l -83 1092 l 879 1092 l 976 1006 l 976 953 l 767 953 z "},"ऐ":{"ha":851,"x_min":-179,"x_max":976,"o":"m 767 953 q 807 751 797 817 q 817 644 817 686 q 777 449 817 521 q 664 344 738 376 l 567 431 l 567 483 q 622 560 607 517 q 636 690 636 604 q 621 953 636 775 l 342 953 q 300 636 300 756 q 332 444 300 526 q 440 299 364 363 l 639 122 q 771 -29 725 46 q 834 -183 817 -104 q 850 -367 851 -262 l 797 -367 l 683 -311 l 685 -272 q 518 136 685 -12 l 310 319 q 162 478 203 414 q 121 632 121 543 q 172 953 121 724 l 22 953 l -83 1039 l -83 1092 l 610 1092 l 318 1342 q 201 1413 261 1390 q 67 1436 142 1436 q -82 1418 3 1436 l -179 1504 l -179 1557 q -19 1574 -99 1574 q 155 1541 81 1574 q 335 1418 229 1508 l 715 1092 l 879 1092 l 976 1006 l 976 953 l 767 953 z "},"ऑ":{"ha":1864,"x_min":122,"x_max":2121,"o":"m 2121 1578 q 2055 1434 2108 1499 q 1917 1333 2001 1369 q 1732 1296 1833 1296 q 1514 1338 1621 1296 q 1340 1448 1407 1381 q 1272 1585 1272 1515 q 1283 1689 1272 1638 l 1328 1740 l 1464 1622 q 1453 1532 1453 1569 q 1502 1442 1453 1471 q 1651 1413 1551 1413 q 1845 1474 1769 1413 q 1940 1643 1921 1535 l 1994 1690 l 2121 1578 m 1989 1008 l 1989 956 l 1767 956 l 1767 -11 l 1714 -11 l 1557 128 l 1600 178 l 1600 956 l 1311 956 l 1311 -11 l 1258 -11 l 1101 128 l 1144 178 l 1144 465 q 1051 413 1099 429 q 943 397 1003 397 q 796 428 869 397 q 799 403 799 411 q 761 303 800 353 q 661 222 722 254 q 536 190 600 190 q 479 194 513 190 q 429 201 446 197 l 122 472 l 167 525 l 243 458 q 485 339 379 339 q 592 375 550 342 q 635 458 635 408 q 588 549 635 500 q 433 664 540 597 l 433 717 q 547 797 508 750 q 586 899 586 843 q 567 960 586 939 q 514 982 549 982 q 403 948 468 982 q 272 854 339 914 l 175 940 l 175 993 q 303 1077 238 1047 q 426 1107 369 1107 q 574 1062 497 1107 q 701 949 650 1017 q 753 819 753 881 q 716 707 753 761 q 617 618 679 653 q 683 569 649 597 q 774 520 733 535 q 853 506 815 506 q 993 549 926 506 q 1144 699 1060 593 l 1144 953 l 917 953 l 819 1039 l 819 1092 l 1767 1092 l 1892 1094 l 1989 1008 z "},"ऒ":{"ha":1864,"x_min":122,"x_max":1989,"o":"m 1767 956 l 1767 -11 l 1714 -11 l 1557 128 l 1600 178 l 1600 956 l 1311 956 l 1311 -11 l 1258 -11 l 1101 128 l 1144 178 l 1144 465 q 1051 413 1099 429 q 943 397 1003 397 q 796 428 869 397 q 799 403 799 411 q 761 303 800 353 q 661 222 722 254 q 536 190 600 190 q 479 194 513 190 q 429 201 446 197 l 122 472 l 167 525 l 243 458 q 485 339 379 339 q 592 375 550 342 q 635 458 635 408 q 588 549 635 500 q 433 664 540 597 l 433 717 q 547 797 508 750 q 586 899 586 843 q 567 960 586 939 q 514 982 549 982 q 403 948 468 982 q 272 854 339 914 l 175 940 l 175 993 q 303 1077 238 1047 q 426 1107 369 1107 q 574 1062 497 1107 q 701 949 650 1017 q 753 819 753 881 q 716 707 753 761 q 617 618 679 653 q 683 569 649 597 q 774 520 733 535 q 853 506 815 506 q 993 549 926 506 q 1144 699 1060 593 l 1144 953 l 917 953 l 819 1039 l 819 1092 l 1601 1092 l 1383 1281 q 1267 1352 1326 1329 q 1132 1375 1207 1375 q 1058 1371 1090 1375 q 981 1358 1025 1367 q 824 1340 896 1340 q 649 1373 724 1340 q 469 1496 575 1406 l 246 1686 l 290 1739 l 486 1572 q 603 1501 543 1525 q 738 1478 664 1478 q 812 1482 779 1478 q 889 1494 844 1486 q 1046 1513 974 1513 q 1222 1480 1147 1513 q 1400 1357 1296 1447 l 1707 1092 l 1892 1092 l 1989 1006 l 1989 956 l 1767 956 z "},"ओ":{"ha":1864,"x_min":122,"x_max":1989,"o":"m 1767 956 l 1767 -11 l 1714 -11 l 1557 128 l 1600 178 l 1600 956 l 1311 956 l 1311 -11 l 1258 -11 l 1101 128 l 1144 178 l 1144 465 q 1051 413 1099 429 q 943 397 1003 397 q 796 428 869 397 q 799 403 799 411 q 761 303 800 353 q 661 222 722 254 q 536 190 600 190 q 479 194 513 190 q 429 201 446 197 l 122 472 l 167 525 l 243 458 q 485 339 379 339 q 592 375 550 342 q 635 458 635 408 q 588 549 635 500 q 433 664 540 597 l 433 717 q 547 797 508 750 q 586 899 586 843 q 567 960 586 939 q 514 982 549 982 q 403 948 468 982 q 272 854 339 914 l 175 940 l 175 993 q 303 1077 238 1047 q 426 1107 369 1107 q 574 1062 497 1107 q 701 949 650 1017 q 753 819 753 881 q 716 707 753 761 q 617 618 679 653 q 683 569 649 597 q 774 520 733 535 q 853 506 815 506 q 993 549 926 506 q 1144 699 1060 593 l 1144 953 l 917 953 l 819 1039 l 819 1092 l 1601 1092 l 1310 1342 q 1193 1413 1253 1390 q 1058 1436 1133 1436 q 910 1418 994 1436 l 813 1504 l 813 1557 q 972 1574 894 1574 q 1147 1541 1072 1574 q 1326 1418 1221 1508 l 1707 1092 l 1892 1092 l 1989 1006 l 1989 956 l 1767 956 z "},"औ":{"ha":1864,"x_min":122,"x_max":1989,"o":"m 1767 956 l 1767 -11 l 1714 -11 l 1557 128 l 1600 178 l 1600 956 l 1311 956 l 1311 -11 l 1258 -11 l 1101 128 l 1144 178 l 1144 465 q 1051 413 1099 429 q 943 397 1003 397 q 796 428 869 397 q 799 403 799 411 q 761 303 800 353 q 661 222 722 254 q 536 190 600 190 q 479 194 513 190 q 429 201 446 197 l 122 472 l 167 525 l 243 458 q 485 339 379 339 q 592 375 550 342 q 635 458 635 408 q 588 549 635 500 q 433 664 540 597 l 433 717 q 547 797 508 750 q 586 899 586 843 q 567 960 586 939 q 514 982 549 982 q 403 948 468 982 q 272 854 339 914 l 175 940 l 175 993 q 303 1077 238 1047 q 426 1107 369 1107 q 574 1062 497 1107 q 701 949 650 1017 q 753 819 753 881 q 716 707 753 761 q 617 618 679 653 q 683 569 649 597 q 774 520 733 535 q 853 506 815 506 q 993 549 926 506 q 1144 699 1060 593 l 1144 953 l 917 953 l 819 1039 l 819 1092 l 1433 1092 l 1251 1247 q 1134 1319 1194 1296 q 1000 1342 1074 1342 q 851 1324 936 1342 l 754 1410 l 754 1463 q 914 1479 835 1479 q 1090 1447 1015 1479 q 1268 1324 1164 1414 l 1539 1092 l 1728 1092 l 1251 1500 q 1135 1572 1194 1549 q 1000 1594 1075 1594 q 851 1576 936 1594 l 754 1663 l 754 1715 q 914 1732 836 1732 q 1090 1699 1015 1732 q 1268 1576 1164 1667 l 1833 1092 l 1892 1092 l 1989 1006 l 1989 956 l 1767 956 z "},"ॳ":{"ha":1408,"x_min":122,"x_max":1533,"o":"m 1311 956 l 1311 -11 l 1258 -11 l 1101 128 l 1144 178 l 1144 465 q 1051 413 1099 429 q 943 397 1003 397 q 796 428 869 397 q 799 403 799 411 q 761 303 800 353 q 661 222 722 254 q 536 190 600 190 q 479 194 513 190 q 429 201 446 197 l 122 472 l 167 525 l 243 458 q 485 339 379 339 q 592 375 550 342 q 635 458 635 408 q 588 549 635 500 q 433 664 540 597 l 433 717 q 547 797 508 750 q 586 899 586 843 q 567 960 586 939 q 514 982 549 982 q 403 948 468 982 q 272 854 339 914 l 175 940 l 175 993 q 303 1077 238 1047 q 426 1107 369 1107 q 574 1062 497 1107 q 701 949 650 1017 q 753 819 753 881 q 716 707 753 761 q 617 618 679 653 q 683 569 649 597 q 774 520 733 535 q 853 506 815 506 q 993 549 926 506 q 1144 699 1060 593 l 1144 953 l 917 953 l 819 1039 l 819 1092 l 1436 1092 l 1533 1006 l 1533 956 l 1311 956 m 1311 1267 l 1311 1796 l 1197 1851 l 1144 1851 l 1144 1322 l 1258 1267 l 1311 1267 z "},"ॴ":{"ha":1864,"x_min":122,"x_max":1989,"o":"m 1767 956 l 1767 -11 l 1714 -11 l 1557 128 l 1600 178 l 1600 956 l 1311 956 l 1311 -11 l 1258 -11 l 1101 128 l 1144 178 l 1144 465 q 1051 413 1099 429 q 943 397 1003 397 q 796 428 869 397 q 799 403 799 411 q 761 303 800 353 q 661 222 722 254 q 536 190 600 190 q 479 194 513 190 q 429 201 446 197 l 122 472 l 167 525 l 243 458 q 485 339 379 339 q 592 375 550 342 q 635 458 635 408 q 588 549 635 500 q 433 664 540 597 l 433 717 q 547 797 508 750 q 586 899 586 843 q 567 960 586 939 q 514 982 549 982 q 403 948 468 982 q 272 854 339 914 l 175 940 l 175 993 q 303 1077 238 1047 q 426 1107 369 1107 q 574 1062 497 1107 q 701 949 650 1017 q 753 819 753 881 q 716 707 753 761 q 617 618 679 653 q 683 569 649 597 q 774 520 733 535 q 853 506 815 506 q 993 549 926 506 q 1144 699 1060 593 l 1144 953 l 917 953 l 819 1039 l 819 1092 l 1600 1092 l 1600 1574 l 1653 1574 l 1767 1518 l 1767 1092 l 1892 1092 l 1989 1006 l 1989 956 l 1767 956 z "},"ॵ":{"ha":1864,"x_min":125,"x_max":1992,"o":"m 1769 957 l 1769 -10 l 1717 -10 l 1560 129 l 1603 179 l 1603 957 l 1314 957 l 1314 -10 l 1261 -10 l 1104 129 l 1147 179 l 1147 467 q 1053 415 1101 431 q 946 399 1006 399 q 799 429 872 399 q 801 404 801 413 q 764 305 803 354 q 664 224 725 256 q 539 192 603 192 q 482 195 515 192 q 432 203 449 199 l 125 474 l 169 526 l 246 460 q 488 340 382 340 q 595 376 553 343 q 638 460 638 410 q 590 550 638 501 q 436 665 543 599 l 436 718 q 550 798 511 751 q 589 900 589 844 q 570 962 589 940 q 517 983 551 983 q 406 949 471 983 q 275 856 342 915 l 178 942 l 178 994 q 306 1078 240 1049 q 429 1108 372 1108 q 576 1063 500 1108 q 704 950 653 1018 q 756 821 756 882 q 719 708 756 763 q 619 619 682 654 q 686 571 651 599 q 777 522 736 536 q 856 507 818 507 q 996 551 929 507 q 1147 700 1063 594 l 1147 954 l 919 954 l 822 1040 l 822 1093 l 1600 1093 l 1382 1282 q 1265 1353 1325 1331 q 1131 1376 1206 1376 q 1056 1372 1089 1376 q 979 1360 1024 1368 q 822 1342 894 1342 q 648 1374 722 1342 q 468 1497 574 1407 l 244 1688 l 289 1740 l 485 1574 q 602 1503 542 1526 q 736 1479 663 1479 q 810 1483 778 1479 q 888 1496 843 1488 q 1044 1514 972 1514 q 1220 1481 1146 1514 q 1399 1358 1294 1449 l 1703 1096 q 1786 1192 1786 1126 q 1756 1258 1786 1232 q 1663 1314 1725 1283 q 1581 1360 1611 1340 q 1528 1412 1550 1381 q 1507 1486 1507 1443 q 1549 1582 1507 1536 q 1660 1651 1592 1628 l 1757 1565 l 1757 1513 q 1708 1486 1728 1508 q 1688 1436 1688 1464 q 1721 1372 1688 1397 q 1821 1317 1754 1347 q 1929 1256 1892 1285 q 1967 1182 1967 1228 q 1911 1075 1967 1124 l 1989 1006 l 1992 957 l 1769 957 z "},"ॶ":{"ha":1408,"x_min":122,"x_max":1533,"o":"m 1311 956 l 1311 -11 l 1258 -11 l 1101 128 l 1144 178 l 1144 465 q 1051 413 1099 429 q 943 397 1003 397 q 796 428 869 397 q 799 403 799 411 q 761 303 800 353 q 661 222 722 254 q 536 190 600 190 q 479 194 513 190 q 429 201 446 197 l 122 472 l 167 525 l 243 458 q 485 339 379 339 q 592 375 550 342 q 635 458 635 408 q 588 549 635 500 q 433 664 540 597 l 433 717 q 547 797 508 750 q 586 899 586 843 q 567 960 586 939 q 514 982 549 982 q 403 948 468 982 q 272 854 339 914 l 175 940 l 175 993 q 303 1077 238 1047 q 426 1107 369 1107 q 574 1062 497 1107 q 701 949 650 1017 q 753 819 753 881 q 716 707 753 761 q 617 618 679 653 q 683 569 649 597 q 774 520 733 535 q 853 506 815 506 q 993 549 926 506 q 1144 699 1060 593 l 1144 953 l 917 953 l 819 1039 l 819 1092 l 1436 1092 l 1533 1006 l 1533 956 l 1311 956 m 853 -214 q 1014 -187 933 -214 q 1168 -114 1094 -161 l 1265 -200 l 1265 -253 q 1097 -335 1186 -304 q 935 -367 1008 -367 q 801 -356 865 -367 l 588 -187 l 629 -135 q 745 -194 688 -174 q 853 -214 803 -214 z "},"ॷ":{"ha":1408,"x_min":122,"x_max":1533,"o":"m 1311 956 l 1311 -11 l 1258 -11 l 1101 128 l 1144 178 l 1144 465 q 1051 413 1099 429 q 943 397 1003 397 q 796 428 869 397 q 799 403 799 411 q 761 303 800 353 q 661 222 722 254 q 536 190 600 190 q 479 194 513 190 q 429 201 446 197 l 122 472 l 167 525 l 243 458 q 485 339 379 339 q 592 375 550 342 q 635 458 635 408 q 588 549 635 500 q 433 664 540 597 l 433 717 q 547 797 508 750 q 586 899 586 843 q 567 960 586 939 q 514 982 549 982 q 403 948 468 982 q 272 854 339 914 l 175 940 l 175 993 q 303 1077 238 1047 q 426 1107 369 1107 q 574 1062 497 1107 q 701 949 650 1017 q 753 819 753 881 q 716 707 753 761 q 617 618 679 653 q 683 569 649 597 q 774 520 733 535 q 853 506 815 506 q 993 549 926 506 q 1144 699 1060 593 l 1144 953 l 917 953 l 819 1039 l 819 1092 l 1436 1092 l 1533 1006 l 1533 956 l 1311 956 m 853 -211 q 1014 -185 933 -211 q 1168 -111 1094 -158 l 1265 -197 l 1265 -250 q 1097 -333 1186 -301 q 935 -364 1008 -364 q 801 -353 865 -364 l 588 -185 l 629 -132 q 745 -191 688 -171 q 853 -211 803 -211 m 853 -503 q 1014 -476 933 -503 q 1168 -403 1094 -450 l 1265 -489 l 1265 -542 q 1097 -624 1186 -593 q 935 -656 1008 -656 q 801 -644 865 -656 l 588 -476 l 629 -424 q 745 -483 688 -462 q 853 -503 803 -503 z "},"ा":{"ha":456,"x_min":0,"x_max":581,"o":"m 358 953 l 358 -14 l 306 -14 l 149 125 l 192 175 l 192 953 l 97 953 l 0 1039 l 0 1092 l 483 1092 l 581 1006 l 581 953 l 358 953 z "},"ि":{"ha":456,"x_min":0,"x_max":686,"o":"m 224 1488 q 458 1394 351 1488 q 686 1078 565 1300 l 635 1025 q 449 1272 535 1194 q 282 1350 363 1350 q 230 1331 247 1350 q 213 1279 213 1313 q 234 1192 213 1242 q 294 1092 256 1142 l 358 1092 l 358 -14 l 306 -14 l 149 125 l 192 175 l 192 953 l 97 953 l 0 1039 l 0 1092 l 189 1092 q 79 1222 115 1158 q 43 1340 43 1286 q 92 1447 43 1407 q 224 1488 142 1488 z "},"ी":{"ha":456,"x_min":-361,"x_max":581,"o":"m 357 953 l 357 -14 l 304 -14 l 147 125 l 190 175 l 190 953 l 96 953 l -1 1039 l -1 1092 l 189 1092 q 26 1288 103 1226 q -122 1350 -50 1350 q -174 1331 -157 1350 q -190 1281 -190 1313 q -153 1159 -190 1229 q -54 1029 -115 1089 l -137 1029 q -306 1192 -250 1111 q -361 1340 -361 1272 q -312 1447 -361 1407 q -181 1488 -262 1488 q 51 1397 -56 1488 q 275 1092 157 1306 l 483 1092 l 581 1006 l 579 953 l 357 953 z "},"ॉ":{"ha":456,"x_min":-136,"x_max":713,"o":"m 358 953 l 358 -14 l 306 -14 l 149 125 l 192 175 l 192 953 l 97 953 l 0 1039 l 0 1092 l 483 1092 l 581 1006 l 581 953 l 358 953 m 56 1622 q 44 1532 44 1569 q 94 1442 44 1471 q 243 1413 143 1413 q 437 1474 361 1413 q 532 1643 513 1535 l 586 1690 l 713 1578 q 647 1434 700 1499 q 509 1333 593 1369 q 324 1296 425 1296 q 106 1338 213 1296 q -69 1448 -1 1381 q -136 1585 -136 1515 q -125 1689 -136 1638 l -81 1740 l 56 1622 z "},"ॊ":{"ha":456,"x_min":-1162,"x_max":581,"o":"m 358 953 l 358 -14 l 306 -14 l 149 125 l 192 175 l 192 953 l 97 953 l 0 1039 l 0 1092 l 193 1092 l -25 1281 q -142 1352 -82 1329 q -276 1375 -201 1375 q -351 1371 -318 1375 q -428 1358 -383 1367 q -585 1340 -512 1340 q -759 1373 -685 1340 q -939 1496 -833 1406 l -1162 1686 l -1118 1739 l -922 1572 q -805 1501 -865 1525 q -671 1478 -744 1478 q -597 1482 -629 1478 q -519 1494 -564 1486 q -362 1513 -435 1513 q -187 1480 -261 1513 q -8 1357 -112 1447 l 299 1092 l 483 1092 l 581 1006 l 581 953 l 358 953 z "},"ो":{"ha":456,"x_min":-596,"x_max":581,"o":"m 358 953 l 358 -14 l 306 -14 l 149 125 l 192 175 l 192 953 l 97 953 l 0 1039 l 0 1092 l 193 1092 l -99 1342 q -215 1413 -156 1390 q -350 1436 -275 1436 q -499 1418 -414 1436 l -596 1504 l -596 1557 q -436 1574 -515 1574 q -262 1541 -336 1574 q -82 1418 -187 1508 l 299 1092 l 483 1092 l 581 1006 l 581 953 l 358 953 z "},"ौ":{"ha":456,"x_min":-654,"x_max":581,"o":"m 358 953 l 358 -14 l 306 -14 l 149 125 l 192 175 l 192 953 l 97 953 l 0 1039 l 0 1092 l 25 1092 l -157 1247 q -274 1319 -214 1296 q -408 1342 -335 1342 q -557 1324 -472 1342 l -654 1410 l -654 1463 q -494 1479 -572 1479 q -319 1447 -393 1479 q -140 1324 -244 1414 l 131 1092 l 319 1092 l -157 1500 q -274 1572 -214 1549 q -408 1594 -333 1594 q -557 1576 -472 1594 l -654 1663 l -654 1715 q -494 1732 -572 1732 q -319 1699 -393 1732 q -140 1576 -244 1667 l 425 1092 l 483 1092 l 581 1006 l 581 953 l 358 953 z "},"ॎ":{"ha":456,"x_min":149,"x_max":581,"o":"m 358 953 l 358 -14 l 306 -14 l 149 125 l 192 175 l 192 1092 l 483 1092 l 581 1006 l 581 953 l 358 953 z "},"ऻ":{"ha":456,"x_min":0,"x_max":581,"o":"m 358 953 l 358 -14 l 306 -14 l 149 125 l 192 175 l 192 953 l 97 953 l 0 1039 l 0 1092 l 192 1092 l 192 1574 l 244 1574 l 358 1518 l 358 1092 l 483 1092 l 581 1006 l 581 953 l 358 953 z "},"ॏ":{"ha":456,"x_min":-1164,"x_max":583,"o":"m 361 954 l 361 -12 l 308 -12 l 151 126 l 194 176 l 194 954 l 100 954 l 3 1040 l 3 1093 l 192 1093 l -26 1282 q -143 1353 -83 1331 q -278 1376 -203 1376 q -352 1372 -319 1376 q -429 1360 -385 1368 q -586 1342 -514 1342 q -760 1374 -686 1342 q -940 1497 -835 1407 l -1164 1688 l -1119 1740 l -924 1574 q -806 1503 -867 1526 q -672 1479 -746 1479 q -598 1483 -631 1479 q -521 1496 -565 1488 q -364 1514 -436 1514 q -188 1481 -262 1514 q -10 1358 -114 1449 l 294 1096 q 378 1192 378 1126 q 347 1258 378 1232 q 254 1314 317 1283 q 172 1360 203 1340 q 120 1412 142 1381 q 99 1486 99 1443 q 141 1582 99 1536 q 251 1651 183 1628 l 349 1565 l 349 1513 q 299 1486 319 1508 q 279 1436 279 1464 q 313 1372 279 1397 q 413 1317 346 1347 q 521 1256 483 1285 q 558 1182 558 1228 q 503 1075 558 1124 l 581 1006 l 583 954 l 361 954 z "},"क":{"ha":1440,"x_min":-83,"x_max":1524,"o":"m 799 728 q 929 764 856 764 q 1101 719 1013 764 q 1247 600 1189 675 q 1306 440 1306 525 q 1269 330 1306 381 q 1170 250 1233 279 q 1028 221 1107 221 l 931 307 l 931 360 q 979 356 956 356 q 1087 399 1049 356 q 1125 507 1125 442 q 1097 615 1125 578 q 1013 653 1069 653 q 937 633 969 653 q 881 587 904 614 q 828 514 858 560 l 804 479 l 800 471 l 800 -14 l 747 -14 l 590 125 l 633 175 l 633 254 q 507 219 582 219 q 335 264 424 219 q 189 383 247 308 q 131 543 131 458 q 167 653 131 603 q 266 733 203 704 q 408 763 329 763 l 506 676 l 506 624 q 457 628 481 628 q 349 585 388 628 q 311 476 311 542 q 339 368 311 406 q 424 331 367 331 q 499 350 467 331 q 555 397 532 369 q 608 469 578 424 l 632 504 l 636 508 l 636 953 l 14 953 l -83 1039 l -83 1092 l 1426 1092 l 1524 1006 l 1524 953 l 799 954 l 799 728 z "},"ख":{"ha":1506,"x_min":-147,"x_max":1633,"o":"m 1633 951 l 1411 951 l 1411 -15 l 1358 -15 l 1201 124 l 1244 174 l 1244 261 q 1104 218 1186 218 q 933 263 1021 218 q 786 382 844 307 q 728 542 728 457 q 764 652 728 601 q 863 732 800 703 q 1006 761 926 761 l 1103 675 l 1103 622 q 1054 626 1078 626 q 947 583 985 626 q 908 475 908 540 q 936 367 908 404 q 1021 329 964 329 q 1103 352 1067 329 q 1167 412 1139 375 q 1243 521 1196 449 l 1243 951 l 451 951 q 553 600 553 782 q 528 467 553 528 q 464 367 503 407 q 383 314 425 328 l 726 11 l 681 -40 l 215 371 q 130 462 165 411 q 94 547 94 513 q 123 602 94 583 q 204 621 151 621 q 356 596 268 621 q 364 689 364 640 q 348 831 364 760 q 306 953 332 901 l -42 953 l -147 1039 l -147 1092 l 1533 1092 l 1633 1004 l 1633 951 z "},"ग":{"ha":1067,"x_min":-153,"x_max":1192,"o":"m 969 953 l 969 -14 l 917 -14 l 760 125 l 803 175 l 803 953 l 514 953 l 514 517 q 485 424 514 472 q 417 344 457 376 q 342 311 376 311 q 238 353 297 311 q 135 453 178 394 q 92 556 92 511 q 127 603 92 583 q 226 622 163 622 q 347 606 276 622 l 347 953 l -54 953 l -153 1039 l -153 1092 l 1094 1092 l 1192 1006 l 1192 953 l 969 953 z "},"घ":{"ha":1186,"x_min":-97,"x_max":1311,"o":"m 1311 953 l 1089 953 l 1089 -14 l 1036 -14 l 879 125 l 922 175 l 922 228 q 803 149 867 178 q 658 121 739 121 q 449 163 553 121 q 278 276 344 206 q 213 426 213 347 q 238 513 213 472 q 308 586 263 554 q 165 678 222 618 q 107 808 107 738 q 203 953 107 903 l 0 953 l -97 1039 l -97 1092 l 1214 1092 l 1311 1006 l 1311 953 m 453 951 l 504 906 l 504 853 q 431 863 467 863 q 326 828 364 861 q 288 754 288 794 q 399 629 288 682 q 556 651 471 653 l 653 565 l 653 513 q 603 515 636 515 q 445 471 499 514 q 392 358 392 428 q 434 266 392 299 q 563 233 476 233 q 684 258 629 233 q 784 324 739 283 q 900 440 829 365 l 922 464 l 922 951 l 453 951 z "},"ङ":{"ha":1156,"x_min":-153,"x_max":1393,"o":"m 1393 953 l 846 953 l 846 694 l 543 694 q 426 658 474 694 q 379 568 379 621 q 397 520 379 542 q 458 474 414 499 q 558 528 518 511 q 629 544 599 544 q 784 495 703 544 q 919 373 865 446 q 974 232 974 300 q 906 122 974 181 q 736 25 838 64 q 543 -14 635 -14 q 410 -3 483 -14 l 8 340 l 53 392 l 249 226 q 370 156 306 178 q 517 135 435 135 q 654 160 586 135 q 766 227 722 186 q 810 308 810 268 q 783 365 810 338 q 725 392 756 392 q 558 332 660 392 q 403 392 485 340 q 268 515 322 444 q 214 644 214 586 q 247 738 214 694 q 335 808 279 782 q 454 833 390 833 l 678 833 l 678 953 l -56 953 l -153 1039 l -153 1092 l 1294 1092 l 1393 1006 l 1393 953 m 1161 717 l 1161 528 l 1108 528 l 994 583 l 994 772 l 1047 772 l 1161 717 z "},"च":{"ha":1164,"x_min":-111,"x_max":1289,"o":"m 1289 953 l 1067 953 l 1067 -14 l 1014 -14 l 857 125 l 900 175 l 900 263 q 760 219 842 219 q 588 264 676 219 q 442 383 500 308 q 383 543 383 458 q 403 624 383 585 l 153 624 l 56 710 l 56 763 l 663 763 l 760 676 l 760 624 q 711 628 735 628 q 603 585 642 628 q 565 476 565 542 q 593 368 565 406 q 678 331 621 331 q 760 353 724 331 q 824 413 796 376 q 900 522 853 450 l 900 953 l -14 953 l -111 1039 l -111 1092 l 1192 1092 l 1289 1006 l 1289 953 z "},"छ":{"ha":1381,"x_min":-97,"x_max":1547,"o":"m 1131 765 q 1240 676 1189 735 q 1321 542 1290 618 q 1351 383 1351 465 q 1269 186 1351 278 q 1048 40 1188 94 q 742 -15 908 -15 q 513 29 626 -15 q 326 148 399 74 q 254 308 254 222 q 307 456 254 388 q 174 547 226 490 q 121 668 121 603 q 156 763 121 719 q 254 833 192 807 q 394 858 317 858 l 421 857 l 518 771 l 518 718 q 443 728 481 728 q 339 694 376 728 q 301 615 301 661 q 368 515 301 549 q 565 572 454 572 q 599 571 588 572 l 696 485 l 696 432 q 646 435 679 435 q 489 380 543 435 q 435 243 435 325 q 487 135 435 172 q 644 97 539 97 q 904 144 789 97 q 1090 267 1019 190 q 969 317 1028 278 q 874 417 911 357 q 836 544 836 478 q 871 690 836 626 q 964 778 906 753 l 964 953 l 0 953 l -97 1039 l -97 1092 l 1450 1092 l 1547 1006 l 1547 953 l 1131 953 l 1131 765 m 1171 451 q 1149 620 1171 560 q 1086 681 1128 681 q 1035 624 1054 681 q 1017 478 1017 567 q 1028 401 1017 428 q 1060 374 1039 374 q 1121 391 1094 374 q 1171 439 1147 408 l 1171 451 z "},"ज":{"ha":1150,"x_min":-83,"x_max":1275,"o":"m 1053 953 l 1053 -14 l 1000 -14 l 843 125 l 886 175 l 886 483 l 456 483 l 719 256 q 731 178 731 222 q 697 81 731 125 q 602 12 663 38 q 467 -14 542 -14 q 333 -3 389 -14 l 50 219 l 92 272 q 288 138 219 172 q 414 104 356 104 q 513 138 475 104 q 550 231 550 172 q 524 310 550 264 q 442 406 499 356 l 250 571 l 294 622 l 886 622 l 886 953 l 14 953 l -83 1039 l -83 1092 l 1178 1092 l 1275 1006 l 1275 953 l 1053 953 z "},"झ":{"ha":1431,"x_min":-56,"x_max":1557,"o":"m 1335 953 l 1335 -14 l 1282 -14 l 1125 125 l 1168 175 l 1168 501 q 1047 424 1100 442 q 910 406 994 406 l 893 406 q 952 319 931 364 q 974 232 974 274 q 908 122 974 181 q 744 25 842 64 q 557 -14 646 -14 q 463 -3 514 -14 l 611 -135 q 727 -206 667 -183 q 863 -229 788 -229 q 1011 -211 926 -229 l 1108 -297 l 1108 -350 q 949 -367 1028 -367 q 772 -334 847 -367 q 594 -211 697 -301 l 236 106 q 138 213 174 156 q 101 326 101 271 q 120 396 101 374 q 167 418 139 418 q 364 175 265 418 q 531 135 435 135 q 661 160 596 135 q 768 227 726 186 q 810 308 810 268 q 783 365 810 338 q 725 392 756 392 q 558 332 660 392 q 403 392 485 340 q 268 515 322 444 q 214 644 214 586 q 247 738 214 694 q 335 808 279 782 q 454 833 390 833 l 678 833 l 678 953 l 42 953 l -56 1039 l -56 1092 l 1458 1092 l 1556 1006 l 1557 953 l 1335 953 m 826 517 q 926 531 885 517 q 1019 585 967 544 q 1169 717 1071 625 l 1169 953 l 847 953 l 847 694 l 544 694 q 428 658 475 694 q 381 568 381 621 q 398 520 381 542 q 460 474 415 499 q 560 528 519 511 q 631 544 600 544 q 722 526 672 544 q 826 517 757 517 z "},"ञ":{"ha":1108,"x_min":-83,"x_max":1235,"o":"m 1013 951 l 1013 -15 l 960 -15 l 803 124 l 846 174 l 846 456 q 772 415 807 426 q 688 400 738 403 q 640 293 679 342 q 538 215 600 244 q 399 186 475 186 q 307 197 343 186 l 93 365 l 135 418 q 332 318 261 318 q 465 374 419 319 q 510 528 510 429 q 483 628 510 589 q 408 668 457 667 q 310 643 358 668 q 225 575 261 618 l 128 661 l 128 714 q 226 763 169 742 q 328 785 283 785 q 467 751 396 785 q 592 660 538 718 q 672 531 647 601 q 744 581 706 547 q 844 683 782 615 l 844 953 l 14 953 l -83 1039 l -83 1092 l 1136 1092 l 1233 1006 l 1235 951 l 1013 951 z "},"ट":{"ha":969,"x_min":-83,"x_max":1094,"o":"m 540 597 q 382 525 442 597 q 322 332 322 453 q 378 165 322 228 q 525 103 435 103 q 683 148 608 103 q 842 296 757 193 l 939 210 l 939 157 q 606 -14 782 -14 q 389 47 497 -14 q 211 205 281 107 q 142 408 142 303 q 184 567 142 492 q 299 690 226 643 q 453 736 371 736 l 524 736 l 524 953 l 14 953 l -83 1039 l -83 1092 l 997 1092 l 1094 1006 l 1094 953 l 690 953 l 690 597 l 540 597 z "},"ठ":{"ha":1131,"x_min":-83,"x_max":1214,"o":"m 690 729 q 842 635 774 694 q 950 501 910 575 q 990 351 990 426 q 942 165 990 249 q 807 33 893 81 q 615 -14 721 -14 q 390 47 500 -14 q 211 203 281 107 q 142 400 142 300 q 184 567 142 489 q 298 690 226 644 q 453 736 369 736 l 524 736 l 524 953 l 14 953 l -83 1039 l -83 1092 l 1117 1092 l 1214 1006 l 1214 953 l 690 953 l 690 729 m 810 418 q 690 635 810 592 l 690 597 l 540 597 q 382 525 442 597 q 322 333 322 453 q 381 162 322 221 q 535 103 439 103 q 735 188 661 103 q 810 418 810 274 z "},"ड":{"ha":989,"x_min":-153,"x_max":1122,"o":"m 543 694 q 426 658 474 694 q 379 568 379 621 q 397 520 379 542 q 458 474 414 499 q 558 528 518 511 q 629 544 599 544 q 784 495 703 544 q 919 373 865 446 q 974 232 974 300 q 906 122 974 181 q 736 25 838 64 q 543 -14 635 -14 q 410 -3 483 -14 l 8 340 l 53 392 l 249 226 q 370 156 306 178 q 517 135 435 135 q 654 160 586 135 q 766 227 722 186 q 810 308 810 268 q 783 365 810 338 q 725 392 756 392 q 558 332 660 392 q 403 392 485 340 q 268 515 322 444 q 214 644 214 586 q 247 738 214 694 q 335 808 279 782 q 454 833 390 833 l 678 833 l 678 953 l -56 953 l -153 1039 l -153 1092 l 1025 1092 l 1122 1006 l 1122 953 l 844 953 l 844 694 l 543 694 z "},"ढ":{"ha":969,"x_min":-83,"x_max":1094,"o":"m 528 597 q 368 533 428 597 q 308 361 308 468 q 383 186 308 251 q 588 114 457 121 q 513 199 540 149 q 486 301 486 249 q 528 398 486 361 q 639 435 571 435 q 786 394 715 435 q 901 290 857 354 q 946 156 946 225 q 878 31 946 76 q 692 -14 811 -14 q 425 49 551 -14 q 222 216 299 113 q 144 435 144 319 q 185 585 144 515 q 293 695 225 654 q 440 736 361 736 l 539 736 l 539 953 l 14 953 l -83 1039 l -83 1092 l 997 1092 l 1094 1006 l 1094 953 l 706 953 l 706 597 l 528 597 m 731 324 q 687 293 706 324 q 668 219 668 263 q 680 171 668 186 q 715 156 692 156 q 767 174 740 156 q 779 225 779 197 q 765 295 779 267 q 729 324 750 324 l 731 324 z "},"ण":{"ha":1235,"x_min":-83,"x_max":1360,"o":"m 1138 953 l 1138 -14 l 1085 -14 l 928 125 l 971 175 l 971 953 l 740 953 l 740 617 q 703 487 740 550 q 603 384 665 424 q 469 344 540 344 q 310 385 392 344 q 176 494 229 426 q 122 640 122 563 l 122 953 l 14 953 l -83 1039 l -83 1092 l 1263 1092 l 1360 1006 l 1360 953 l 1138 953 m 289 953 l 289 593 q 386 456 289 456 q 474 476 431 456 q 545 538 517 496 q 574 643 574 581 l 574 953 l 289 953 z "},"त":{"ha":919,"x_min":-83,"x_max":1044,"o":"m 822 953 l 822 -14 l 769 -14 l 613 125 l 656 175 l 656 483 l 418 483 q 314 449 346 483 q 282 346 282 414 q 302 249 282 292 q 385 151 322 206 l 528 25 l 482 -26 l 113 300 q 101 386 101 338 q 166 563 101 504 q 356 622 231 622 l 656 622 l 656 953 l 19 953 l -83 1039 l -83 1092 l 947 1092 l 1044 1006 l 1044 953 l 822 953 z "},"थ":{"ha":1086,"x_min":78,"x_max":1211,"o":"m 989 953 l 989 -14 l 936 -14 l 779 125 l 822 175 l 822 313 q 719 253 775 274 q 586 232 663 232 q 372 273 483 232 q 182 376 260 314 q 99 497 104 439 l 143 549 q 174 546 157 546 q 298 572 246 546 q 379 646 350 599 q 238 691 308 651 q 123 794 168 731 q 78 928 78 857 q 109 1024 78 979 q 192 1094 140 1068 q 300 1119 243 1119 q 435 1063 367 1119 q 548 912 503 1006 q 593 713 593 818 q 554 579 593 640 q 445 478 515 518 q 285 426 375 438 q 503 344 335 344 q 620 369 569 344 q 710 430 671 393 q 822 547 749 467 l 822 953 l 728 953 l 631 1039 l 631 1092 l 1114 1092 l 1211 1006 l 1211 953 l 989 953 m 260 861 q 274 784 260 811 q 317 757 289 757 q 413 817 372 757 q 395 958 410 907 q 356 1008 381 1008 q 284 967 310 1008 q 258 861 258 925 l 260 861 z "},"द":{"ha":942,"x_min":-83,"x_max":1067,"o":"m 526 597 q 369 536 431 597 q 307 376 307 475 q 354 199 307 261 q 482 138 401 138 q 547 146 514 138 q 532 250 532 213 q 613 344 532 344 q 730 306 668 344 q 833 210 792 268 q 875 97 875 151 q 844 28 875 57 q 760 -11 814 -1 l 992 -215 l 946 -267 l 657 -11 q 401 67 519 1 q 214 235 283 133 q 144 450 144 336 q 186 590 144 524 q 296 697 228 657 q 440 736 364 736 l 539 736 l 539 953 l 14 953 l -83 1039 l -83 1092 l 969 1092 l 1067 1006 l 1067 953 l 706 953 l 706 597 l 526 597 z "},"ध":{"ha":1183,"x_min":151,"x_max":1308,"o":"m 1086 950 l 1086 -17 l 1033 -17 l 876 122 l 919 172 l 919 363 q 806 288 857 308 q 696 268 756 268 q 515 310 603 268 q 374 419 428 351 q 319 556 319 486 q 383 694 319 635 q 213 838 275 754 q 151 1015 151 922 q 210 1166 151 1107 q 374 1225 269 1225 q 530 1192 451 1225 q 658 1107 608 1158 q 708 1003 708 1056 q 657 913 708 949 q 536 876 606 876 q 501 879 526 876 l 408 951 l 408 1004 q 453 994 428 994 q 508 1013 488 994 q 528 1063 528 1032 q 515 1097 528 1086 q 472 1107 501 1107 q 371 1061 410 1107 q 332 940 332 1015 q 363 834 332 879 q 464 747 393 789 q 613 776 533 776 l 706 704 l 706 651 q 658 654 669 654 q 542 610 583 654 q 501 488 501 565 q 530 408 501 433 q 606 383 558 383 q 697 398 658 383 q 784 454 735 413 q 919 585 833 496 l 919 953 l 825 953 l 728 1039 l 728 1092 l 1211 1092 l 1308 1006 l 1308 950 l 1086 950 z "},"न":{"ha":928,"x_min":-153,"x_max":1053,"o":"m 829 953 l 829 -14 l 776 -14 l 619 125 l 663 175 l 663 483 l 463 483 q 399 365 446 419 q 313 311 353 311 q 219 357 272 311 q 128 465 167 403 q 90 569 90 528 q 140 611 90 600 q 318 622 189 622 l 664 622 l 664 953 l -47 953 l -153 1039 l -153 1092 l 956 1092 l 1053 1006 l 1051 953 l 829 953 z "},"ऩ":{"ha":928,"x_min":-153,"x_max":1053,"o":"m 829 953 l 829 -14 l 776 -14 l 619 125 l 663 175 l 663 483 l 463 483 q 399 365 446 419 q 313 311 353 311 q 219 357 272 311 q 128 465 167 403 q 90 569 90 528 q 140 611 90 600 q 318 622 189 622 l 664 622 l 664 953 l -47 953 l -153 1039 l -153 1092 l 956 1092 l 1053 1006 l 1051 953 l 829 953 m 417 -122 l 364 -122 l 250 -67 l 250 122 l 303 122 l 417 67 l 417 -122 z "},"प":{"ha":900,"x_min":-83,"x_max":1026,"o":"m 1026 953 l 804 953 l 804 -14 l 751 -14 l 594 125 l 638 175 l 638 388 q 497 344 579 344 q 326 389 414 344 q 180 508 238 433 q 122 668 122 583 l 122 953 l 14 953 l -83 1039 l -83 1092 l 928 1092 l 1026 1006 l 1026 953 m 290 953 l 290 621 q 415 456 290 456 q 497 478 461 456 q 562 538 533 501 q 638 647 590 575 l 638 953 l 290 953 z "},"फ":{"ha":1442,"x_min":-83,"x_max":1525,"o":"m 806 729 q 935 764 861 764 q 1106 719 1018 764 q 1253 600 1194 675 q 1311 440 1311 525 q 1275 330 1311 381 q 1176 250 1239 279 q 1033 221 1113 221 l 936 307 l 936 360 q 985 356 961 356 q 1092 399 1054 356 q 1131 507 1131 442 q 1103 615 1131 578 q 1018 653 1075 653 q 938 631 972 653 q 876 574 903 608 q 804 468 850 539 l 804 -14 l 751 -14 l 594 125 l 638 175 l 638 388 q 497 344 579 344 q 326 389 414 344 q 180 508 238 433 q 122 668 122 583 l 122 953 l 14 953 l -83 1039 l -83 1092 l 1428 1092 l 1525 1006 l 1525 953 l 817 953 l 806 954 l 806 729 m 417 457 q 499 480 463 457 q 563 540 535 503 q 639 649 592 576 l 639 954 l 292 954 l 292 622 q 417 457 292 457 z "},"ब":{"ha":900,"x_min":-83,"x_max":1028,"o":"m 1028 953 l 806 953 l 806 -14 l 753 -14 l 596 125 l 639 175 l 639 263 q 499 219 581 219 q 327 264 415 219 q 181 383 239 308 q 122 543 122 458 q 158 653 122 603 q 258 733 194 704 q 400 763 321 763 l 497 676 l 497 624 q 449 628 472 628 q 357 601 394 628 l 568 424 q 636 522 596 458 l 636 953 l 14 953 l -83 1039 l -83 1092 l 928 1092 l 1028 1006 l 1028 953 m 417 331 q 524 372 475 331 l 317 546 q 304 476 304 515 q 332 368 304 406 q 417 331 360 331 z "},"भ":{"ha":1053,"x_min":67,"x_max":1178,"o":"m 956 953 l 956 -14 l 903 -14 l 746 125 l 789 175 l 789 483 l 511 483 q 446 366 493 421 q 360 311 399 311 q 260 356 317 311 q 164 462 204 400 q 124 569 124 524 q 174 611 124 600 q 360 622 225 622 l 360 729 q 224 767 292 733 q 111 854 156 800 q 67 969 67 908 q 112 1076 67 1033 q 233 1119 157 1119 q 377 1074 310 1119 q 485 950 444 1028 q 526 782 526 872 l 526 622 l 789 622 l 789 953 l 694 953 l 597 1039 l 597 1092 l 1081 1092 l 1178 1006 l 1178 953 l 956 953 m 247 903 q 258 856 247 872 q 290 840 269 840 q 360 868 328 840 q 317 1008 357 1008 q 266 978 285 1008 q 247 903 247 949 z "},"म":{"ha":1089,"x_min":-153,"x_max":1214,"o":"m 992 953 l 992 -14 l 939 -14 l 782 125 l 825 175 l 825 483 l 478 483 q 413 366 460 421 q 326 311 365 311 q 227 356 283 311 q 131 462 171 400 q 90 569 90 524 q 141 611 90 600 q 326 622 192 622 l 326 953 l -50 953 l -153 1039 l -153 1092 l 1117 1092 l 1214 1006 l 1214 953 l 992 953 m 825 953 l 493 953 l 493 622 l 824 622 l 825 621 l 825 953 z "},"य":{"ha":1017,"x_min":-106,"x_max":1142,"o":"m 1142 951 l 919 951 l 919 -15 l 867 -15 l 710 124 l 753 174 l 753 399 q 644 335 704 357 q 503 314 585 314 q 331 353 418 314 q 181 452 244 392 q 99 571 117 513 l 143 622 q 265 691 215 633 q 315 835 315 749 q 278 953 315 915 l -8 953 l -106 1039 l -106 1092 l 1044 1092 l 1142 1004 l 1142 951 m 406 950 q 472 849 449 903 q 496 738 496 794 q 435 590 496 653 q 278 508 375 526 q 419 424 310 424 q 534 446 483 424 q 626 503 585 468 q 733 607 667 539 l 753 628 l 753 950 l 406 950 z "},"र":{"ha":619,"x_min":-147,"x_max":746,"o":"m 451 951 q 553 600 553 782 q 528 467 553 528 q 464 367 503 407 q 383 314 425 328 l 726 11 l 681 -40 l 215 371 q 130 462 165 411 q 94 547 94 513 q 123 602 94 583 q 204 621 151 621 q 356 596 268 621 q 364 689 364 640 q 348 831 364 760 q 306 953 332 901 l -42 953 l -147 1039 l -147 1092 l 639 1092 l 744 1006 l 746 951 l 451 951 z "},"ऱ":{"ha":619,"x_min":-147,"x_max":746,"o":"m 451 951 q 553 600 553 782 q 528 467 553 528 q 464 367 503 407 q 383 314 425 328 l 726 11 l 681 -40 l 215 371 q 130 462 165 411 q 94 547 94 513 q 123 602 94 583 q 204 621 151 621 q 356 596 268 621 q 364 689 364 640 q 348 831 364 760 q 306 953 332 901 l -42 953 l -147 1039 l -147 1092 l 639 1092 l 744 1006 l 746 951 l 451 951 m 333 -122 l 281 -122 l 167 -67 l 167 122 l 219 122 l 333 67 l 333 -122 z "},"ल":{"ha":1204,"x_min":-83,"x_max":1329,"o":"m 1107 957 l 1107 -10 l 1054 -10 l 897 129 l 940 179 l 940 517 q 640 350 799 413 l 543 436 l 543 489 l 585 506 q 547 619 575 583 q 465 654 518 654 q 354 606 396 654 q 313 493 313 557 q 333 400 313 440 q 414 307 354 360 l 532 203 l 486 151 l 143 454 q 132 546 132 493 q 165 656 132 606 q 255 736 197 707 q 382 765 313 765 q 572 711 475 765 q 719 574 668 657 q 940 733 838 643 l 940 953 l 14 953 l -83 1039 l -83 1092 l 1232 1092 l 1329 1006 l 1329 957 l 1107 957 z "},"ळ":{"ha":1440,"x_min":-83,"x_max":1524,"o":"m 1057 736 q 1233 616 1160 697 q 1306 439 1306 535 q 1263 319 1306 369 q 1155 244 1221 269 q 1018 218 1089 218 q 954 224 982 218 l 850 313 l 850 375 q 983 351 911 351 q 1088 395 1051 351 q 1125 506 1125 439 q 1097 614 1125 576 q 1013 651 1069 651 q 938 632 971 651 q 883 583 906 613 q 825 501 860 554 q 790 450 794 456 l 751 393 q 685 300 714 335 q 613 242 657 265 q 506 219 568 219 q 334 264 422 219 q 188 383 246 308 q 129 543 129 458 q 172 664 129 614 q 282 739 215 714 q 419 764 349 764 q 481 758 442 764 l 585 669 l 585 607 q 451 631 524 631 q 347 587 385 631 q 310 476 310 543 q 338 368 310 406 q 422 331 365 331 q 509 356 472 331 q 567 408 546 381 q 632 504 588 436 l 672 568 q 737 665 710 629 q 802 727 764 701 q 892 760 840 753 l 892 953 l 14 953 l -83 1039 l -83 1092 l 1426 1092 l 1524 1006 l 1524 953 l 1057 951 l 1057 736 z "},"ऴ":{"ha":1440,"x_min":-83,"x_max":1524,"o":"m 1057 736 q 1233 616 1160 697 q 1306 439 1306 535 q 1263 319 1306 369 q 1155 244 1221 269 q 1018 218 1089 218 q 954 224 982 218 l 850 313 l 850 375 q 983 351 911 351 q 1088 395 1051 351 q 1125 506 1125 439 q 1097 614 1125 576 q 1013 651 1069 651 q 938 632 971 651 q 883 583 906 613 q 825 501 860 554 q 790 450 794 456 l 751 393 q 685 300 714 335 q 613 242 657 265 q 506 219 568 219 q 334 264 422 219 q 188 383 246 308 q 129 543 129 458 q 172 664 129 614 q 282 739 215 714 q 419 764 349 764 q 481 758 442 764 l 585 669 l 585 607 q 451 631 524 631 q 347 587 385 631 q 310 476 310 543 q 338 368 310 406 q 422 331 365 331 q 509 356 472 331 q 567 408 546 381 q 632 504 588 436 l 672 568 q 737 665 710 629 q 802 727 764 701 q 892 760 840 753 l 892 953 l 14 953 l -83 1039 l -83 1092 l 1426 1092 l 1524 1006 l 1524 953 l 1057 951 l 1057 736 m 814 -122 l 761 -122 l 647 -67 l 647 122 l 700 122 l 814 67 l 814 -122 z "},"व":{"ha":900,"x_min":-83,"x_max":1026,"o":"m 1026 953 l 804 953 l 804 -14 l 751 -14 l 594 125 l 638 175 l 638 263 q 497 219 579 219 q 326 264 414 219 q 179 383 238 308 q 121 543 121 458 q 157 653 121 603 q 256 733 193 704 q 399 763 319 763 l 496 676 l 496 624 q 447 628 471 628 q 340 585 378 628 q 301 476 301 542 q 329 368 301 406 q 414 331 357 331 q 496 353 460 331 q 560 413 532 376 q 636 522 589 450 l 636 953 l 14 953 l -83 1039 l -83 1092 l 928 1092 l 1026 1006 l 1026 953 z "},"श":{"ha":1151,"x_min":160,"x_max":1278,"o":"m 626 689 q 613 556 626 621 q 574 438 599 490 l 769 279 l 724 228 l 538 378 q 424 311 486 311 q 314 352 374 311 q 212 451 254 393 q 169 551 169 508 q 198 604 169 585 q 281 624 226 624 q 431 597 347 624 q 458 729 457 651 q 320 765 390 732 q 205 853 250 799 q 160 969 160 907 q 205 1076 160 1033 q 326 1119 250 1119 q 474 1069 406 1119 q 583 921 542 1018 q 625 690 625 824 l 626 689 m 1056 951 l 1056 -15 l 1003 -15 l 846 124 l 889 174 l 889 951 l 794 951 l 697 1038 l 697 1090 l 1181 1090 l 1278 1004 l 1278 951 l 1056 951 m 342 901 q 353 855 342 871 q 385 839 364 839 q 457 868 425 839 q 440 975 451 943 q 411 1007 429 1007 q 360 977 379 1007 q 342 901 342 947 z "},"ष":{"ha":900,"x_min":-83,"x_max":1026,"o":"m 1026 953 l 804 953 l 804 -14 l 751 -14 l 594 125 l 638 175 l 638 388 q 497 344 579 344 q 326 389 414 344 q 180 508 238 433 q 122 668 122 583 l 122 953 l 14 953 l -83 1039 l -83 1092 l 928 1092 l 1026 1006 l 1026 953 m 292 956 l 292 939 l 638 647 l 639 956 l 292 956 m 418 458 q 514 491 474 458 q 600 590 554 524 l 292 849 l 292 624 q 417 458 292 458 l 418 458 z "},"स":{"ha":1144,"x_min":-147,"x_max":1271,"o":"m 1271 949 l 1049 949 l 1049 -18 l 996 -18 l 839 121 l 882 171 l 882 486 q 724 443 796 443 q 649 454 679 443 l 547 535 q 485 392 532 451 q 383 314 438 332 l 726 11 l 681 -40 l 215 371 q 130 462 165 411 q 94 547 94 513 q 123 602 94 583 q 204 621 151 621 q 356 596 268 621 q 364 689 364 640 q 348 831 364 760 q 306 953 332 901 l -42 953 l -147 1039 l -147 1092 l 1172 1092 l 1271 1001 l 1271 949 m 453 949 q 553 628 543 796 q 693 604 635 604 q 780 624 735 604 q 882 685 825 643 l 883 949 l 453 949 z "},"ह":{"ha":803,"x_min":0,"x_max":928,"o":"m 471 654 q 372 627 407 654 q 338 549 338 600 q 367 451 338 496 l 383 451 q 579 409 481 451 q 741 298 678 367 q 804 158 804 229 q 764 51 804 101 q 658 -26 724 0 l 561 60 l 561 113 q 624 226 624 156 q 488 340 624 340 q 348 294 397 340 q 299 165 299 249 q 330 53 299 106 q 426 -56 361 1 l 719 -315 l 675 -367 l 128 117 q 118 197 118 153 q 159 345 118 282 q 275 435 200 408 l 169 525 q 161 559 164 538 q 158 597 158 581 q 191 696 158 651 q 279 766 224 740 q 399 792 335 792 l 483 792 l 483 953 l 97 953 l 0 1039 l 0 1092 l 831 1092 l 928 1006 l 928 953 l 650 953 l 650 653 l 472 653 l 471 654 z "},"क़":{"ha":1440,"x_min":-83,"x_max":1524,"o":"m 799 728 q 929 764 856 764 q 1101 719 1013 764 q 1247 600 1189 675 q 1306 440 1306 525 q 1269 330 1306 381 q 1170 250 1233 279 q 1028 221 1107 221 l 931 307 l 931 360 q 979 356 956 356 q 1087 399 1049 356 q 1125 507 1125 442 q 1097 615 1125 578 q 1013 653 1069 653 q 937 633 969 653 q 881 587 904 614 q 828 514 858 560 l 804 479 l 800 471 l 800 -14 l 747 -14 l 590 125 l 633 175 l 633 254 q 507 219 582 219 q 335 264 424 219 q 189 383 247 308 q 131 543 131 458 q 167 653 131 603 q 266 733 203 704 q 408 763 329 763 l 506 676 l 506 624 q 457 628 481 628 q 349 585 388 628 q 311 476 311 542 q 339 368 311 406 q 424 331 367 331 q 499 350 467 331 q 555 397 532 369 q 608 469 578 424 l 632 504 l 636 508 l 636 953 l 14 953 l -83 1039 l -83 1092 l 1426 1092 l 1524 1006 l 1524 953 l 799 954 l 799 728 m 356 -122 l 303 -122 l 189 -67 l 189 122 l 242 122 l 356 67 l 356 -122 z "},"ख़":{"ha":1506,"x_min":-147,"x_max":1633,"o":"m 1633 951 l 1411 951 l 1411 -15 l 1358 -15 l 1201 124 l 1244 174 l 1244 261 q 1104 218 1186 218 q 933 263 1021 218 q 786 382 844 307 q 728 542 728 457 q 764 652 728 601 q 863 732 800 703 q 1006 761 926 761 l 1103 675 l 1103 622 q 1054 626 1078 626 q 947 583 985 626 q 908 475 908 540 q 936 367 908 404 q 1021 329 964 329 q 1103 352 1067 329 q 1167 412 1139 375 q 1243 521 1196 449 l 1243 951 l 451 951 q 553 600 553 782 q 528 467 553 528 q 464 367 503 407 q 383 314 425 328 l 726 11 l 681 -40 l 215 371 q 130 462 165 411 q 94 547 94 513 q 123 602 94 583 q 204 621 151 621 q 356 596 268 621 q 364 689 364 640 q 348 831 364 760 q 306 953 332 901 l -42 953 l -147 1039 l -147 1092 l 1533 1092 l 1633 1004 l 1633 951 m 250 -122 l 197 -122 l 83 -67 l 83 122 l 136 122 l 250 67 l 250 -122 z "},"ग़":{"ha":1067,"x_min":-153,"x_max":1192,"o":"m 969 953 l 969 -14 l 917 -14 l 760 125 l 803 175 l 803 953 l 514 953 l 514 517 q 485 424 514 472 q 417 344 457 376 q 342 311 376 311 q 238 353 297 311 q 135 453 178 394 q 92 556 92 511 q 127 603 92 583 q 226 622 163 622 q 347 606 276 622 l 347 953 l -54 953 l -153 1039 l -153 1092 l 1094 1092 l 1192 1006 l 1192 953 l 969 953 m 417 -122 l 364 -122 l 250 -67 l 250 122 l 303 122 l 417 67 l 417 -122 z "},"ज़":{"ha":1150,"x_min":-83,"x_max":1275,"o":"m 1053 953 l 1053 -14 l 1000 -14 l 843 125 l 886 175 l 886 483 l 456 483 l 719 256 q 731 178 731 222 q 697 81 731 125 q 602 12 663 38 q 467 -14 542 -14 q 333 -3 389 -14 l 50 219 l 92 272 q 288 138 219 172 q 414 104 356 104 q 513 138 475 104 q 550 231 550 172 q 524 310 550 264 q 442 406 499 356 l 250 571 l 294 622 l 886 622 l 886 953 l 14 953 l -83 1039 l -83 1092 l 1178 1092 l 1275 1006 l 1275 953 l 1053 953 m 539 -419 l 486 -419 l 372 -364 l 372 -175 l 425 -175 l 539 -231 l 539 -419 z "},"ड़":{"ha":989,"x_min":-153,"x_max":1122,"o":"m 543 694 q 426 658 474 694 q 379 568 379 621 q 397 520 379 542 q 458 474 414 499 q 558 528 518 511 q 629 544 599 544 q 784 495 703 544 q 919 373 865 446 q 974 232 974 300 q 906 122 974 181 q 736 25 838 64 q 543 -14 635 -14 q 410 -3 483 -14 l 8 340 l 53 392 l 249 226 q 370 156 306 178 q 517 135 435 135 q 654 160 586 135 q 766 227 722 186 q 810 308 810 268 q 783 365 810 338 q 725 392 756 392 q 558 332 660 392 q 403 392 485 340 q 268 515 322 444 q 214 644 214 586 q 247 738 214 694 q 335 808 279 782 q 454 833 390 833 l 678 833 l 678 953 l -56 953 l -153 1039 l -153 1092 l 1025 1092 l 1122 1006 l 1122 953 l 844 953 l 844 694 l 543 694 m 203 -233 l 150 -233 l 36 -178 l 36 11 l 89 11 l 203 -44 l 203 -233 z "},"ढ़":{"ha":969,"x_min":-83,"x_max":1094,"o":"m 528 597 q 368 533 428 597 q 308 361 308 468 q 383 186 308 251 q 588 114 457 121 q 513 199 540 149 q 486 301 486 249 q 528 398 486 361 q 639 435 571 435 q 786 394 715 435 q 901 290 857 354 q 946 156 946 225 q 878 31 946 76 q 692 -14 811 -14 q 425 49 551 -14 q 222 216 299 113 q 144 435 144 319 q 185 585 144 515 q 293 695 225 654 q 440 736 361 736 l 539 736 l 539 953 l 14 953 l -83 1039 l -83 1092 l 997 1092 l 1094 1006 l 1094 953 l 706 953 l 706 597 l 528 597 m 731 324 q 687 293 706 324 q 668 219 668 263 q 680 171 668 186 q 715 156 692 156 q 767 174 740 156 q 779 225 779 197 q 765 295 779 267 q 729 324 750 324 l 731 324 m 342 -289 l 289 -289 l 175 -233 l 175 -44 l 228 -44 l 342 -100 l 342 -289 z "},"फ़":{"ha":1442,"x_min":-83,"x_max":1525,"o":"m 806 729 q 935 764 861 764 q 1106 719 1018 764 q 1253 600 1194 675 q 1311 440 1311 525 q 1275 330 1311 381 q 1176 250 1239 279 q 1033 221 1113 221 l 936 307 l 936 360 q 985 356 961 356 q 1092 399 1054 356 q 1131 507 1131 442 q 1103 615 1131 578 q 1018 653 1075 653 q 938 631 972 653 q 876 574 903 608 q 804 468 850 539 l 804 -14 l 751 -14 l 594 125 l 638 175 l 638 388 q 497 344 579 344 q 326 389 414 344 q 180 508 238 433 q 122 668 122 583 l 122 953 l 14 953 l -83 1039 l -83 1092 l 1428 1092 l 1525 1006 l 1525 953 l 817 953 l 806 954 l 806 729 m 417 457 q 499 480 463 457 q 563 540 535 503 q 639 649 592 576 l 639 954 l 292 954 l 292 622 q 417 457 292 457 m 404 -69 l 351 -69 l 238 -14 l 238 175 l 290 175 l 404 119 l 404 -69 z "},"य़":{"ha":1017,"x_min":-106,"x_max":1142,"o":"m 1142 951 l 919 951 l 919 -15 l 867 -15 l 710 124 l 753 174 l 753 399 q 644 335 704 357 q 503 314 585 314 q 331 353 418 314 q 181 452 244 392 q 99 571 117 513 l 143 622 q 265 691 215 633 q 315 835 315 749 q 278 953 315 915 l -8 953 l -106 1039 l -106 1092 l 1044 1092 l 1142 1004 l 1142 951 m 406 950 q 472 849 449 903 q 496 738 496 794 q 435 590 496 653 q 278 508 375 526 q 419 424 310 424 q 534 446 483 424 q 626 503 585 468 q 733 607 667 539 l 753 628 l 753 950 l 406 950 m 404 -97 l 351 -97 l 238 -42 l 238 147 l 290 147 l 404 92 l 404 -97 z "},"ॹ":{"ha":1094,"x_min":-83,"x_max":1275,"o":"m 1053 953 l 1053 -14 l 1000 -14 l 843 125 l 886 175 l 886 483 l 456 483 l 719 256 q 731 178 731 222 q 697 81 731 125 q 602 12 663 38 q 467 -14 542 -14 q 333 -3 389 -14 l 50 219 l 92 272 q 288 138 219 172 q 414 104 356 104 q 513 138 475 104 q 550 231 550 172 q 524 310 550 264 q 442 406 499 356 l 250 571 l 294 622 l 886 622 l 886 953 l 14 953 l -83 1039 l -83 1092 l 1178 1092 l 1275 1006 l 1275 953 l 1053 953 m 235 -307 l 182 -307 l 68 -251 l 68 -62 l 121 -62 l 235 -118 l 235 -307 m 497 -506 l 444 -506 l 331 -450 l 331 -261 l 383 -261 l 497 -317 l 497 -506 m 721 -307 l 668 -307 l 554 -251 l 554 -62 l 607 -62 l 721 -118 l 721 -307 z "},"ॻ":{"ha":1036,"x_min":-153,"x_max":1161,"o":"m 939 953 l 939 -229 l 153 -229 l 47 -143 l 47 -90 l 772 -90 l 772 953 l 514 953 l 514 517 q 485 424 514 472 q 417 344 457 376 q 342 311 376 311 q 238 353 297 311 q 135 453 178 394 q 92 556 92 511 q 127 603 92 583 q 226 622 163 622 q 347 606 276 622 l 347 953 l -54 953 l -153 1039 l -153 1092 l 1064 1092 l 1161 1006 l 1161 953 l 939 953 z "},"ॼ":{"ha":1175,"x_min":-83,"x_max":1300,"o":"m 1078 953 l 1078 -229 l 194 -229 l 89 -143 l 89 -90 l 911 -90 l 911 483 l 456 483 l 719 256 q 731 178 731 222 q 697 81 731 125 q 602 12 663 38 q 467 -14 542 -14 q 333 -3 389 -14 l 50 219 l 92 272 q 288 138 219 172 q 414 104 356 104 q 513 138 475 104 q 550 231 550 172 q 524 310 550 264 q 442 406 499 356 l 250 571 l 294 622 l 911 622 l 911 953 l 14 953 l -83 1039 l -83 1092 l 1203 1092 l 1300 1006 l 1300 953 l 1078 953 z "},"ॾ":{"ha":989,"x_min":-153,"x_max":1122,"o":"m 543 694 q 426 658 474 694 q 379 568 379 621 q 397 520 379 542 q 458 474 414 499 q 558 528 518 511 q 629 544 599 544 q 784 495 703 544 q 919 373 865 446 q 974 232 974 300 q 906 122 974 181 q 736 25 838 64 q 543 -14 635 -14 q 410 -3 483 -14 l 8 340 l 53 392 l 249 226 q 370 156 306 178 q 517 135 435 135 q 654 160 586 135 q 766 227 722 186 q 810 308 810 268 q 783 365 810 338 q 725 392 756 392 q 558 332 660 392 q 403 392 485 340 q 268 515 322 444 q 214 644 214 586 q 247 738 214 694 q 335 808 279 782 q 454 833 390 833 l 678 833 l 678 953 l -56 953 l -153 1039 l -153 1092 l 1025 1092 l 1122 1006 l 1122 953 l 844 953 l 844 694 l 543 694 m 1044 -229 l 258 -229 l 153 -143 l 153 -90 l 939 -90 l 1044 -176 l 1044 -229 z "},"ॿ":{"ha":900,"x_min":-83,"x_max":1028,"o":"m 1028 953 l 806 953 l 806 -229 l 242 -229 l 136 -143 l 136 -90 l 639 -90 l 639 263 q 499 219 581 219 q 327 264 415 219 q 181 383 239 308 q 122 543 122 458 q 158 653 122 603 q 258 733 194 704 q 400 763 321 763 l 497 676 l 497 624 q 449 628 472 628 q 357 601 394 628 l 568 424 q 636 522 596 458 l 636 953 l 14 953 l -83 1039 l -83 1092 l 928 1092 l 1028 1006 l 1028 953 m 417 331 q 524 372 475 331 l 317 546 q 304 476 304 515 q 332 368 304 406 q 417 331 360 331 z "},"ꣻ":{"ha":1163,"x_min":194,"x_max":968,"o":"m 968 953 l 292 953 l 194 1039 l 194 1092 l 871 1092 l 968 1006 l 968 953 z "},"⁄":{"ha":317,"x_min":-300,"x_max":617,"o":"m -247 -267 l -300 -240 l 563 1383 l 617 1358 l -247 -267 z "},"½":{"ha":1564,"x_min":111,"x_max":1492,"o":"m 460 576 l 122 576 l 122 621 l 231 694 l 231 1043 l 111 1079 l 133 1132 l 471 1132 l 471 1088 l 364 1014 l 364 664 l 482 629 l 460 576 m 346 -267 l 293 -240 l 1156 1383 l 1210 1358 l 346 -267 m 1492 -128 l 1422 -110 l 943 -110 l 943 -67 q 1158 90 1083 31 q 1261 188 1232 150 q 1290 257 1290 225 q 1250 330 1290 301 q 1147 358 1210 358 q 978 286 1078 358 l 944 336 l 1104 447 q 1178 456 1136 456 q 1365 416 1294 456 q 1435 313 1435 376 q 1158 8 1435 219 l 1414 8 l 1450 90 l 1492 76 l 1492 -128 z "},"⅓":{"ha":1558,"x_min":111,"x_max":1460,"o":"m 460 576 l 122 576 l 122 621 l 231 694 l 231 1043 l 111 1079 l 133 1132 l 471 1132 l 471 1088 l 364 1014 l 364 664 l 482 629 l 460 576 m 346 -267 l 293 -240 l 1156 1383 l 1210 1358 l 346 -267 m 1293 146 q 1424 55 1388 93 q 1460 -28 1460 17 q 1344 -212 1460 -132 q 974 -367 1228 -293 l 957 -306 q 1178 -228 1103 -261 q 1285 -159 1254 -194 q 1315 -74 1315 -124 q 1285 -10 1315 -37 q 1167 60 1256 17 l 1167 99 q 1248 193 1228 161 q 1268 257 1268 225 q 1234 330 1268 301 q 1147 358 1200 358 q 979 286 1081 358 l 946 336 l 1106 447 q 1151 456 1126 456 q 1282 436 1222 456 q 1377 384 1342 417 q 1413 313 1413 351 q 1383 240 1410 278 q 1293 144 1356 201 l 1293 146 z "},"⅔":{"ha":1647,"x_min":61,"x_max":1549,"o":"m 610 558 l 540 576 l 61 576 l 61 619 q 276 776 201 717 q 379 874 350 836 q 408 943 408 911 q 368 1016 408 988 q 265 1044 328 1044 q 96 972 196 1044 l 63 1022 l 222 1133 q 296 1142 254 1142 q 483 1102 413 1142 q 553 999 553 1063 q 276 694 553 906 l 532 694 l 568 776 l 610 763 l 610 558 m 435 -267 l 382 -240 l 1244 1383 l 1299 1358 l 435 -267 m 1382 146 q 1513 55 1476 93 q 1549 -28 1549 17 q 1433 -212 1549 -132 q 1063 -367 1317 -293 l 1046 -306 q 1267 -228 1192 -261 q 1374 -159 1343 -194 q 1404 -74 1404 -124 q 1374 -10 1404 -37 q 1256 60 1344 17 l 1256 99 q 1337 193 1317 161 q 1357 257 1357 225 q 1323 330 1357 301 q 1236 358 1289 358 q 1068 286 1169 358 l 1035 336 l 1194 447 q 1240 456 1215 456 q 1371 436 1311 456 q 1466 384 1431 417 q 1501 313 1501 351 q 1472 240 1499 278 q 1382 144 1444 201 l 1382 146 z "},"¼":{"ha":1450,"x_min":111,"x_max":1415,"o":"m 460 576 l 122 576 l 122 621 l 231 694 l 231 1043 l 111 1079 l 133 1132 l 471 1132 l 471 1088 l 364 1014 l 364 664 l 482 629 l 460 576 m 346 -267 l 293 -240 l 1156 1383 l 1210 1358 l 346 -267 m 1246 -64 l 1246 -260 l 1113 -318 l 1113 -64 l 701 -64 l 701 -21 l 1113 417 l 1246 474 l 1246 18 l 1415 18 l 1376 -64 l 1246 -64 m 1113 307 l 849 18 l 1113 18 l 1113 307 z "},"¾":{"ha":1506,"x_min":36,"x_max":1471,"o":"m 383 832 q 514 741 478 779 q 550 658 550 703 q 434 474 550 554 q 64 319 318 393 l 47 381 q 269 458 193 425 q 375 527 344 492 q 406 613 406 563 q 376 676 406 649 q 257 746 346 703 l 257 785 q 338 879 318 847 q 358 943 358 911 q 324 1016 358 988 q 238 1044 290 1044 q 69 972 171 1044 l 36 1022 l 196 1133 q 242 1142 217 1142 q 372 1122 313 1142 q 467 1070 432 1103 q 503 999 503 1038 q 473 926 500 964 q 383 831 446 888 l 383 832 m 401 -267 l 349 -240 l 1211 1383 l 1265 1358 l 401 -267 m 1301 -64 l 1301 -260 l 1168 -318 l 1168 -64 l 757 -64 l 757 -21 l 1168 417 l 1301 474 l 1301 18 l 1471 18 l 1432 -64 l 1301 -64 m 1168 307 l 904 18 l 1168 18 l 1168 307 z "},"⅛":{"ha":1761,"x_min":111,"x_max":1668,"o":"m 460 576 l 122 576 l 122 621 l 231 694 l 231 1043 l 111 1079 l 133 1132 l 471 1132 l 471 1088 l 364 1014 l 364 664 l 482 629 l 460 576 m 346 -267 l 293 -240 l 1156 1383 l 1210 1358 l 346 -267 m 1460 356 q 1614 256 1560 304 q 1668 140 1668 207 q 1618 27 1668 88 q 1496 -75 1568 -33 q 1365 -117 1424 -117 q 1183 -86 1264 -117 q 1056 -2 1101 -56 q 1010 115 1010 51 q 1054 218 1010 167 q 1203 346 1099 269 q 1103 428 1139 386 q 1067 522 1067 469 q 1113 623 1067 569 q 1227 713 1160 676 q 1351 750 1294 750 q 1481 726 1424 750 q 1569 661 1538 701 q 1601 574 1601 621 q 1567 481 1597 529 q 1457 354 1538 432 l 1460 356 m 1326 669 q 1244 640 1278 669 q 1211 568 1211 611 q 1258 476 1211 517 q 1394 389 1304 436 q 1456 468 1443 442 q 1469 528 1469 494 q 1429 628 1469 588 q 1326 668 1389 668 l 1326 669 m 1371 -36 q 1483 3 1440 -36 q 1525 94 1525 42 q 1497 164 1525 132 q 1429 221 1469 196 q 1315 285 1389 246 l 1267 310 q 1176 230 1197 261 q 1154 161 1154 199 q 1185 65 1154 110 q 1265 -8 1215 19 q 1371 -35 1315 -35 l 1371 -36 z "},"⅜":{"ha":1817,"x_min":36,"x_max":1724,"o":"m 383 832 q 514 741 478 779 q 550 658 550 703 q 434 474 550 554 q 64 319 318 393 l 47 381 q 269 458 193 425 q 375 527 344 492 q 406 613 406 563 q 376 676 406 649 q 257 746 346 703 l 257 785 q 338 879 318 847 q 358 943 358 911 q 324 1016 358 988 q 238 1044 290 1044 q 69 972 171 1044 l 36 1022 l 196 1133 q 242 1142 217 1142 q 372 1122 313 1142 q 467 1070 432 1103 q 503 999 503 1038 q 473 926 500 964 q 383 831 446 888 l 383 832 m 401 -267 l 349 -240 l 1211 1383 l 1265 1358 l 401 -267 m 1515 356 q 1669 256 1615 304 q 1724 140 1724 207 q 1674 27 1724 88 q 1551 -75 1624 -33 q 1421 -117 1479 -117 q 1238 -86 1319 -117 q 1111 -2 1157 -56 q 1065 115 1065 51 q 1110 218 1065 167 q 1258 346 1154 269 q 1158 428 1194 386 q 1122 522 1122 469 q 1169 623 1122 569 q 1283 713 1215 676 q 1407 750 1350 750 q 1536 726 1479 750 q 1625 661 1593 701 q 1657 574 1657 621 q 1623 481 1653 529 q 1513 354 1593 432 l 1515 356 m 1382 669 q 1300 640 1333 669 q 1267 568 1267 611 q 1313 476 1267 517 q 1450 389 1360 436 q 1512 468 1499 442 q 1525 528 1525 494 q 1485 628 1525 588 q 1382 668 1444 668 l 1382 669 m 1426 -36 q 1538 3 1496 -36 q 1581 94 1581 42 q 1553 164 1581 132 q 1485 221 1525 196 q 1371 285 1444 246 l 1322 310 q 1231 230 1253 261 q 1210 161 1210 199 q 1240 65 1210 110 q 1321 -8 1271 19 q 1426 -35 1371 -35 l 1426 -36 z "},"⅝":{"ha":1913,"x_min":67,"x_max":1819,"o":"m 174 929 q 417 822 332 867 q 536 739 503 776 q 569 658 569 701 q 499 508 569 572 q 326 402 429 444 q 83 319 224 360 l 67 381 q 296 462 219 426 q 399 531 372 497 q 425 613 425 564 q 400 683 425 651 q 303 751 375 714 q 92 842 232 788 l 163 1132 l 478 1132 l 514 1214 l 556 1200 l 556 996 l 486 1014 l 193 1014 l 174 929 m 497 -267 l 444 -240 l 1307 1383 l 1361 1358 l 497 -267 m 1611 356 q 1765 256 1711 304 q 1819 140 1819 207 q 1769 27 1819 88 q 1647 -75 1719 -33 q 1517 -117 1575 -117 q 1334 -86 1415 -117 q 1207 -2 1253 -56 q 1161 115 1161 51 q 1206 218 1161 167 q 1354 346 1250 269 q 1254 428 1290 386 q 1218 522 1218 469 q 1265 623 1218 569 q 1378 713 1311 676 q 1503 750 1446 750 q 1632 726 1575 750 q 1721 661 1689 701 q 1753 574 1753 621 q 1719 481 1749 529 q 1608 354 1689 432 l 1611 356 m 1478 669 q 1396 640 1429 669 q 1363 568 1363 611 q 1409 476 1363 517 q 1546 389 1456 436 q 1608 468 1594 442 q 1621 528 1621 494 q 1581 628 1621 588 q 1478 668 1540 668 l 1478 669 m 1522 -36 q 1634 3 1592 -36 q 1676 94 1676 42 q 1649 164 1676 132 q 1581 221 1621 196 q 1467 285 1540 246 l 1418 310 q 1327 230 1349 261 q 1306 161 1306 199 q 1336 65 1306 110 q 1417 -8 1367 19 q 1522 -35 1467 -35 l 1522 -36 z "},"⅞":{"ha":1838,"x_min":97,"x_max":1744,"o":"m 683 1079 l 239 319 l 171 342 l 568 1014 l 174 1014 l 139 940 l 97 954 l 97 1149 l 167 1132 l 683 1132 l 683 1079 m 422 -267 l 369 -240 l 1232 1383 l 1286 1358 l 422 -267 m 1536 356 q 1690 256 1636 304 q 1744 140 1744 207 q 1694 27 1744 88 q 1572 -75 1644 -33 q 1442 -117 1500 -117 q 1259 -86 1340 -117 q 1132 -2 1178 -56 q 1086 115 1086 51 q 1131 218 1086 167 q 1279 346 1175 269 q 1179 428 1215 386 q 1143 522 1143 469 q 1190 623 1143 569 q 1303 713 1236 676 q 1428 750 1371 750 q 1557 726 1500 750 q 1646 661 1614 701 q 1678 574 1678 621 q 1644 481 1674 529 q 1533 354 1614 432 l 1536 356 m 1403 669 q 1321 640 1354 669 q 1288 568 1288 611 q 1334 476 1288 517 q 1471 389 1381 436 q 1533 468 1519 442 q 1546 528 1546 494 q 1506 628 1546 588 q 1403 668 1465 668 l 1403 669 m 1447 -36 q 1559 3 1517 -36 q 1601 94 1601 42 q 1574 164 1601 132 q 1506 221 1546 196 q 1392 285 1465 246 l 1343 310 q 1252 230 1274 261 q 1231 161 1231 199 q 1261 65 1231 110 q 1342 -8 1292 19 q 1447 -35 1392 -35 l 1447 -36 z "},"₀":{"ha":874,"x_min":97,"x_max":776,"o":"m 476 456 q 631 419 563 456 q 738 322 700 383 q 776 185 776 260 q 717 34 776 104 q 569 -78 658 -36 q 397 -119 481 -119 q 243 -84 311 -119 q 136 13 175 -49 q 97 151 97 75 q 156 302 97 232 q 304 414 215 372 q 476 456 393 456 m 411 360 q 242 197 242 360 q 298 40 242 103 q 461 -24 354 -24 q 632 139 632 -24 q 575 297 632 233 q 411 360 518 360 z "},"₁":{"ha":546,"x_min":64,"x_max":435,"o":"m 413 -110 l 75 -110 l 75 -65 l 183 8 l 183 357 l 64 393 l 86 446 l 424 446 l 424 401 l 317 328 l 317 -22 l 435 -57 l 413 -110 z "},"₂":{"ha":682,"x_min":61,"x_max":610,"o":"m 610 -128 l 540 -110 l 61 -110 l 61 -67 q 276 90 201 31 q 379 188 350 150 q 408 257 408 225 q 368 330 408 301 q 265 358 328 358 q 96 286 196 358 l 63 336 l 222 447 q 296 456 254 456 q 483 416 413 456 q 553 313 553 376 q 276 8 553 219 l 532 8 l 568 90 l 610 76 l 610 -128 z "},"₃":{"ha":649,"x_min":36,"x_max":550,"o":"m 383 146 q 514 55 478 93 q 550 -28 550 17 q 434 -212 550 -132 q 64 -367 318 -293 l 47 -306 q 269 -228 193 -261 q 375 -159 344 -194 q 406 -74 406 -124 q 376 -10 406 -37 q 257 60 346 17 l 257 99 q 338 193 318 161 q 358 257 358 225 q 324 330 358 301 q 238 358 290 358 q 69 286 171 358 l 36 336 l 196 447 q 242 456 217 456 q 372 436 313 456 q 467 384 432 417 q 503 313 503 351 q 473 240 500 278 q 383 144 446 201 l 383 146 z "},"₄":{"ha":790,"x_min":42,"x_max":756,"o":"m 586 -64 l 586 -260 l 453 -318 l 453 -64 l 42 -64 l 42 -21 l 453 417 l 586 474 l 586 18 l 756 18 l 717 -64 l 586 -64 m 453 307 l 189 18 l 453 18 l 453 307 z "},"₅":{"ha":744,"x_min":67,"x_max":569,"o":"m 174 243 q 417 135 332 181 q 536 53 503 90 q 569 -28 569 15 q 499 -178 569 -114 q 326 -284 429 -242 q 83 -367 224 -326 l 67 -306 q 296 -224 219 -260 q 399 -156 372 -189 q 425 -74 425 -122 q 400 -3 425 -35 q 303 65 375 28 q 92 156 232 101 l 163 446 l 478 446 l 514 528 l 556 514 l 556 310 l 486 328 l 193 328 l 174 243 z "},"₆":{"ha":857,"x_min":125,"x_max":760,"o":"m 675 694 q 365 459 460 574 q 269 225 269 344 q 323 48 269 119 q 478 -24 376 -24 q 581 13 546 -24 q 615 119 615 49 q 550 270 615 208 q 383 361 485 332 l 417 418 q 592 385 514 418 q 715 294 669 351 q 760 165 760 236 q 709 31 760 97 q 578 -78 658 -36 q 414 -119 497 -119 q 265 -80 331 -119 q 162 28 199 -40 q 125 181 125 96 q 169 380 125 289 q 328 562 213 471 q 649 749 443 653 l 675 694 z "},"₇":{"ha":767,"x_min":97,"x_max":683,"o":"m 683 393 l 239 -367 l 171 -344 l 568 328 l 174 328 l 139 254 l 97 268 l 97 463 l 167 446 l 683 446 l 683 393 z "},"₈":{"ha":851,"x_min":100,"x_max":758,"o":"m 550 356 q 704 256 650 304 q 758 140 758 207 q 708 27 758 88 q 586 -75 658 -33 q 456 -117 514 -117 q 273 -86 354 -117 q 146 -2 192 -56 q 100 115 100 51 q 144 218 100 167 q 293 346 189 269 q 193 428 229 386 q 157 522 157 469 q 203 623 157 569 q 317 713 250 676 q 442 750 385 750 q 571 726 514 750 q 660 661 628 701 q 692 574 692 621 q 658 481 688 529 q 547 354 628 432 l 550 356 m 417 669 q 335 640 368 669 q 301 568 301 611 q 348 476 301 517 q 485 389 394 436 q 547 468 533 442 q 560 528 560 494 q 519 628 560 588 q 417 668 479 668 l 417 669 m 461 -36 q 573 3 531 -36 q 615 94 615 42 q 588 164 615 132 q 519 221 560 196 q 406 285 479 246 l 357 310 q 266 230 288 261 q 244 161 244 199 q 275 65 244 110 q 356 -8 306 19 q 461 -35 406 -35 l 461 -36 z "},"₉":{"ha":843,"x_min":97,"x_max":732,"o":"m 443 456 q 592 419 526 456 q 695 322 658 383 q 732 185 732 260 q 688 -9 732 79 q 529 -186 644 -97 q 208 -367 414 -275 l 182 -312 q 492 -85 397 -196 q 588 139 588 25 q 533 297 588 233 q 378 360 479 360 q 276 324 311 360 q 242 215 242 288 q 303 66 242 128 q 463 -25 365 4 l 428 -83 q 259 -50 335 -83 q 140 42 183 -17 q 97 171 97 100 q 148 305 97 239 q 279 413 199 371 q 443 456 360 456 z "},"⁰":{"ha":874,"x_min":97,"x_max":776,"o":"m 476 1142 q 631 1106 563 1142 q 738 1008 700 1069 q 776 871 776 946 q 717 720 776 790 q 569 608 658 650 q 397 567 481 567 q 243 602 311 567 q 136 699 175 638 q 97 838 97 761 q 156 988 97 918 q 304 1100 215 1058 q 476 1142 393 1142 m 411 1046 q 242 883 242 1046 q 298 726 242 789 q 461 663 354 663 q 632 825 632 663 q 575 983 632 919 q 411 1046 518 1046 z "},"¹":{"ha":593,"x_min":111,"x_max":482,"o":"m 460 576 l 122 576 l 122 621 l 231 694 l 231 1043 l 111 1079 l 133 1132 l 471 1132 l 471 1088 l 364 1014 l 364 664 l 482 629 l 460 576 z "},"²":{"ha":682,"x_min":61,"x_max":610,"o":"m 610 558 l 540 576 l 61 576 l 61 619 q 276 776 201 717 q 379 874 350 836 q 408 943 408 911 q 368 1016 408 988 q 265 1044 328 1044 q 96 972 196 1044 l 63 1022 l 222 1133 q 296 1142 254 1142 q 483 1102 413 1142 q 553 999 553 1063 q 276 694 553 906 l 532 694 l 568 776 l 610 763 l 610 558 z "},"³":{"ha":649,"x_min":36,"x_max":550,"o":"m 383 832 q 514 741 478 779 q 550 658 550 703 q 434 474 550 554 q 64 319 318 393 l 47 381 q 269 458 193 425 q 375 527 344 492 q 406 613 406 563 q 376 676 406 649 q 257 746 346 703 l 257 785 q 338 879 318 847 q 358 943 358 911 q 324 1016 358 988 q 238 1044 290 1044 q 69 972 171 1044 l 36 1022 l 196 1133 q 242 1142 217 1142 q 372 1122 313 1142 q 467 1070 432 1103 q 503 999 503 1038 q 473 926 500 964 q 383 831 446 888 l 383 832 z "},"⁴":{"ha":790,"x_min":42,"x_max":756,"o":"m 586 622 l 586 426 l 453 368 l 453 622 l 42 622 l 42 665 l 453 1103 l 586 1160 l 586 704 l 756 704 l 717 622 l 586 622 m 453 993 l 189 704 l 453 704 l 453 993 z "},"⁵":{"ha":744,"x_min":67,"x_max":569,"o":"m 174 929 q 417 822 332 867 q 536 739 503 776 q 569 658 569 701 q 499 508 569 572 q 326 402 429 444 q 83 319 224 360 l 67 381 q 296 462 219 426 q 399 531 372 497 q 425 613 425 564 q 400 683 425 651 q 303 751 375 714 q 92 842 232 788 l 163 1132 l 478 1132 l 514 1214 l 556 1200 l 556 996 l 486 1014 l 193 1014 l 174 929 z "},"⁶":{"ha":857,"x_min":125,"x_max":760,"o":"m 675 1381 q 365 1145 460 1260 q 269 911 269 1031 q 323 734 269 806 q 478 663 376 663 q 581 699 546 663 q 615 806 615 735 q 550 956 615 894 q 383 1047 485 1018 l 417 1104 q 592 1071 514 1104 q 715 980 669 1038 q 760 851 760 922 q 709 717 760 783 q 578 608 658 650 q 414 567 497 567 q 265 606 331 567 q 162 714 199 646 q 125 867 125 782 q 169 1066 125 975 q 328 1248 213 1157 q 649 1435 443 1339 l 675 1381 z "},"⁷":{"ha":767,"x_min":97,"x_max":683,"o":"m 683 1079 l 239 319 l 171 342 l 568 1014 l 174 1014 l 139 940 l 97 954 l 97 1149 l 167 1132 l 683 1132 l 683 1079 z "},"⁸":{"ha":851,"x_min":100,"x_max":758,"o":"m 550 1042 q 704 942 650 990 q 758 826 758 893 q 708 713 758 774 q 586 611 658 653 q 456 569 514 569 q 273 600 354 569 q 146 684 192 631 q 100 801 100 738 q 144 904 100 853 q 293 1032 189 956 q 193 1114 229 1072 q 157 1208 157 1156 q 203 1309 157 1256 q 317 1399 250 1363 q 442 1436 385 1436 q 571 1412 514 1436 q 660 1347 628 1388 q 692 1260 692 1307 q 658 1167 688 1215 q 547 1040 628 1118 l 550 1042 m 417 1356 q 335 1326 368 1356 q 301 1254 301 1297 q 348 1163 301 1203 q 485 1075 394 1122 q 547 1154 533 1128 q 560 1214 560 1181 q 519 1314 560 1274 q 417 1354 479 1354 l 417 1356 m 461 650 q 573 689 531 650 q 615 781 615 728 q 588 850 615 818 q 519 907 560 882 q 406 971 479 932 l 357 996 q 266 916 288 947 q 244 847 244 885 q 275 751 244 796 q 356 678 306 706 q 461 651 406 651 l 461 650 z "},"⁹":{"ha":843,"x_min":97,"x_max":732,"o":"m 443 1142 q 592 1106 526 1142 q 695 1008 658 1069 q 732 871 732 946 q 688 677 732 765 q 529 500 644 589 q 208 319 414 411 l 182 374 q 492 601 397 490 q 588 825 588 711 q 533 983 588 919 q 378 1046 479 1046 q 276 1010 311 1046 q 242 901 242 974 q 303 752 242 814 q 463 661 365 690 l 428 603 q 259 636 335 603 q 140 728 183 669 q 97 857 97 786 q 148 991 97 925 q 279 1099 199 1057 q 443 1142 360 1142 z "},"०":{"ha":904,"x_min":125,"x_max":779,"o":"m 403 814 q 573 766 485 814 q 720 641 661 718 q 779 479 779 564 q 743 351 779 408 q 644 262 707 294 q 501 229 581 229 q 331 277 419 229 q 184 402 243 325 q 125 564 125 479 q 161 692 125 635 q 260 781 197 749 q 403 814 324 814 m 476 703 q 394 680 433 703 q 331 609 356 657 q 306 492 306 561 q 428 340 306 340 q 510 363 471 340 q 574 433 549 385 q 599 551 599 481 q 476 703 599 703 z "},"१":{"ha":764,"x_min":50,"x_max":551,"o":"m 260 1106 q 408 1044 342 1106 q 513 876 475 983 q 551 638 551 769 q 522 314 551 514 q 465 -14 493 114 l 413 -14 l 299 42 q 383 633 365 371 q 363 632 376 632 q 216 674 289 632 q 97 781 143 715 q 50 914 50 847 q 79 1008 50 964 q 157 1079 108 1053 q 260 1106 206 1106 m 296 744 q 342 759 321 744 q 388 810 363 774 q 314 994 379 994 q 255 949 279 994 q 231 840 231 904 q 294 743 231 743 l 296 744 z "},"२":{"ha":892,"x_min":125,"x_max":975,"o":"m 532 369 q 396 304 456 304 q 287 345 349 304 q 181 443 225 386 q 138 543 138 500 q 275 606 138 606 q 440 578 354 606 q 535 719 506 650 q 564 849 564 789 q 537 925 564 897 q 461 953 510 953 q 350 925 417 953 q 222 853 283 897 l 125 939 l 125 992 q 253 1075 186 1044 q 375 1106 319 1106 q 540 1050 453 1106 q 685 912 626 994 q 744 756 744 829 q 697 587 744 681 q 581 418 650 493 l 975 88 l 929 35 l 532 369 z "},"३":{"ha":1008,"x_min":126,"x_max":888,"o":"m 888 207 q 840 105 888 157 q 722 19 793 53 q 582 -15 650 -15 q 503 -7 543 -15 l 785 -243 l 739 -294 l 276 94 q 167 206 208 144 q 126 326 126 268 q 145 396 126 374 q 192 418 164 418 q 290 359 250 418 q 356 156 329 300 q 481 121 419 121 q 604 142 549 121 q 691 199 660 164 q 722 275 722 235 q 694 358 722 317 q 601 454 667 400 q 415 593 536 508 l 415 646 q 506 686 460 654 q 581 760 551 718 q 610 842 610 803 q 586 921 610 889 q 514 953 563 953 q 268 853 410 953 l 171 939 l 171 992 q 298 1074 232 1043 q 418 1106 364 1106 q 589 1049 501 1106 q 733 908 676 992 q 790 751 790 825 q 747 633 790 686 q 631 554 704 579 q 821 373 756 461 q 886 208 886 285 l 888 207 z "},"४":{"ha":986,"x_min":147,"x_max":831,"o":"m 567 599 q 740 406 689 467 q 806 306 790 344 q 822 215 822 267 q 785 101 822 154 q 683 16 747 47 q 546 -15 619 -15 q 359 33 450 -15 q 211 160 268 82 q 154 319 154 238 q 183 432 154 375 q 281 568 211 489 l 385 686 l 282 800 q 179 943 211 878 q 147 1075 147 1008 q 158 1174 147 1126 l 203 1225 l 339 1107 q 328 1008 328 1043 q 435 743 328 860 l 525 846 q 628 999 603 935 q 653 1143 653 1063 q 647 1179 653 1164 l 701 1226 l 828 1114 q 831 1075 831 1100 q 788 940 831 1008 q 631 742 744 871 l 536 633 l 567 599 m 463 96 q 592 144 542 96 q 642 268 642 192 q 486 574 642 394 l 425 504 q 335 254 335 403 q 365 134 335 172 q 463 96 396 96 z "},"५":{"ha":1033,"x_min":181,"x_max":1131,"o":"m 715 86 q 613 -14 669 -14 q 484 28 557 -14 q 359 128 411 69 q 307 231 307 186 q 345 272 307 256 q 450 288 383 288 q 604 269 515 288 q 626 465 618 368 q 635 700 633 561 q 528 678 582 678 q 369 719 450 678 q 234 828 288 760 q 181 974 181 896 l 181 1106 l 233 1106 l 347 1050 l 347 926 q 444 789 347 789 q 574 830 517 789 q 632 949 632 871 l 632 1106 l 685 1106 l 799 1050 l 799 651 q 740 156 799 342 l 1131 -172 l 1085 -225 l 715 86 z "},"६":{"ha":1097,"x_min":100,"x_max":1286,"o":"m 819 357 q 668 277 747 308 q 526 246 589 246 q 349 291 440 246 q 197 411 257 336 q 136 569 136 486 q 168 671 136 622 q 257 753 200 719 q 143 837 186 788 q 100 942 100 886 q 135 1031 100 990 q 233 1094 171 1071 q 374 1118 296 1118 l 400 1117 l 497 1031 l 497 978 q 422 988 460 988 q 318 958 356 988 q 281 889 281 929 q 319 831 281 853 q 469 804 357 808 l 482 804 l 579 718 l 579 665 q 529 668 563 668 q 372 622 426 668 q 318 504 318 576 q 349 417 318 447 q 444 386 381 386 q 599 417 532 386 q 708 497 667 449 q 679 675 679 588 q 742 813 679 813 q 842 769 785 813 q 940 663 899 725 q 981 554 981 601 q 953 481 981 521 q 878 400 925 440 l 1286 57 l 1239 4 l 819 357 z "},"७":{"ha":1303,"x_min":124,"x_max":1139,"o":"m 833 981 q 986 922 915 981 q 1098 763 1057 863 q 1139 544 1139 663 q 1078 263 1139 390 q 911 60 1017 135 q 679 -14 806 -14 q 400 80 528 -14 q 198 331 272 174 q 124 667 124 488 q 250 1175 124 914 l 294 1226 l 431 1108 q 331 807 357 940 q 304 542 304 674 q 379 223 304 343 q 597 103 454 103 q 832 208 740 103 q 950 507 924 314 l 938 507 q 791 549 864 507 q 672 656 718 590 q 625 786 625 721 q 654 882 625 838 q 731 953 683 926 q 835 981 779 981 l 833 981 m 867 618 q 913 633 892 618 q 958 683 933 647 q 892 869 954 869 q 830 825 856 869 q 804 718 804 781 q 867 618 804 618 z "},"८":{"ha":1000,"x_min":-92,"x_max":967,"o":"m 531 954 q 372 882 432 954 q 313 690 313 810 q 350 578 313 622 q 442 510 388 535 q 592 456 497 486 q 762 392 697 422 q 871 306 826 363 q 915 157 915 249 q 871 47 915 94 q 769 -25 826 -1 l 672 61 l 672 114 q 735 224 735 146 q 703 303 735 271 q 625 358 672 336 q 493 408 578 379 q 307 483 379 447 q 183 586 235 519 q 132 757 132 653 q 192 953 132 864 l 14 953 l -92 1039 l -92 1092 l 861 1092 l 967 1006 l 967 953 l 529 953 l 531 954 z "},"९":{"ha":958,"x_min":125,"x_max":858,"o":"m 858 153 q 699 38 797 89 q 515 -14 600 -14 q 338 42 429 -14 q 185 188 246 97 q 125 379 125 279 q 186 522 125 454 q 344 625 247 589 q 221 750 268 679 q 174 901 174 821 q 203 1005 174 958 q 286 1079 232 1051 q 410 1107 340 1107 q 563 1074 488 1107 q 684 988 638 1040 q 731 881 731 936 q 678 794 731 829 q 550 758 625 758 l 524 761 l 431 833 l 431 886 q 478 876 450 876 q 530 896 510 876 q 550 947 550 915 q 496 989 550 989 q 394 948 433 989 q 354 849 354 907 q 381 742 354 793 q 461 651 408 692 q 539 654 503 656 l 636 568 l 636 515 q 586 518 619 518 q 372 455 453 518 q 292 285 292 392 q 331 171 292 217 q 432 125 371 125 q 621 173 543 125 q 761 292 699 221 l 858 206 l 858 153 z "},"Ⅰ":{"ha":686,"x_min":111,"x_max":575,"o":"m 547 0 l 125 0 l 125 43 l 260 149 l 260 688 l 111 738 l 139 793 l 561 793 l 561 750 l 426 644 l 426 106 l 575 56 l 547 0 z "},"Ⅱ":{"ha":1372,"x_min":111,"x_max":1261,"o":"m 547 0 l 125 0 l 125 43 l 260 149 l 260 688 l 111 738 l 139 793 l 561 793 l 561 750 l 426 644 l 426 106 l 575 56 l 547 0 m 1233 0 l 811 0 l 811 43 l 946 149 l 946 688 l 797 738 l 825 793 l 1247 793 l 1247 750 l 1113 644 l 1113 106 l 1261 56 l 1233 0 z "},"Ⅲ":{"ha":2058,"x_min":111,"x_max":1947,"o":"m 547 0 l 125 0 l 125 43 l 260 149 l 260 688 l 111 738 l 139 793 l 561 793 l 561 750 l 426 644 l 426 106 l 575 56 l 547 0 m 1233 0 l 811 0 l 811 43 l 946 149 l 946 688 l 797 738 l 825 793 l 1247 793 l 1247 750 l 1113 644 l 1113 106 l 1261 56 l 1233 0 m 1919 0 l 1497 0 l 1497 43 l 1632 149 l 1632 688 l 1483 738 l 1511 793 l 1933 793 l 1933 750 l 1799 644 l 1799 106 l 1947 56 l 1919 0 z "},"Ⅳ":{"ha":1757,"x_min":111,"x_max":1758,"o":"m 547 0 l 125 0 l 125 43 l 260 149 l 260 688 l 111 738 l 139 793 l 561 793 l 561 750 l 426 644 l 426 106 l 575 56 l 547 0 m 1633 651 l 1307 43 l 1163 -28 l 821 656 l 688 736 l 715 792 l 1124 792 l 1124 749 l 1008 654 l 1274 124 l 1560 653 l 1321 738 l 1349 793 l 1757 793 l 1758 749 l 1633 651 z "},"Ⅴ":{"ha":1071,"x_min":1,"x_max":1072,"o":"m 947 651 l 621 43 l 476 -28 l 135 656 l 1 736 l 29 792 l 438 792 l 438 749 l 322 654 l 588 124 l 874 653 l 635 738 l 663 793 l 1071 793 l 1072 749 l 947 651 z "},"Ⅵ":{"ha":1757,"x_min":1,"x_max":1646,"o":"m 947 651 l 621 43 l 476 -28 l 135 656 l 1 736 l 29 792 l 438 792 l 438 749 l 322 654 l 588 124 l 874 653 l 635 738 l 663 793 l 1071 793 l 1072 749 l 947 651 m 1618 0 l 1196 0 l 1196 43 l 1331 149 l 1331 688 l 1182 738 l 1210 793 l 1632 793 l 1632 750 l 1497 644 l 1497 106 l 1646 56 l 1618 0 z "},"Ⅶ":{"ha":2443,"x_min":1,"x_max":2332,"o":"m 947 651 l 621 43 l 476 -28 l 135 656 l 1 736 l 29 792 l 438 792 l 438 749 l 322 654 l 588 124 l 874 653 l 635 738 l 663 793 l 1071 793 l 1072 749 l 947 651 m 1618 0 l 1196 0 l 1196 43 l 1331 149 l 1331 688 l 1182 738 l 1210 793 l 1632 793 l 1632 750 l 1497 644 l 1497 106 l 1646 56 l 1618 0 m 2304 0 l 1882 0 l 1882 43 l 2017 149 l 2017 688 l 1868 738 l 1896 793 l 2318 793 l 2318 750 l 2183 644 l 2183 106 l 2332 56 l 2304 0 z "}}}
